{"glyphs":{"0":{"ha":1039,"x_min":0,"x_max":0,"o":"m 503 951 b 79 468 231 951 79 783 b 503 -14 79 154 229 -14 b 926 468 776 -14 926 154 b 503 951 926 783 775 951 z m 503 788 b 764 469 685 788 764 683 b 503 150 764 254 686 150 b 240 469 319 150 240 254 b 503 788 240 683 319 788 z "},"1":{"ha":468,"x_min":0,"x_max":0,"o":"m 40 938 l 40 774 l 125 774 b 193 703 175 774 193 753 l 193 0 l 357 0 l 357 714 b 139 938 357 876 310 938 z "},"2":{"ha":1019,"x_min":0,"x_max":0,"o":"m 124 938 l 124 774 l 665 774 b 781 669 740 774 781 732 b 693 578 781 625 760 593 l 299 488 b 93 218 139 451 93 371 l 93 76 b 171 0 93 25 118 0 l 918 0 l 918 164 l 275 164 b 257 183 263 164 257 168 l 257 231 b 335 333 257 283 269 318 l 725 421 b 943 672 876 456 943 533 b 661 938 943 844 842 938 z "},"3":{"ha":946,"x_min":0,"x_max":0,"o":"m 83 938 l 83 774 l 551 774 b 693 657 650 774 693 728 b 550 544 693 579 646 544 l 265 544 l 265 396 l 554 396 b 697 283 649 396 697 358 b 556 164 697 208 651 164 l 82 164 l 82 0 l 556 0 b 868 251 776 0 868 111 b 732 471 868 364 821 433 b 865 686 818 507 865 575 b 551 938 865 831 772 938 z "},"4":{"ha":978,"x_min":0,"x_max":0,"o":"m 104 508 b 46 357 69 467 46 426 b 263 194 46 251 104 194 l 701 194 l 701 0 l 867 0 l 867 767 b 697 938 867 878 818 938 l 593 938 b 375 832 481 938 433 901 z m 501 733 b 586 774 528 764 544 774 l 660 774 b 701 728 689 774 701 757 l 701 340 l 292 340 b 229 386 247 340 229 357 b 246 429 229 404 235 417 z "},"5":{"ha":951,"x_min":0,"x_max":0,"o":"m 183 938 b 106 861 131 938 106 913 l 106 497 b 183 421 106 446 131 421 l 574 421 b 718 297 683 421 718 372 b 588 164 718 217 681 164 l 110 164 l 110 0 l 582 0 b 882 294 797 0 882 124 b 565 569 882 444 818 569 l 288 569 b 269 586 275 569 269 575 l 269 757 b 288 774 269 769 275 774 l 831 774 l 831 938 z "},"6":{"ha":990,"x_min":0,"x_max":0,"o":"m 503 938 b 79 468 231 938 79 783 b 465 0 79 154 229 0 l 625 0 b 917 299 833 0 917 131 b 640 553 917 471 832 553 l 247 553 b 503 774 267 707 347 774 l 863 774 l 863 938 z m 624 421 b 756 300 708 421 756 383 b 618 164 756 219 711 164 l 488 164 b 244 421 333 164 256 240 z "},"7":{"ha":904,"x_min":0,"x_max":0,"o":"m 40 938 l 40 774 l 608 774 b 675 715 660 774 675 744 b 651 654 675 696 668 676 l 168 0 l 374 0 l 776 547 b 854 746 831 622 854 683 b 628 938 854 838 803 938 z "},"8":{"ha":1008,"x_min":0,"x_max":0,"o":"m 393 938 b 79 681 172 938 79 833 b 213 471 79 574 126 506 b 76 258 125 435 76 367 b 389 0 76 108 168 0 l 618 0 b 932 258 839 0 932 108 b 794 471 932 367 882 435 b 928 681 881 506 928 574 b 614 938 928 833 835 938 z m 385 163 b 240 283 288 163 240 207 b 385 400 240 360 290 400 l 622 400 b 767 283 718 400 767 360 b 622 163 767 207 721 163 z m 390 542 b 244 656 293 542 244 578 b 389 776 244 728 289 776 l 619 776 b 763 656 719 776 763 728 b 618 542 763 578 715 542 z "},"9":{"ha":990,"x_min":0,"x_max":0,"o":"m 385 938 b 74 639 156 938 74 807 b 349 385 74 467 158 385 l 742 385 b 488 164 719 229 638 164 l 179 164 l 179 0 l 488 0 b 911 483 760 0 911 156 b 542 938 911 807 761 938 z m 233 638 b 372 774 233 718 279 774 l 503 774 b 746 517 660 774 736 694 l 365 517 b 233 638 281 517 233 554 z "},"\u0017":{"ha":371,"x_min":0,"x_max":0,"o":""}," ":{"ha":371,"x_min":0,"x_max":0,"o":""},"!":{"ha":325,"x_min":0,"x_max":0,"o":"m 78 964 l 101 331 l 228 331 l 250 964 z m 85 189 l 85 0 l 243 0 l 243 189 z "},"\"":{"ha":531,"x_min":0,"x_max":0,"o":"m 324 1051 l 343 636 l 447 636 l 465 1051 z m 64 1051 l 83 636 l 188 636 l 206 1051 z "},"#":{"ha":865,"x_min":0,"x_max":0,"o":"m 215 938 l 215 697 l 58 697 l 58 596 l 215 596 l 215 339 l 58 339 l 58 238 l 215 238 l 215 0 l 317 0 l 317 238 l 547 238 l 547 0 l 649 0 l 649 238 l 806 238 l 806 339 l 649 339 l 649 596 l 806 596 l 806 697 l 649 697 l 649 938 l 547 938 l 547 697 l 317 697 l 317 938 z m 317 596 l 547 596 l 547 339 l 317 339 z "},"$":{"ha":861,"x_min":0,"x_max":0,"o":"m 332 824 b 93 611 161 824 93 742 b 346 400 93 497 143 400 l 519 400 b 624 315 603 400 624 361 b 528 233 624 267 597 233 l 101 233 l 101 90 l 403 90 l 403 -82 l 503 -82 l 503 90 l 528 90 b 768 314 700 90 768 182 b 514 515 768 426 717 515 l 342 515 b 238 600 260 515 238 553 b 333 682 238 649 265 682 l 739 682 l 739 824 l 503 824 l 503 1019 l 403 1019 l 403 824 z "},"%":{"ha":1174,"x_min":0,"x_max":0,"o":"m 897 938 l 161 0 l 274 0 l 1007 938 z m 900 522 b 668 257 750 522 668 432 b 900 -8 668 85 749 -8 b 1133 257 1050 -8 1133 85 b 900 522 1133 432 1050 522 z m 900 428 b 1039 258 997 428 1039 374 b 900 88 1039 143 997 88 b 761 258 801 88 761 143 b 900 428 761 374 801 428 z m 272 944 b 40 679 122 944 40 854 b 272 414 40 507 121 414 b 506 679 422 414 506 507 b 272 944 506 854 422 944 z m 272 850 b 411 681 369 850 411 796 b 272 510 411 565 369 510 b 133 681 174 510 133 565 b 272 850 133 796 174 850 z "},"&":{"ha":1063,"x_min":0,"x_max":0,"o":"m 454 1051 b 217 814 300 1051 217 944 b 296 615 217 731 249 668 l 344 558 l 306 540 b 60 261 111 450 60 383 b 307 0 60 79 172 0 l 465 0 b 725 124 563 0 629 15 l 833 0 l 1021 0 l 814 236 l 1017 506 l 843 506 l 721 342 l 556 532 l 642 575 b 818 814 768 638 818 708 b 585 1051 818 944 744 1051 z m 467 143 l 339 143 b 215 282 263 143 215 199 b 379 446 215 349 249 381 l 424 468 l 633 229 b 467 143 574 161 531 143 z m 375 799 b 482 913 375 863 407 913 l 565 913 b 671 799 642 913 671 860 b 564 664 671 732 635 697 l 478 622 l 431 676 b 375 799 394 717 375 749 z "},"'":{"ha":269,"x_min":0,"x_max":0,"o":"m 64 1051 l 83 636 l 188 636 l 206 1051 z "},"(":{"ha":547,"x_min":0,"x_max":0,"o":"m 488 1243 b 113 751 210 1243 113 1099 l 113 125 b 488 -367 113 -222 210 -367 l 508 -367 l 508 -265 l 488 -265 b 214 113 283 -265 214 -174 l 214 764 b 488 1142 214 1050 283 1142 l 508 1142 l 508 1243 z "},")":{"ha":547,"x_min":0,"x_max":0,"o":"m 60 -367 b 435 125 338 -367 435 -222 l 435 751 b 60 1243 435 1099 338 1243 l 39 1243 l 39 1142 l 60 1142 b 333 764 264 1142 333 1050 l 333 113 b 60 -265 333 -174 264 -265 l 39 -265 l 39 -367 z "},"*":{"ha":775,"x_min":0,"x_max":0,"o":"m 113 919 l 64 836 l 317 707 l 65 575 l 114 492 l 354 646 l 342 363 l 436 363 l 424 646 l 663 494 l 711 576 l 458 707 l 710 838 l 663 921 l 422 768 l 435 1051 l 339 1051 l 351 768 z "},"+":{"ha":860,"x_min":0,"x_max":0,"o":"m 378 843 l 378 518 l 56 518 l 56 417 l 378 417 l 378 96 l 481 96 l 481 417 l 803 417 l 803 518 l 481 518 l 481 843 z "},",":{"ha":357,"x_min":0,"x_max":0,"o":"m 110 189 l 110 -53 b 56 -112 110 -94 93 -112 l 39 -112 l 39 -233 l 88 -233 b 268 -36 210 -233 268 -168 l 268 189 z "},"-":{"ha":576,"x_min":0,"x_max":0,"o":"m 40 511 l 40 369 l 536 369 l 536 511 z "},".":{"ha":336,"x_min":0,"x_max":0,"o":"m 89 189 l 89 0 l 247 0 l 247 189 z "},"/":{"ha":632,"x_min":0,"x_max":0,"o":"m 475 1051 l 15 -294 l 158 -294 l 617 1051 z "},":":{"ha":378,"x_min":0,"x_max":0,"o":"m 110 714 l 110 525 l 268 525 l 268 714 z m 110 189 l 110 0 l 268 0 l 268 189 z "},";":{"ha":378,"x_min":0,"x_max":0,"o":"m 110 189 l 110 -53 b 56 -112 110 -94 93 -112 l 39 -112 l 39 -233 l 88 -233 b 268 -36 210 -233 268 -168 l 268 189 z m 110 714 l 110 525 l 268 525 l 268 714 z "},"<":{"ha":860,"x_min":0,"x_max":0,"o":"m 117 569 b 56 467 72 551 56 519 b 117 364 56 414 72 381 l 803 94 l 803 203 l 161 451 b 153 467 154 454 153 460 b 161 482 153 474 154 478 l 803 731 l 803 840 z "},"=":{"ha":860,"x_min":0,"x_max":0,"o":"m 56 339 l 56 238 l 803 238 l 803 339 z m 56 697 l 56 596 l 803 596 l 803 697 z "},">":{"ha":860,"x_min":0,"x_max":0,"o":"m 743 364 b 804 467 788 382 804 414 b 743 569 804 519 788 553 l 57 839 l 57 731 l 699 482 b 707 467 706 479 707 474 b 699 451 707 460 706 456 l 57 203 l 57 93 z "},"?":{"ha":790,"x_min":0,"x_max":0,"o":"m 40 964 l 40 822 l 471 822 b 594 715 557 822 594 779 b 486 604 594 651 561 604 l 396 604 b 240 440 283 604 240 547 l 240 331 l 367 331 l 367 410 b 433 475 367 450 386 475 l 514 475 b 740 722 672 475 740 588 b 471 964 740 865 664 964 z m 225 189 l 225 0 l 383 0 l 383 189 z "},"@":{"ha":1064,"x_min":0,"x_max":0,"o":"m 365 843 b 107 553 203 843 107 747 l 107 -4 b 365 -294 107 -199 203 -294 l 951 -294 l 951 -176 l 365 -176 b 221 -6 274 -176 221 -124 l 221 554 b 365 725 221 672 274 725 l 711 725 b 842 583 803 725 842 683 l 842 532 l 593 532 b 365 288 443 532 365 467 l 365 236 b 593 -8 365 60 443 -8 l 729 -8 b 957 236 879 -8 957 60 l 957 590 b 722 843 957 764 882 843 z m 729 110 l 593 110 b 481 236 519 110 481 144 l 481 288 b 593 414 481 381 519 414 l 842 414 l 842 236 b 729 110 842 144 803 110 z "},"A":{"ha":1089,"x_min":0,"x_max":0,"o":"m 504 754 b 551 786 514 776 529 786 b 597 754 574 786 589 776 l 882 0 l 1064 0 l 747 833 b 553 954 714 921 650 954 b 356 833 454 954 390 921 l 26 0 l 207 0 z "},"B":{"ha":999,"x_min":0,"x_max":0,"o":"m 192 938 b 114 861 139 938 114 913 l 114 76 b 192 0 114 25 139 0 l 608 0 b 922 258 829 0 922 108 b 783 472 922 367 872 436 b 918 681 871 507 918 572 b 604 938 918 833 825 938 z m 275 406 l 613 406 b 757 285 708 406 757 364 b 613 163 757 208 711 163 l 293 163 b 275 178 282 163 275 167 z m 275 760 b 293 776 275 771 282 776 l 610 776 b 753 654 710 776 753 728 b 608 542 753 578 706 542 l 275 542 z "},"C":{"ha":947,"x_min":0,"x_max":0,"o":"m 503 938 b 79 468 231 938 79 783 b 503 0 79 154 229 0 l 865 0 l 865 164 l 503 164 b 243 468 321 164 243 254 b 503 774 243 683 322 774 l 865 774 l 865 938 z "},"D":{"ha":1024,"x_min":0,"x_max":0,"o":"m 192 938 b 114 861 139 938 114 913 l 114 76 b 192 0 114 25 139 0 l 522 0 b 944 468 797 0 944 153 b 522 938 944 785 796 938 z m 278 757 b 296 774 278 769 283 774 l 522 774 b 781 469 704 774 781 683 b 522 164 781 254 704 164 l 296 164 b 278 181 283 164 278 168 z "},"E":{"ha":963,"x_min":0,"x_max":0,"o":"m 393 938 b 79 682 172 938 79 832 b 211 471 79 579 124 507 b 76 256 125 435 76 363 b 389 0 76 110 167 0 l 864 0 l 864 164 l 389 164 b 247 282 293 164 247 208 b 390 396 247 358 296 396 l 856 396 l 856 544 l 394 544 b 251 656 300 544 251 579 b 393 774 251 728 294 774 l 863 774 l 863 938 z "},"F":{"ha":921,"x_min":0,"x_max":0,"o":"m 451 938 b 106 614 203 938 106 801 l 106 0 l 269 0 l 269 371 l 835 371 l 835 526 l 269 526 l 269 615 b 463 774 269 703 314 774 l 840 774 l 840 938 z "},"G":{"ha":1013,"x_min":0,"x_max":0,"o":"m 503 938 b 79 468 231 938 79 783 b 503 0 79 154 229 0 l 647 0 b 939 293 857 0 939 129 b 690 558 939 456 857 558 l 465 558 l 465 415 l 674 415 b 789 296 750 415 789 371 b 658 164 789 219 750 164 l 503 164 b 243 468 321 164 243 254 b 503 774 243 683 322 774 l 889 774 l 889 938 z "},"H":{"ha":1035,"x_min":0,"x_max":0,"o":"m 114 938 l 114 0 l 278 0 l 278 392 l 757 392 l 757 0 l 922 0 l 922 938 l 757 938 l 757 556 l 278 556 l 278 938 z "},"I":{"ha":390,"x_min":0,"x_max":0,"o":"m 114 938 l 114 0 l 278 0 l 278 938 z "},"J":{"ha":810,"x_min":0,"x_max":0,"o":"m 540 938 l 540 325 b 349 164 540 235 496 164 l 40 164 l 40 0 l 358 0 b 706 324 607 0 706 136 l 706 938 z "},"K":{"ha":983,"x_min":0,"x_max":0,"o":"m 114 938 l 114 0 l 278 0 l 278 392 l 368 392 b 629 278 544 392 578 378 l 772 0 l 956 0 l 804 294 b 618 475 749 403 706 451 b 781 646 694 508 739 563 l 928 938 l 751 938 l 608 657 b 368 540 556 554 529 540 l 278 540 l 278 938 z "},"L":{"ha":864,"x_min":0,"x_max":0,"o":"m 104 938 l 104 324 b 450 0 104 136 201 0 l 824 0 l 824 164 l 460 164 b 268 325 313 164 268 235 l 268 938 z "},"M":{"ha":1531,"x_min":0,"x_max":0,"o":"m 275 736 b 342 796 275 772 299 796 b 407 746 379 796 400 776 l 540 172 b 767 -17 568 51 636 -17 b 989 172 896 -17 960 49 l 1124 746 b 1189 796 1131 776 1150 796 b 1256 736 1232 796 1256 772 l 1256 0 l 1418 0 l 1418 744 b 1193 954 1418 869 1344 954 b 963 769 1058 954 989 888 l 831 196 b 768 143 822 163 803 143 b 706 196 733 143 714 163 l 574 769 b 338 954 547 888 471 954 b 113 744 186 954 113 869 l 113 0 l 275 0 z "},"N":{"ha":1221,"x_min":0,"x_max":0,"o":"m 276 742 b 333 796 276 775 296 796 b 392 756 363 796 379 783 l 665 157 b 894 -17 704 50 764 -17 b 1110 189 1039 -17 1110 65 l 1110 938 l 944 938 l 944 196 b 889 143 944 164 924 143 b 829 182 858 143 840 160 l 556 781 b 328 954 517 888 458 954 b 113 750 182 954 113 872 l 113 0 l 276 0 z "},"O":{"ha":1133,"x_min":0,"x_max":0,"o":"m 503 938 b 79 467 231 938 79 782 b 503 0 79 153 229 0 l 631 0 b 1054 467 904 0 1054 153 b 631 938 1054 782 903 938 z m 631 774 b 889 468 811 774 889 682 b 631 164 889 253 811 164 l 503 164 b 243 467 321 164 243 253 b 503 774 243 682 322 774 z "},"P":{"ha":943,"x_min":0,"x_max":0,"o":"m 111 938 l 111 774 l 599 774 b 728 649 688 774 728 717 b 597 519 728 583 690 519 l 260 519 b 113 371 157 519 113 476 l 113 0 l 276 0 l 276 339 b 300 363 276 356 285 363 l 592 363 b 893 657 811 363 893 515 b 592 938 893 807 803 938 z "},"Q":{"ha":1133,"x_min":0,"x_max":0,"o":"m 503 938 b 79 468 231 938 79 783 b 503 0 79 154 229 0 l 631 0 b 690 3 651 0 671 0 l 763 -147 l 928 -147 l 839 39 b 1054 468 979 103 1054 246 b 631 938 1054 783 903 938 z m 519 363 l 614 164 l 503 164 b 243 468 321 164 243 254 b 503 774 243 682 322 774 l 631 774 b 889 468 811 774 889 682 b 767 189 889 319 851 229 l 685 363 z "},"R":{"ha":992,"x_min":0,"x_max":0,"o":"m 111 938 l 111 774 l 625 774 b 756 650 715 774 756 717 b 625 519 756 583 718 519 l 260 519 b 113 371 157 519 113 476 l 113 0 l 276 0 l 276 339 b 300 363 276 356 285 363 l 544 363 l 758 0 l 940 0 l 722 375 b 921 657 865 415 921 540 b 619 938 921 807 831 938 z "},"S":{"ha":976,"x_min":0,"x_max":0,"o":"m 363 938 b 71 668 154 938 71 824 b 379 397 71 538 129 397 l 597 397 b 744 281 713 397 744 342 b 615 164 744 213 704 164 l 88 164 l 88 0 l 610 0 b 908 275 824 0 908 117 b 593 551 908 410 849 551 l 374 551 b 235 663 264 551 235 606 b 357 774 235 728 272 774 l 838 774 l 838 938 z "},"T":{"ha":793,"x_min":0,"x_max":0,"o":"m 40 938 l 40 774 l 314 774 l 314 0 l 479 0 l 479 774 l 753 774 l 753 938 z "},"U":{"ha":1017,"x_min":0,"x_max":0,"o":"m 107 938 l 107 299 b 410 0 107 101 210 0 l 607 0 b 911 299 807 0 911 101 l 911 938 l 750 938 l 750 311 b 596 164 750 218 701 164 l 429 164 b 274 311 321 164 274 218 l 274 938 z "},"V":{"ha":1089,"x_min":0,"x_max":0,"o":"m 26 938 l 340 104 b 538 -17 375 13 446 -17 b 733 104 635 -17 699 17 l 1064 938 l 882 938 l 583 183 b 538 151 574 161 560 151 b 492 183 515 151 500 161 l 207 938 z "},"W":{"ha":1453,"x_min":0,"x_max":0,"o":"m 44 938 l 125 196 b 339 -17 139 69 194 -17 b 560 174 464 -17 535 46 l 669 746 b 726 796 676 779 696 796 b 783 746 757 796 778 779 l 886 174 b 1101 -17 910 42 983 -17 b 1321 196 1249 -17 1307 72 l 1408 938 l 1238 938 l 1158 206 b 1101 143 1154 165 1138 143 b 1042 194 1068 143 1047 161 l 938 769 b 728 954 915 890 850 954 b 513 769 606 954 536 890 l 401 194 b 343 143 394 160 375 143 b 286 206 307 143 290 165 l 217 938 z "},"X":{"ha":1085,"x_min":0,"x_max":0,"o":"m 65 938 l 446 489 l 26 0 l 229 0 l 549 372 l 860 0 l 1060 0 l 656 476 l 1057 938 l 854 938 l 553 592 l 265 938 z "},"Y":{"ha":957,"x_min":0,"x_max":0,"o":"m 18 938 l 396 404 l 396 0 l 561 0 l 561 404 l 939 938 l 744 938 l 479 536 l 217 938 z "},"Z":{"ha":1032,"x_min":0,"x_max":0,"o":"m 113 938 l 113 774 l 717 774 b 788 713 764 774 788 749 b 739 643 788 681 769 656 l 231 425 b 79 206 129 382 79 313 b 306 0 79 75 156 0 l 935 0 l 935 164 l 317 164 b 247 225 271 164 247 189 b 294 294 247 257 265 282 l 806 513 b 956 732 906 556 956 625 b 728 938 956 863 878 938 z "},"[":{"ha":547,"x_min":0,"x_max":0,"o":"m 114 1243 l 114 -367 l 508 -367 l 508 -265 l 215 -265 l 215 1142 l 508 1142 l 508 1243 z "},"\\":{"ha":632,"x_min":0,"x_max":0,"o":"m 15 1051 l 474 -294 l 617 -294 l 157 1051 z "},"]":{"ha":547,"x_min":0,"x_max":0,"o":"m 433 -367 l 433 1243 l 39 1243 l 39 1142 l 332 1142 l 332 -265 l 39 -265 l 39 -367 z "},"^":{"ha":743,"x_min":0,"x_max":0,"o":"m 356 944 b 371 954 358 951 364 954 b 386 944 376 954 382 953 l 560 510 l 669 510 l 474 990 b 371 1051 456 1035 424 1051 b 268 990 318 1051 286 1035 l 71 507 l 181 507 z "},"_":{"ha":714,"x_min":0,"x_max":0,"o":"m 0 -189 l 0 -294 l 719 -294 l 719 -189 z "},"`":{"ha":478,"x_min":0,"x_max":0,"o":"m 117 1079 l 289 781 l 436 781 l 281 1079 z "},"a":{"ha":933,"x_min":0,"x_max":0,"o":"m 135 733 l 135 592 l 574 592 b 686 490 654 592 686 547 l 686 435 l 338 435 b 90 224 157 435 90 357 b 336 0 90 85 163 0 l 679 0 b 831 147 803 0 831 42 l 831 492 b 575 733 831 631 758 733 z m 646 143 l 338 143 b 235 232 264 143 235 178 b 340 318 235 286 263 318 l 686 318 l 686 181 b 646 143 686 154 675 143 z "},"b":{"ha":965,"x_min":0,"x_max":0,"o":"m 106 1051 l 106 314 b 375 0 106 103 199 0 l 578 0 b 894 367 772 0 894 119 b 578 733 894 614 772 733 l 253 733 l 253 1051 z m 563 592 b 746 367 690 592 746 525 b 563 143 746 208 690 143 l 418 143 b 253 321 299 143 253 196 l 253 592 z "},"c":{"ha":836,"x_min":0,"x_max":0,"o":"m 389 733 b 71 367 193 733 71 614 b 389 0 71 119 193 0 l 767 0 l 767 143 l 403 143 b 219 367 275 143 219 208 b 403 592 219 525 275 592 l 767 592 l 767 733 z "},"d":{"ha":965,"x_min":0,"x_max":0,"o":"m 713 1051 l 713 733 l 389 733 b 71 367 193 733 71 614 b 389 0 71 119 193 0 l 592 0 b 861 314 767 0 861 103 l 861 1051 z m 549 143 l 403 143 b 219 367 276 143 219 208 b 403 592 219 525 276 592 l 713 592 l 713 321 b 549 143 713 196 667 143 z "},"e":{"ha":906,"x_min":0,"x_max":0,"o":"m 346 733 b 90 492 163 733 90 631 l 90 242 b 346 0 90 103 163 0 l 794 0 l 794 143 l 346 143 b 233 244 265 143 233 186 l 233 297 l 582 297 b 831 508 763 297 831 374 b 583 733 831 650 757 733 z m 233 490 b 346 592 233 547 265 592 l 582 592 b 686 500 654 592 686 556 b 578 413 686 446 657 413 l 233 413 z "},"f":{"ha":521,"x_min":0,"x_max":0,"o":"m 32 733 l 32 592 l 132 592 l 132 0 l 281 0 l 281 592 l 483 592 l 483 733 l 281 733 l 281 807 b 379 917 281 889 310 917 l 481 917 l 481 1051 l 349 1051 b 132 799 197 1051 132 990 l 132 733 z "},"g":{"ha":961,"x_min":0,"x_max":0,"o":"m 389 733 b 71 383 193 733 71 619 b 389 31 71 146 193 31 l 713 31 l 713 -3 b 567 -151 713 -108 676 -151 l 147 -151 l 147 -293 l 583 -293 b 861 -3 789 -293 861 -211 l 861 419 b 592 733 861 631 767 733 z m 219 378 b 403 592 219 528 276 592 l 549 592 b 713 421 667 592 713 540 l 713 164 l 403 164 b 219 378 276 164 219 228 z "},"h":{"ha":982,"x_min":0,"x_max":0,"o":"m 106 1051 l 106 0 l 253 0 l 253 592 l 511 592 b 732 413 664 592 732 525 l 732 0 l 881 0 l 881 413 b 511 733 881 614 758 733 l 253 733 l 253 1051 z "},"i":{"ha":358,"x_min":0,"x_max":0,"o":"m 106 733 l 106 0 l 253 0 l 253 733 z m 106 1010 l 106 839 l 254 839 l 254 1010 z "},"j":{"ha":375,"x_min":0,"x_max":0,"o":"m 121 733 l 121 -43 b 21 -153 121 -125 93 -153 l -75 -153 l -75 -294 l 54 -294 b 269 -42 204 -294 269 -233 l 269 733 z m 121 1010 l 121 839 l 269 839 l 269 1010 z "},"k":{"ha":836,"x_min":0,"x_max":0,"o":"m 106 1051 l 106 0 l 253 0 l 253 306 l 321 306 b 522 217 450 306 479 293 l 644 0 l 810 0 l 678 231 b 528 372 633 307 597 353 b 658 503 588 397 622 438 l 786 733 l 626 733 l 504 513 b 321 429 461 435 438 429 l 253 429 l 253 1051 z "},"l":{"ha":358,"x_min":0,"x_max":0,"o":"m 106 1051 l 106 0 l 253 0 l 253 1051 z "},"m":{"ha":1433,"x_min":0,"x_max":0,"o":"m 208 733 b 106 619 135 733 106 706 l 106 0 l 253 0 l 253 571 b 271 592 253 585 258 592 l 643 592 l 643 0 l 792 0 l 792 592 l 964 592 b 1185 413 1118 592 1185 528 l 1185 0 l 1333 0 l 1333 413 b 963 733 1333 615 1211 733 z "},"n":{"ha":982,"x_min":0,"x_max":0,"o":"m 208 733 b 106 619 135 733 106 706 l 106 0 l 253 0 l 253 571 b 271 592 253 585 258 592 l 511 592 b 732 413 665 592 732 528 l 732 0 l 881 0 l 881 413 b 511 733 881 615 760 733 z "},"o":{"ha":932,"x_min":0,"x_max":0,"o":"m 389 733 b 71 367 193 733 71 614 b 389 0 71 119 193 0 l 543 0 b 861 367 738 0 861 119 b 543 733 861 614 738 733 z m 529 592 b 713 367 656 592 713 525 b 529 143 713 208 656 143 l 403 143 b 219 367 275 143 219 208 b 403 592 219 525 275 592 z "},"p":{"ha":963,"x_min":0,"x_max":0,"o":"m 372 733 b 103 419 196 733 103 631 l 103 -294 l 250 -294 l 250 0 l 575 0 b 892 367 769 0 892 119 b 575 733 892 614 769 733 z m 250 413 b 415 592 250 539 296 592 l 560 592 b 743 367 688 592 743 525 b 560 143 743 208 688 143 l 250 143 z "},"q":{"ha":963,"x_min":0,"x_max":0,"o":"m 389 733 b 71 367 193 733 71 614 b 389 0 71 119 193 0 l 713 0 l 713 -294 l 861 -294 l 861 419 b 592 733 861 631 767 733 z m 219 367 b 403 592 219 525 276 592 l 549 592 b 713 413 667 592 713 539 l 713 143 l 403 143 b 219 367 276 143 219 208 z "},"r":{"ha":643,"x_min":0,"x_max":0,"o":"m 303 733 b 104 519 158 733 104 667 l 104 0 l 251 0 l 251 497 b 346 592 251 561 281 592 l 604 592 l 604 733 z "},"s":{"ha":814,"x_min":0,"x_max":0,"o":"m 310 733 b 71 519 139 733 71 651 b 324 306 71 407 121 306 l 497 306 b 601 224 571 306 601 282 b 506 143 601 167 574 143 l 79 143 l 79 0 l 506 0 b 746 222 678 0 746 92 b 492 429 746 336 694 429 l 319 429 b 215 508 238 429 215 457 b 311 592 215 564 243 592 l 717 592 l 717 733 z "},"t":{"ha":521,"x_min":0,"x_max":0,"o":"m 32 733 l 32 592 l 132 592 l 132 253 b 349 0 132 61 197 0 l 481 0 l 481 135 l 379 135 b 281 244 310 135 281 163 l 281 592 l 483 592 l 483 733 l 281 733 l 281 907 l 132 907 l 132 733 z "},"u":{"ha":975,"x_min":0,"x_max":0,"o":"m 101 733 l 101 289 b 419 0 101 119 210 0 l 556 0 b 874 289 765 0 874 119 l 874 733 l 729 733 l 729 294 b 550 143 729 208 667 143 l 431 143 b 250 294 314 143 250 208 l 250 733 z "},"v":{"ha":940,"x_min":0,"x_max":0,"o":"m 26 733 l 296 79 b 463 -17 324 11 378 -17 b 631 79 546 -17 600 10 l 914 733 l 756 733 l 501 144 b 463 122 494 129 482 122 b 426 144 444 122 432 129 l 182 733 z "},"w":{"ha":1357,"x_min":0,"x_max":0,"o":"m 42 733 l 118 153 b 317 -17 132 51 181 -17 b 519 135 433 -17 496 33 l 624 581 b 678 617 629 606 649 617 b 732 581 706 617 726 606 l 831 135 b 1028 -17 853 33 914 -17 b 1233 153 1161 -17 1219 51 l 1315 733 l 1156 733 l 1079 161 b 1029 114 1075 129 1063 114 b 974 154 996 114 979 128 l 875 599 b 679 747 853 696 796 747 b 478 599 563 747 500 696 l 374 154 b 319 114 367 128 353 114 b 267 161 285 114 271 129 l 201 733 z "},"x":{"ha":946,"x_min":0,"x_max":0,"o":"m 50 733 l 383 382 l 26 0 l 210 0 l 474 282 l 732 0 l 919 0 l 571 368 l 915 733 l 732 733 l 479 468 l 236 733 z "},"y":{"ha":899,"x_min":0,"x_max":0,"o":"m 715 733 l 467 157 l 447 157 b 403 188 419 157 413 161 l 182 733 l 26 733 l 272 117 b 410 26 297 53 326 26 l 272 -294 l 431 -294 l 872 733 z "},"z":{"ha":867,"x_min":0,"x_max":0,"o":"m 97 733 l 97 592 l 600 592 b 657 549 639 592 657 576 b 618 497 657 529 649 508 l 196 346 b 71 168 111 315 71 250 b 260 0 71 67 133 0 l 782 0 l 782 142 l 268 142 b 213 186 231 142 213 158 b 251 236 213 210 226 226 l 672 389 b 797 565 749 417 797 475 b 608 733 797 667 736 733 z "},"{":{"ha":547,"x_min":0,"x_max":0,"o":"m 461 1243 b 238 1018 300 1243 238 1185 l 238 617 b 144 489 238 519 194 489 l 74 489 l 74 388 l 144 388 b 238 260 194 388 238 357 l 238 -142 b 461 -367 238 -307 300 -367 l 508 -367 l 508 -265 l 461 -265 b 336 -139 372 -265 336 -228 l 336 260 b 263 438 336 356 304 410 b 336 617 304 467 336 522 l 336 1015 b 461 1142 336 1104 372 1142 l 508 1142 l 508 1243 z "},"|":{"ha":401,"x_min":0,"x_max":0,"o":"m 150 1107 l 150 -231 l 251 -231 l 251 1107 z "},"}":{"ha":547,"x_min":0,"x_max":0,"o":"m 86 -367 b 310 -142 247 -367 310 -308 l 310 260 b 403 388 310 357 353 388 l 474 388 l 474 489 l 403 489 b 310 617 353 489 310 519 l 310 1018 b 86 1243 310 1183 247 1243 l 39 1243 l 39 1142 l 86 1142 b 211 1015 175 1142 211 1104 l 211 617 b 285 439 211 521 243 467 b 211 260 243 410 211 354 l 211 -139 b 86 -265 211 -228 175 -265 l 39 -265 l 39 -367 z "},"~":{"ha":860,"x_min":0,"x_max":0,"o":"m 56 381 b 228 476 115 454 160 476 b 414 422 296 476 351 451 b 628 357 497 383 553 357 b 803 438 714 357 768 392 l 803 553 b 632 458 743 481 699 458 b 444 511 563 458 507 483 b 231 576 361 551 306 576 b 56 496 144 576 92 543 z "}," ":{"ha":371,"x_min":0,"x_max":0,"o":""},"¡":{"ha":325,"x_min":0,"x_max":0,"o":"m 251 -231 l 228 403 l 101 403 l 79 -231 z m 244 544 l 244 733 l 86 733 l 86 544 z "},"¢":{"ha":861,"x_min":0,"x_max":0,"o":"m 400 824 b 82 456 204 824 82 704 b 400 90 82 210 204 90 l 443 90 l 443 -82 l 546 -82 l 546 90 l 778 90 l 778 233 l 414 233 b 231 456 286 233 231 299 b 414 682 231 615 286 682 l 778 682 l 778 824 l 546 824 l 546 1019 l 443 1019 l 443 824 z "},"£":{"ha":903,"x_min":0,"x_max":0,"o":"m 53 542 l 53 418 l 221 418 l 221 164 l 53 164 l 53 0 l 803 0 l 803 164 l 386 164 l 386 418 l 794 418 l 794 542 l 386 542 l 386 613 b 579 774 386 703 431 774 l 800 774 l 800 938 l 568 938 b 221 614 319 938 221 801 l 221 542 z "},"¤":{"ha":913,"x_min":0,"x_max":0,"o":"m 413 781 b 258 744 351 781 300 768 l 132 871 l 60 799 l 185 674 b 138 476 153 625 138 558 b 185 279 138 393 154 328 l 61 156 l 132 85 l 258 210 b 413 175 300 186 351 175 l 496 175 b 649 210 556 175 607 186 l 775 83 l 846 156 l 722 279 b 769 476 753 328 769 393 b 721 674 769 560 753 625 l 847 800 l 775 871 l 649 744 b 496 781 607 768 556 781 z m 500 678 b 667 478 617 678 667 618 b 500 278 667 338 618 278 l 408 278 b 240 478 290 278 240 338 b 408 678 240 618 290 678 z "},"¥":{"ha":957,"x_min":0,"x_max":0,"o":"m 18 938 l 363 451 l 78 451 l 78 367 l 396 367 l 396 233 l 78 233 l 78 149 l 396 149 l 396 0 l 561 0 l 561 149 l 879 149 l 879 233 l 561 233 l 561 367 l 879 367 l 879 451 l 594 451 l 939 938 l 744 938 l 479 536 l 217 938 z "},"¦":{"ha":401,"x_min":0,"x_max":0,"o":"m 150 1107 l 150 532 l 251 532 l 251 1107 z m 150 344 l 150 -231 l 251 -231 l 251 344 z "},"§":{"ha":921,"x_min":0,"x_max":0,"o":"m 325 938 b 58 697 136 938 58 840 b 190 469 58 593 99 504 l 190 268 b 357 97 190 153 235 97 l 596 97 b 701 -12 668 97 701 50 b 581 -117 701 -76 665 -117 l 93 -117 l 93 -258 l 581 -258 b 849 -18 771 -258 849 -161 b 717 208 849 85 808 174 l 717 411 b 550 582 717 526 672 582 l 311 582 b 206 692 238 582 206 629 b 326 796 206 756 240 796 l 814 796 l 814 938 z m 513 454 b 590 379 568 454 590 429 l 590 225 l 393 225 b 317 300 339 225 317 250 l 317 454 z "},"¨":{"ha":636,"x_min":0,"x_max":0,"o":"m 75 1010 l 75 839 l 224 839 l 224 1010 z m 408 1010 l 408 839 l 557 839 l 557 1010 z "},"©":{"ha":1133,"x_min":0,"x_max":0,"o":"m 503 936 b 79 467 231 936 79 782 b 503 -1 79 153 229 -1 l 631 -1 b 1054 467 904 -1 1054 153 b 631 936 1054 782 903 936 z m 631 844 b 963 467 844 844 963 722 b 631 90 963 213 844 90 l 503 90 b 169 467 289 90 169 213 b 503 844 169 722 289 844 z m 546 722 b 321 474 401 722 321 642 b 546 226 321 308 400 226 l 738 226 l 738 313 l 546 313 b 408 474 449 313 408 361 b 546 636 408 588 450 636 l 738 636 l 738 722 z "},"ª":{"ha":658,"x_min":0,"x_max":0,"o":"m 111 938 l 111 840 l 401 840 b 474 771 453 840 474 810 l 474 728 l 243 728 b 81 586 124 728 81 676 b 242 436 81 493 128 436 l 465 436 b 572 543 553 436 572 467 l 572 772 b 401 938 572 868 525 938 z m 443 533 l 243 533 b 179 592 199 533 179 557 b 244 649 179 628 199 649 l 474 649 l 474 565 b 443 533 474 543 465 533 z "},"«":{"ha":583,"x_min":0,"x_max":0,"o":"m 443 758 l 286 442 b 274 379 278 424 274 400 b 286 317 274 357 278 335 l 443 0 l 542 0 l 371 354 b 364 379 367 363 364 371 b 371 404 364 388 367 397 l 542 758 z m 211 758 l 54 442 b 42 379 46 424 42 400 b 54 317 42 357 46 335 l 211 0 l 310 0 l 139 354 b 132 379 135 363 132 371 b 139 404 132 388 135 397 l 310 758 z "},"¬":{"ha":860,"x_min":0,"x_max":0,"o":"m 56 543 l 56 442 l 701 442 l 701 0 l 803 0 l 803 543 z "},"­":{"ha":576,"x_min":0,"x_max":0,"o":"m 40 511 l 40 369 l 536 369 l 536 511 z "},"®":{"ha":1133,"x_min":0,"x_max":0,"o":"m 503 936 b 79 467 231 936 79 782 b 503 -1 79 153 229 -1 l 631 -1 b 1054 467 904 -1 1054 153 b 631 936 1054 782 903 936 z m 631 844 b 963 467 844 844 963 722 b 631 90 963 213 844 90 l 503 90 b 169 467 289 90 169 213 b 503 844 169 722 289 844 z m 354 726 l 354 640 l 626 640 b 696 575 675 640 696 610 b 626 506 696 539 676 506 l 433 506 b 356 426 379 506 356 483 l 356 231 l 442 231 l 442 410 b 454 422 442 418 447 422 l 583 422 l 697 231 l 793 231 l 678 429 b 783 578 754 450 783 517 b 624 726 783 658 736 726 z "},"¯":{"ha":796,"x_min":0,"x_max":0,"o":"m 75 996 l 75 872 l 713 872 l 713 996 z "},"°":{"ha":540,"x_min":0,"x_max":0,"o":"m 231 954 b 47 733 117 954 47 882 b 231 513 47 585 117 513 l 321 513 b 506 733 435 513 506 585 b 321 954 506 882 435 954 z m 313 867 b 414 733 383 867 414 828 b 313 601 414 639 383 601 l 239 601 b 138 733 167 601 138 639 b 239 867 138 828 167 867 z "},"±":{"ha":860,"x_min":0,"x_max":0,"o":"m 378 939 l 378 614 l 56 614 l 56 513 l 378 513 l 378 192 l 481 192 l 481 513 l 803 513 l 803 614 l 481 614 l 481 939 z m 56 126 l 56 25 l 803 25 l 803 126 z "},"²":{"ha":547,"x_min":0,"x_max":0,"o":"m 57 938 l 57 842 l 354 842 b 414 792 400 842 414 825 b 369 743 414 768 406 751 l 154 693 b 40 542 71 675 40 636 l 40 471 b 90 422 40 439 57 422 l 494 422 l 494 518 l 147 518 b 136 531 139 518 136 521 l 136 549 b 174 603 136 588 147 597 l 388 651 b 508 794 472 671 508 718 b 353 938 508 888 453 938 z "},"³":{"ha":547,"x_min":0,"x_max":0,"o":"m 57 938 l 57 842 l 324 842 b 388 782 374 842 388 824 b 322 724 388 743 375 724 l 158 724 l 158 636 l 324 636 b 390 579 375 636 390 618 b 325 518 390 536 374 518 l 57 518 l 57 422 l 325 422 b 490 560 446 422 490 482 b 424 681 490 619 468 658 b 488 800 467 701 488 740 b 324 938 488 879 444 938 z "},"´":{"ha":478,"x_min":0,"x_max":0,"o":"m 190 1079 l 35 781 l 181 781 l 354 1079 z "},"¶":{"ha":1018,"x_min":0,"x_max":0,"o":"m 346 1051 b 63 796 144 1051 63 947 b 301 538 63 654 133 538 l 375 538 b 436 482 418 538 436 515 l 436 -294 l 563 -294 l 563 513 b 411 665 563 613 521 665 l 329 665 b 210 789 246 665 210 719 b 346 910 210 863 250 910 l 713 910 b 782 840 761 910 782 883 l 782 -297 l 908 -297 l 908 885 b 750 1051 908 994 865 1051 z "},"·":{"ha":336,"x_min":0,"x_max":0,"o":"m 89 539 l 89 350 l 247 350 l 247 539 z "},"¸":{"ha":374,"x_min":0,"x_max":0,"o":"m 143 -33 l 143 -197 b 92 -256 143 -237 128 -256 l 75 -256 l 75 -367 l 121 -367 b 290 -182 236 -367 290 -306 l 290 -33 z "},"¹":{"ha":547,"x_min":0,"x_max":0,"o":"m 142 938 l 142 842 l 247 842 b 293 796 283 842 293 832 l 293 422 l 388 422 l 388 803 b 256 938 388 904 363 938 z "},"º":{"ha":665,"x_min":0,"x_max":0,"o":"m 279 938 b 69 686 151 938 69 856 b 279 436 69 517 151 436 l 383 436 b 593 686 513 436 593 517 b 383 938 593 856 513 938 z m 374 840 b 490 686 456 840 490 794 b 374 533 490 579 456 533 l 289 533 b 171 686 208 533 171 579 b 289 840 171 794 208 840 z "},"»":{"ha":583,"x_min":0,"x_max":0,"o":"m 274 758 l 444 404 b 450 379 447 397 450 388 b 444 354 450 371 447 363 l 274 0 l 371 0 l 529 317 b 542 379 536 335 542 357 b 529 442 542 400 538 424 l 371 758 z m 42 758 l 213 404 b 218 379 215 397 218 388 b 213 354 218 371 215 363 l 42 0 l 139 0 l 297 317 b 310 379 304 335 310 357 b 297 442 310 400 306 424 l 139 758 z "},"¼":{"ha":1201,"x_min":0,"x_max":0,"o":"m 879 938 l 143 0 l 256 0 l 989 938 z m 107 938 l 107 842 l 213 842 b 258 796 249 842 258 832 l 258 422 l 353 422 l 353 803 b 221 938 353 904 328 938 z m 672 282 b 640 199 653 258 640 238 b 758 111 640 142 672 111 l 992 111 l 992 0 l 1088 0 l 1088 422 b 996 515 1088 483 1061 515 l 938 515 b 818 457 878 515 850 497 z m 892 401 b 935 419 904 417 914 419 l 975 419 b 992 400 986 419 992 414 l 992 196 l 775 196 b 746 215 754 196 746 203 b 754 236 746 224 749 231 z "},"½":{"ha":1201,"x_min":0,"x_max":0,"o":"m 842 938 l 106 0 l 218 0 l 951 938 z m 69 938 l 69 842 l 175 842 b 221 796 211 842 221 832 l 221 422 l 315 422 l 315 803 b 183 938 315 904 290 938 z m 679 515 l 679 419 l 976 419 b 1036 369 1022 419 1036 403 b 992 321 1036 346 1028 329 l 776 271 b 663 119 693 253 663 214 l 663 49 b 713 0 663 17 679 0 l 1117 0 l 1117 96 l 769 96 b 758 108 761 96 758 99 l 758 126 b 796 181 758 165 769 175 l 1010 229 b 1131 372 1094 249 1131 296 b 975 515 1131 465 1075 515 z "},"¾":{"ha":1201,"x_min":0,"x_max":0,"o":"m 929 938 l 193 0 l 306 0 l 1039 938 z m 722 282 b 690 199 703 258 690 238 b 808 111 690 142 722 111 l 1042 111 l 1042 0 l 1138 0 l 1138 422 b 1046 515 1138 483 1111 515 l 988 515 b 868 457 928 515 900 497 z m 942 401 b 985 419 954 417 964 419 l 1025 419 b 1042 400 1036 419 1042 414 l 1042 196 l 825 196 b 796 215 804 196 796 203 b 804 236 796 224 799 231 z m 58 938 l 58 842 l 325 842 b 389 782 375 842 389 824 b 324 724 389 743 376 724 l 160 724 l 160 636 l 325 636 b 392 579 376 636 392 618 b 326 518 392 536 375 518 l 58 518 l 58 422 l 326 422 b 492 560 447 422 492 482 b 425 681 492 619 469 658 b 489 800 468 701 489 740 b 325 938 489 879 446 938 z "},"¿":{"ha":790,"x_min":0,"x_max":0,"o":"m 740 -231 l 740 -89 l 310 -89 b 186 18 224 -89 186 -46 b 294 129 186 82 219 129 l 385 129 b 540 293 497 129 540 186 l 540 403 l 414 403 l 414 324 b 347 258 414 283 394 258 l 267 258 b 40 11 108 258 40 146 b 310 -231 40 -132 117 -231 z m 556 544 l 556 733 l 397 733 l 397 544 z "},"À":{"ha":1089,"x_min":0,"x_max":0,"o":"m 504 754 b 551 786 514 776 529 786 b 597 754 574 786 589 776 l 882 0 l 1064 0 l 747 833 b 553 954 714 921 650 954 b 356 833 454 954 390 921 l 26 0 l 207 0 z m 371 1283 l 543 985 l 690 985 l 535 1283 z "},"Á":{"ha":1089,"x_min":0,"x_max":0,"o":"m 504 754 b 551 786 514 776 529 786 b 597 754 574 786 589 776 l 882 0 l 1064 0 l 747 833 b 553 954 714 921 650 954 b 356 833 454 954 390 921 l 26 0 l 207 0 z m 558 1283 l 403 985 l 549 985 l 722 1283 z "},"Â":{"ha":1089,"x_min":0,"x_max":0,"o":"m 504 754 b 551 786 514 776 529 786 b 597 754 574 786 589 776 l 882 0 l 1064 0 l 747 833 b 553 954 714 921 650 954 b 356 833 454 954 390 921 l 26 0 l 207 0 z m 271 985 l 428 985 l 519 1158 b 547 1171 525 1168 535 1171 b 575 1158 561 1171 571 1167 l 668 985 l 825 985 l 699 1213 b 549 1283 672 1263 621 1283 b 396 1213 475 1283 422 1264 z "},"Ã":{"ha":1089,"x_min":0,"x_max":0,"o":"m 504 754 b 551 786 514 776 529 786 b 597 754 574 786 589 776 l 882 0 l 1064 0 l 747 833 b 553 954 714 921 650 954 b 356 833 454 954 390 921 l 26 0 l 207 0 z m 226 1200 l 226 1076 l 864 1076 l 864 1200 z "},"Ä":{"ha":1089,"x_min":0,"x_max":0,"o":"m 504 754 b 551 786 514 776 529 786 b 597 754 574 786 589 776 l 882 0 l 1064 0 l 747 833 b 553 954 714 921 650 954 b 356 833 454 954 390 921 l 26 0 l 207 0 z m 307 1214 l 307 1043 l 456 1043 l 456 1214 z m 640 1214 l 640 1043 l 789 1043 l 789 1214 z "},"Å":{"ha":1089,"x_min":0,"x_max":0,"o":"m 504 754 b 551 786 514 776 529 786 b 597 754 574 786 589 776 l 882 0 l 1064 0 l 747 833 b 553 954 714 921 650 954 b 356 833 454 954 390 921 l 26 0 l 207 0 z m 497 1283 b 358 1124 411 1283 358 1232 b 497 964 358 1017 411 964 l 593 964 b 732 1124 678 964 732 1017 b 593 1283 732 1232 678 1283 z m 583 1213 b 654 1124 632 1213 654 1186 b 583 1036 654 1063 632 1036 l 506 1036 b 435 1124 456 1036 435 1063 b 506 1213 435 1186 456 1213 z "},"Æ":{"ha":1403,"x_min":0,"x_max":0,"o":"m 490 756 b 550 796 500 779 518 796 b 606 742 585 796 606 775 l 606 318 b 951 0 606 131 703 0 l 1303 0 l 1303 164 l 961 164 b 769 319 814 164 769 229 l 769 396 l 1294 396 l 1294 544 l 769 544 l 769 750 b 768 774 769 758 768 765 l 1301 774 l 1301 938 l 654 938 b 554 954 626 949 593 954 b 325 781 424 954 363 889 l 26 0 l 203 0 z "},"Ç":{"ha":947,"x_min":0,"x_max":0,"o":"m 503 938 b 79 468 231 938 79 783 b 503 0 79 154 229 0 l 865 0 l 865 164 l 503 164 b 243 468 321 164 243 254 b 503 774 243 683 322 774 l 865 774 l 865 938 z m 481 -33 l 481 -197 b 429 -256 481 -237 465 -256 l 413 -256 l 413 -367 l 458 -367 b 628 -182 574 -367 628 -306 l 628 -33 z "},"È":{"ha":963,"x_min":0,"x_max":0,"o":"m 393 938 b 79 682 172 938 79 832 b 211 471 79 579 124 507 b 76 256 125 435 76 363 b 389 0 76 110 167 0 l 864 0 l 864 164 l 389 164 b 247 282 293 164 247 208 b 390 396 247 358 296 396 l 856 396 l 856 544 l 394 544 b 251 656 300 544 251 579 b 393 774 251 728 294 774 l 863 774 l 863 938 z m 367 1283 l 539 985 l 686 985 l 531 1283 z "},"É":{"ha":963,"x_min":0,"x_max":0,"o":"m 393 938 b 79 682 172 938 79 832 b 211 471 79 579 124 507 b 76 256 125 435 76 363 b 389 0 76 110 167 0 l 864 0 l 864 164 l 389 164 b 247 282 293 164 247 208 b 390 396 247 358 296 396 l 856 396 l 856 544 l 394 544 b 251 656 300 544 251 579 b 393 774 251 728 294 774 l 863 774 l 863 938 z m 553 1283 l 397 985 l 543 985 l 717 1283 z "},"Ê":{"ha":963,"x_min":0,"x_max":0,"o":"m 393 938 b 79 682 172 938 79 832 b 211 471 79 579 124 507 b 76 256 125 435 76 363 b 389 0 76 110 167 0 l 864 0 l 864 164 l 389 164 b 247 282 293 164 247 208 b 390 396 247 358 296 396 l 856 396 l 856 544 l 394 544 b 251 656 300 544 251 579 b 393 774 251 728 294 774 l 863 774 l 863 938 z m 260 985 l 417 985 l 508 1158 b 536 1171 514 1168 524 1171 b 564 1158 550 1171 560 1167 l 657 985 l 814 985 l 688 1213 b 538 1283 661 1263 610 1283 b 385 1213 464 1283 411 1264 z "},"Ë":{"ha":963,"x_min":0,"x_max":0,"o":"m 393 938 b 79 682 172 938 79 832 b 211 471 79 579 124 507 b 76 256 125 435 76 363 b 389 0 76 110 167 0 l 864 0 l 864 164 l 389 164 b 247 282 293 164 247 208 b 390 396 247 358 296 396 l 856 396 l 856 544 l 394 544 b 251 656 300 544 251 579 b 393 774 251 728 294 774 l 863 774 l 863 938 z m 299 1214 l 299 1043 l 447 1043 l 447 1214 z m 632 1214 l 632 1043 l 781 1043 l 781 1214 z "},"Ì":{"ha":407,"x_min":0,"x_max":0,"o":"m 131 938 l 131 0 l 294 0 l 294 938 z m 38 1283 l 210 985 l 357 985 l 201 1283 z "},"Í":{"ha":410,"x_min":0,"x_max":0,"o":"m 114 938 l 114 0 l 278 0 l 278 938 z m 208 1283 l 53 985 l 199 985 l 372 1283 z "},"Î":{"ha":497,"x_min":0,"x_max":0,"o":"m 167 938 l 167 0 l 331 0 l 331 938 z m -28 985 l 129 985 l 221 1158 b 249 1171 226 1168 236 1171 b 276 1158 263 1171 272 1167 l 369 985 l 526 985 l 400 1213 b 250 1283 374 1263 322 1283 b 97 1213 176 1283 124 1264 z "},"Ï":{"ha":442,"x_min":0,"x_max":0,"o":"m 144 938 l 144 0 l 308 0 l 308 938 z m -21 1214 l -21 1043 l 128 1043 l 128 1214 z m 313 1214 l 313 1043 l 461 1043 l 461 1214 z "},"Ð":{"ha":1024,"x_min":0,"x_max":0,"o":"m 192 938 b 114 861 139 938 114 913 l 114 544 l 15 544 l 15 396 l 114 396 l 114 76 b 192 0 114 25 139 0 l 522 0 b 944 468 797 0 944 153 b 522 938 944 785 796 938 z m 278 757 b 296 774 278 769 283 774 l 522 774 b 781 469 704 774 781 683 b 522 164 781 254 704 164 l 296 164 b 278 181 283 164 278 168 l 278 396 l 528 396 l 528 544 l 278 544 z "},"Ñ":{"ha":1221,"x_min":0,"x_max":0,"o":"m 276 742 b 333 796 276 775 296 796 b 392 756 363 796 379 783 l 665 157 b 894 -17 704 50 764 -17 b 1110 189 1039 -17 1110 65 l 1110 938 l 944 938 l 944 196 b 889 143 944 164 924 143 b 829 182 858 143 840 160 l 556 781 b 328 954 517 888 458 954 b 113 750 182 954 113 872 l 113 0 l 276 0 z m 292 1200 l 292 1076 l 929 1076 l 929 1200 z "},"Ò":{"ha":1133,"x_min":0,"x_max":0,"o":"m 503 938 b 79 467 231 938 79 782 b 503 0 79 153 229 0 l 631 0 b 1054 467 904 0 1054 153 b 631 938 1054 782 903 938 z m 631 774 b 889 468 811 774 889 682 b 631 164 889 253 811 164 l 503 164 b 243 467 321 164 243 253 b 503 774 243 682 322 774 z m 389 1283 l 561 985 l 708 985 l 553 1283 z "},"Ó":{"ha":1133,"x_min":0,"x_max":0,"o":"m 503 938 b 79 467 231 938 79 782 b 503 0 79 153 229 0 l 631 0 b 1054 467 904 0 1054 153 b 631 938 1054 782 903 938 z m 631 774 b 889 468 811 774 889 682 b 631 164 889 253 811 164 l 503 164 b 243 467 321 164 243 253 b 503 774 243 682 322 774 z m 579 1283 l 424 985 l 569 985 l 743 1283 z "},"Ô":{"ha":1133,"x_min":0,"x_max":0,"o":"m 503 938 b 79 467 231 938 79 782 b 503 0 79 153 229 0 l 631 0 b 1054 467 904 0 1054 153 b 631 938 1054 782 903 938 z m 631 774 b 889 468 811 774 889 682 b 631 164 889 253 811 164 l 503 164 b 243 467 321 164 243 253 b 503 774 243 682 322 774 z m 289 985 l 446 985 l 538 1158 b 565 1171 543 1168 553 1171 b 593 1158 579 1171 589 1167 l 686 985 l 843 985 l 717 1213 b 567 1283 690 1263 639 1283 b 414 1213 493 1283 440 1264 z "},"Õ":{"ha":1133,"x_min":0,"x_max":0,"o":"m 503 938 b 79 467 231 938 79 782 b 503 0 79 153 229 0 l 631 0 b 1054 467 904 0 1054 153 b 631 938 1054 782 903 938 z m 631 774 b 889 468 811 774 889 682 b 631 164 889 253 811 164 l 503 164 b 243 467 321 164 243 253 b 503 774 243 682 322 774 z m 247 1200 l 247 1076 l 885 1076 l 885 1200 z "},"Ö":{"ha":1133,"x_min":0,"x_max":0,"o":"m 503 938 b 79 467 231 938 79 782 b 503 0 79 153 229 0 l 631 0 b 1054 467 904 0 1054 153 b 631 938 1054 782 903 938 z m 631 774 b 889 468 811 774 889 682 b 631 164 889 253 811 164 l 503 164 b 243 467 321 164 243 253 b 503 774 243 682 322 774 z m 325 1214 l 325 1043 l 474 1043 l 474 1214 z m 658 1214 l 658 1043 l 807 1043 l 807 1214 z "},"×":{"ha":860,"x_min":0,"x_max":0,"o":"m 178 790 l 106 719 l 357 467 l 106 217 l 178 146 l 429 396 l 681 144 l 751 217 l 500 467 l 753 719 l 682 790 l 429 540 z "},"Ø":{"ha":1133,"x_min":0,"x_max":0,"o":"m 503 938 b 79 467 231 938 79 782 b 263 56 79 263 142 126 l 172 -96 l 292 -96 l 358 17 b 503 0 401 6 450 0 l 631 0 b 1054 467 904 0 1054 153 b 869 881 1054 672 990 810 l 961 1033 l 843 1033 l 775 919 b 631 938 732 931 683 938 z m 631 774 b 686 769 650 774 669 772 l 347 199 b 243 467 275 242 243 328 b 503 774 243 682 322 774 z m 889 468 b 631 164 889 253 811 164 l 503 164 b 447 167 482 164 464 165 l 785 738 b 889 468 856 693 889 606 z "},"Ù":{"ha":1017,"x_min":0,"x_max":0,"o":"m 107 938 l 107 299 b 410 0 107 101 210 0 l 607 0 b 911 299 807 0 911 101 l 911 938 l 750 938 l 750 311 b 596 164 750 218 701 164 l 429 164 b 274 311 321 164 274 218 l 274 938 z m 332 1283 l 504 985 l 651 985 l 496 1283 z "},"Ú":{"ha":1017,"x_min":0,"x_max":0,"o":"m 107 938 l 107 299 b 410 0 107 101 210 0 l 607 0 b 911 299 807 0 911 101 l 911 938 l 750 938 l 750 311 b 596 164 750 218 701 164 l 429 164 b 274 311 321 164 274 218 l 274 938 z m 521 1283 l 365 985 l 511 985 l 685 1283 z "},"Û":{"ha":1017,"x_min":0,"x_max":0,"o":"m 107 938 l 107 299 b 410 0 107 101 210 0 l 607 0 b 911 299 807 0 911 101 l 911 938 l 750 938 l 750 311 b 596 164 750 218 701 164 l 429 164 b 274 311 321 164 274 218 l 274 938 z m 231 985 l 388 985 l 479 1158 b 507 1171 485 1168 494 1171 b 535 1158 521 1171 531 1167 l 628 985 l 785 985 l 658 1213 b 508 1283 632 1263 581 1283 b 356 1213 435 1283 382 1264 z "},"Ü":{"ha":1017,"x_min":0,"x_max":0,"o":"m 107 938 l 107 299 b 410 0 107 101 210 0 l 607 0 b 911 299 807 0 911 101 l 911 938 l 750 938 l 750 311 b 596 164 750 218 701 164 l 429 164 b 274 311 321 164 274 218 l 274 938 z m 268 1214 l 268 1043 l 417 1043 l 417 1214 z m 601 1214 l 601 1043 l 750 1043 l 750 1214 z "},"Ý":{"ha":957,"x_min":0,"x_max":0,"o":"m 18 938 l 396 404 l 396 0 l 561 0 l 561 404 l 939 938 l 744 938 l 479 536 l 217 938 z m 490 1283 l 335 985 l 481 985 l 654 1283 z "},"Þ":{"ha":976,"x_min":0,"x_max":0,"o":"m 113 938 l 113 803 b 293 622 113 676 164 622 l 586 622 b 728 474 688 622 728 551 b 586 325 728 396 688 325 l 293 325 b 113 132 164 325 113 269 l 113 0 l 276 0 l 276 101 b 333 168 276 147 293 168 l 581 168 b 893 474 808 168 893 325 b 581 781 893 622 808 781 l 333 781 b 276 835 293 781 276 799 l 276 938 z "},"ß":{"ha":1186,"x_min":0,"x_max":0,"o":"m 342 1051 b 106 775 178 1051 106 985 l 106 0 l 253 0 l 253 783 b 374 917 253 883 289 917 l 444 917 b 553 807 519 917 553 883 l 553 675 b 719 489 553 549 600 489 l 800 489 b 967 315 921 489 967 438 b 800 143 967 193 919 143 l 494 143 l 494 0 l 818 0 b 1115 315 1017 0 1115 100 b 818 631 1115 528 1019 631 l 763 631 b 701 699 722 631 701 651 l 701 822 b 488 1051 701 979 642 1051 z "},"à":{"ha":933,"x_min":0,"x_max":0,"o":"m 135 733 l 135 592 l 574 592 b 686 490 654 592 686 547 l 686 435 l 338 435 b 90 224 157 435 90 357 b 336 0 90 85 163 0 l 679 0 b 831 147 803 0 831 42 l 831 492 b 575 733 831 631 758 733 z m 646 143 l 338 143 b 235 232 264 143 235 178 b 340 318 235 286 263 318 l 686 318 l 686 181 b 646 143 686 154 675 143 z m 297 1079 l 469 781 l 617 781 l 461 1079 z "},"á":{"ha":933,"x_min":0,"x_max":0,"o":"m 135 733 l 135 592 l 574 592 b 686 490 654 592 686 547 l 686 435 l 338 435 b 90 224 157 435 90 357 b 336 0 90 85 163 0 l 679 0 b 831 147 803 0 831 42 l 831 492 b 575 733 831 631 758 733 z m 646 143 l 338 143 b 235 232 264 143 235 178 b 340 318 235 286 263 318 l 686 318 l 686 181 b 646 143 686 154 675 143 z m 478 1079 l 322 781 l 468 781 l 642 1079 z "},"â":{"ha":933,"x_min":0,"x_max":0,"o":"m 135 733 l 135 592 l 574 592 b 686 490 654 592 686 547 l 686 435 l 338 435 b 90 224 157 435 90 357 b 336 0 90 85 163 0 l 679 0 b 831 147 803 0 831 42 l 831 492 b 575 733 831 631 758 733 z m 646 143 l 338 143 b 235 232 264 143 235 178 b 340 318 235 286 263 318 l 686 318 l 686 181 b 646 143 686 154 675 143 z m 194 781 l 351 781 l 443 954 b 471 967 449 964 458 967 b 499 954 485 967 494 963 l 592 781 l 749 781 l 622 1008 b 472 1079 596 1058 544 1079 b 319 1008 399 1079 346 1060 z "},"ã":{"ha":933,"x_min":0,"x_max":0,"o":"m 135 733 l 135 592 l 574 592 b 686 490 654 592 686 547 l 686 435 l 338 435 b 90 224 157 435 90 357 b 336 0 90 85 163 0 l 679 0 b 831 147 803 0 831 42 l 831 492 b 575 733 831 631 758 733 z m 646 143 l 338 143 b 235 232 264 143 235 178 b 340 318 235 286 263 318 l 686 318 l 686 181 b 646 143 686 154 675 143 z m 147 996 l 147 872 l 785 872 l 785 996 z "},"ä":{"ha":933,"x_min":0,"x_max":0,"o":"m 135 733 l 135 592 l 574 592 b 686 490 654 592 686 547 l 686 435 l 338 435 b 90 224 157 435 90 357 b 336 0 90 85 163 0 l 679 0 b 831 147 803 0 831 42 l 831 492 b 575 733 831 631 758 733 z m 646 143 l 338 143 b 235 232 264 143 235 178 b 340 318 235 286 263 318 l 686 318 l 686 181 b 646 143 686 154 675 143 z m 225 1010 l 225 839 l 374 839 l 374 1010 z m 558 1010 l 558 839 l 707 839 l 707 1010 z "},"å":{"ha":933,"x_min":0,"x_max":0,"o":"m 135 733 l 135 592 l 574 592 b 686 490 654 592 686 547 l 686 435 l 338 435 b 90 224 157 435 90 357 b 336 0 90 85 163 0 l 679 0 b 831 147 803 0 831 42 l 831 492 b 575 733 831 631 758 733 z m 646 143 l 338 143 b 235 232 264 143 235 178 b 340 318 235 286 263 318 l 686 318 l 686 181 b 646 143 686 154 675 143 z m 418 1119 b 279 960 332 1119 279 1068 b 418 800 279 853 332 800 l 514 800 b 653 960 599 800 653 853 b 514 1119 653 1068 599 1119 z m 504 1049 b 575 960 553 1049 575 1022 b 504 872 575 899 553 872 l 426 872 b 356 960 376 872 356 899 b 426 1049 356 1022 376 1049 z "},"æ":{"ha":1504,"x_min":0,"x_max":0,"o":"m 946 733 b 760 675 861 733 801 711 b 575 733 719 711 658 733 l 135 733 l 135 592 l 574 592 b 686 490 654 592 686 547 l 686 435 l 338 435 b 90 224 157 435 90 357 b 336 0 90 85 163 0 l 679 0 b 799 31 738 0 775 10 b 946 0 836 11 885 0 l 1394 0 l 1394 143 l 946 143 b 833 244 865 143 833 186 l 833 297 l 1182 297 b 1431 508 1363 297 1431 374 b 1183 733 1431 650 1357 733 z m 833 490 b 946 592 833 547 865 592 l 1182 592 b 1286 500 1254 592 1286 556 b 1178 413 1286 446 1257 413 l 833 413 z m 646 143 l 338 143 b 235 232 264 143 235 178 b 340 318 235 286 263 318 l 686 318 l 686 181 b 646 143 686 154 675 143 z "},"ç":{"ha":836,"x_min":0,"x_max":0,"o":"m 389 733 b 71 367 193 733 71 614 b 389 0 71 119 193 0 l 767 0 l 767 143 l 403 143 b 219 367 275 143 219 208 b 403 592 219 525 275 592 l 767 592 l 767 733 z m 417 -33 l 417 -197 b 365 -256 417 -237 401 -256 l 349 -256 l 349 -367 l 394 -367 b 564 -182 510 -367 564 -306 l 564 -33 z "},"è":{"ha":906,"x_min":0,"x_max":0,"o":"m 346 733 b 90 492 163 733 90 631 l 90 242 b 346 0 90 103 163 0 l 794 0 l 794 143 l 346 143 b 233 244 265 143 233 186 l 233 297 l 582 297 b 831 508 763 297 831 374 b 583 733 831 650 757 733 z m 233 490 b 346 592 233 547 265 592 l 582 592 b 686 500 654 592 686 556 b 578 413 686 446 657 413 l 233 413 z m 288 1079 l 460 781 l 607 781 l 451 1079 z "},"é":{"ha":906,"x_min":0,"x_max":0,"o":"m 346 733 b 90 492 163 733 90 631 l 90 242 b 346 0 90 103 163 0 l 794 0 l 794 143 l 346 143 b 233 244 265 143 233 186 l 233 297 l 582 297 b 831 508 763 297 831 374 b 583 733 831 650 757 733 z m 233 490 b 346 592 233 547 265 592 l 582 592 b 686 500 654 592 686 556 b 578 413 686 446 657 413 l 233 413 z m 474 1079 l 318 781 l 464 781 l 638 1079 z "},"ê":{"ha":906,"x_min":0,"x_max":0,"o":"m 346 733 b 90 492 163 733 90 631 l 90 242 b 346 0 90 103 163 0 l 794 0 l 794 143 l 346 143 b 233 244 265 143 233 186 l 233 297 l 582 297 b 831 508 763 297 831 374 b 583 733 831 650 757 733 z m 233 490 b 346 592 233 547 265 592 l 582 592 b 686 500 654 592 686 556 b 578 413 686 446 657 413 l 233 413 z m 176 781 l 333 781 l 425 954 b 453 967 431 964 440 967 b 481 954 467 967 476 963 l 574 781 l 731 781 l 604 1008 b 454 1079 578 1058 526 1079 b 301 1008 381 1079 328 1060 z "},"ë":{"ha":906,"x_min":0,"x_max":0,"o":"m 346 733 b 90 492 163 733 90 631 l 90 242 b 346 0 90 103 163 0 l 794 0 l 794 143 l 346 143 b 233 244 265 143 233 186 l 233 297 l 582 297 b 831 508 763 297 831 374 b 583 733 831 650 757 733 z m 233 490 b 346 592 233 547 265 592 l 582 592 b 686 500 654 592 686 556 b 578 413 686 446 657 413 l 233 413 z m 217 1010 l 217 839 l 365 839 l 365 1010 z m 550 1010 l 550 839 l 699 839 l 699 1010 z "},"ì":{"ha":386,"x_min":0,"x_max":0,"o":"m 31 1079 l 203 781 l 350 781 l 194 1079 z m 133 733 l 133 0 l 281 0 l 281 733 z "},"í":{"ha":385,"x_min":0,"x_max":0,"o":"m 193 1079 l 38 781 l 183 781 l 357 1079 z m 106 733 l 106 0 l 253 0 l 253 733 z "},"î":{"ha":506,"x_min":0,"x_max":0,"o":"m 179 733 l 179 0 l 326 0 l 326 733 z m -24 781 l 133 781 l 225 954 b 253 967 231 964 240 967 b 281 954 267 967 276 963 l 374 781 l 531 781 l 404 1008 b 254 1079 378 1058 326 1079 b 101 1008 181 1079 128 1060 z "},"ï":{"ha":481,"x_min":0,"x_max":0,"o":"m -1 1010 l -1 839 l 147 839 l 147 1010 z m 332 1010 l 332 839 l 481 839 l 481 1010 z m 165 733 l 165 0 l 313 0 l 313 733 z "},"ð":{"ha":965,"x_min":0,"x_max":0,"o":"m 256 1051 l 256 910 l 357 910 l 303 796 l 385 796 l 439 910 l 567 910 b 713 726 676 910 713 833 l 713 681 l 389 681 b 71 339 193 681 71 561 b 389 1 71 117 193 1 l 592 1 b 861 315 767 1 861 103 l 861 726 b 583 1051 861 935 789 1051 l 508 1051 l 549 1135 l 467 1135 l 426 1051 z m 549 143 l 403 143 b 219 344 275 143 219 204 b 403 549 219 482 275 549 l 713 549 l 713 314 b 549 143 713 193 667 143 z "},"ñ":{"ha":982,"x_min":0,"x_max":0,"o":"m 208 733 b 106 619 135 733 106 706 l 106 0 l 253 0 l 253 571 b 271 592 253 585 258 592 l 511 592 b 732 413 665 592 732 528 l 732 0 l 881 0 l 881 413 b 511 733 881 615 760 733 z m 172 996 l 172 872 l 810 872 l 810 996 z "},"ò":{"ha":932,"x_min":0,"x_max":0,"o":"m 389 733 b 71 367 193 733 71 614 b 389 0 71 119 193 0 l 543 0 b 861 367 738 0 861 119 b 543 733 861 614 738 733 z m 529 592 b 713 367 656 592 713 525 b 529 143 713 208 656 143 l 403 143 b 219 367 275 143 219 208 b 403 592 219 525 275 592 z m 289 1079 l 461 781 l 608 781 l 453 1079 z "},"ó":{"ha":932,"x_min":0,"x_max":0,"o":"m 389 733 b 71 367 193 733 71 614 b 389 0 71 119 193 0 l 543 0 b 861 367 738 0 861 119 b 543 733 861 614 738 733 z m 529 592 b 713 367 656 592 713 525 b 529 143 713 208 656 143 l 403 143 b 219 367 275 143 219 208 b 403 592 219 525 275 592 z m 478 1079 l 322 781 l 468 781 l 642 1079 z "},"ô":{"ha":932,"x_min":0,"x_max":0,"o":"m 389 733 b 71 367 193 733 71 614 b 389 0 71 119 193 0 l 543 0 b 861 367 738 0 861 119 b 543 733 861 614 738 733 z m 529 592 b 713 367 656 592 713 525 b 529 143 713 208 656 143 l 403 143 b 219 367 275 143 219 208 b 403 592 219 525 275 592 z m 189 781 l 346 781 l 438 954 b 465 967 443 964 453 967 b 493 954 479 967 489 963 l 586 781 l 743 781 l 617 1008 b 467 1079 590 1058 539 1079 b 314 1008 393 1079 340 1060 z "},"õ":{"ha":932,"x_min":0,"x_max":0,"o":"m 389 733 b 71 367 193 733 71 614 b 389 0 71 119 193 0 l 543 0 b 861 367 738 0 861 119 b 543 733 861 614 738 733 z m 529 592 b 713 367 656 592 713 525 b 529 143 713 208 656 143 l 403 143 b 219 367 275 143 219 208 b 403 592 219 525 275 592 z m 147 996 l 147 872 l 785 872 l 785 996 z "},"ö":{"ha":932,"x_min":0,"x_max":0,"o":"m 389 733 b 71 367 193 733 71 614 b 389 0 71 119 193 0 l 543 0 b 861 367 738 0 861 119 b 543 733 861 614 738 733 z m 529 592 b 713 367 656 592 713 525 b 529 143 713 208 656 143 l 403 143 b 219 367 275 143 219 208 b 403 592 219 525 275 592 z m 225 1010 l 225 839 l 374 839 l 374 1010 z m 558 1010 l 558 839 l 707 839 l 707 1010 z "},"÷":{"ha":860,"x_min":0,"x_max":0,"o":"m 56 518 l 56 417 l 803 417 l 803 518 z m 350 222 l 350 33 l 508 33 l 508 222 z m 350 906 l 350 717 l 508 717 l 508 906 z "},"ø":{"ha":932,"x_min":0,"x_max":0,"o":"m 389 733 b 71 367 193 733 71 614 b 196 56 71 215 115 113 l 97 -96 l 217 -96 l 288 13 b 389 0 318 4 353 0 l 543 0 b 861 367 738 0 861 119 b 725 685 861 522 811 628 l 835 853 l 715 853 l 631 724 b 543 733 603 729 574 733 z m 713 367 b 529 143 713 208 656 143 l 403 143 b 374 144 392 143 382 143 l 644 561 b 713 367 690 526 713 464 z m 529 592 b 544 590 535 592 540 590 l 278 181 b 219 367 238 215 219 275 b 403 592 219 525 275 592 z "},"ù":{"ha":975,"x_min":0,"x_max":0,"o":"m 101 733 l 101 289 b 419 0 101 119 210 0 l 556 0 b 874 289 765 0 874 119 l 874 733 l 729 733 l 729 294 b 550 143 729 208 667 143 l 431 143 b 250 294 314 143 250 208 l 250 733 z m 311 1079 l 483 781 l 631 781 l 475 1079 z "},"ú":{"ha":975,"x_min":0,"x_max":0,"o":"m 101 733 l 101 289 b 419 0 101 119 210 0 l 556 0 b 874 289 765 0 874 119 l 874 733 l 729 733 l 729 294 b 550 143 729 208 667 143 l 431 143 b 250 294 314 143 250 208 l 250 733 z m 500 1079 l 344 781 l 490 781 l 664 1079 z "},"û":{"ha":975,"x_min":0,"x_max":0,"o":"m 101 733 l 101 289 b 419 0 101 119 210 0 l 556 0 b 874 289 765 0 874 119 l 874 733 l 729 733 l 729 294 b 550 143 729 208 667 143 l 431 143 b 250 294 314 143 250 208 l 250 733 z m 211 781 l 368 781 l 460 954 b 488 967 465 964 475 967 b 515 954 501 967 511 963 l 608 781 l 765 781 l 639 1008 b 489 1079 613 1058 561 1079 b 336 1008 415 1079 363 1060 z "},"ü":{"ha":975,"x_min":0,"x_max":0,"o":"m 101 733 l 101 289 b 419 0 101 119 210 0 l 556 0 b 874 289 765 0 874 119 l 874 733 l 729 733 l 729 294 b 550 143 729 208 667 143 l 431 143 b 250 294 314 143 250 208 l 250 733 z m 246 1010 l 246 839 l 394 839 l 394 1010 z m 579 1010 l 579 839 l 728 839 l 728 1010 z "},"ý":{"ha":899,"x_min":0,"x_max":0,"o":"m 715 733 l 467 157 l 447 157 b 403 188 419 157 413 161 l 182 733 l 26 733 l 272 117 b 410 26 297 53 326 26 l 272 -294 l 431 -294 l 872 733 z m 458 1079 l 303 781 l 449 781 l 622 1079 z "},"þ":{"ha":965,"x_min":0,"x_max":0,"o":"m 107 1051 l 107 710 b 238 592 107 625 151 592 l 563 592 b 746 365 690 592 746 525 b 563 143 746 208 690 143 l 238 143 b 107 25 151 143 107 110 l 107 -294 l 254 -294 l 254 -40 b 299 0 254 -11 268 0 l 578 0 b 894 365 772 0 894 119 b 578 733 894 614 772 733 l 299 733 b 254 775 268 733 254 744 l 254 1051 z "},"ÿ":{"ha":899,"x_min":0,"x_max":0,"o":"m 715 733 l 467 157 l 447 157 b 403 188 419 157 413 161 l 182 733 l 26 733 l 272 117 b 410 26 297 53 326 26 l 272 -294 l 431 -294 l 872 733 z m 203 1010 l 203 839 l 351 839 l 351 1010 z m 536 1010 l 536 839 l 685 839 l 685 1010 z "},"Ā":{"ha":1089,"x_min":0,"x_max":0,"o":"m 504 754 b 551 786 514 776 529 786 b 597 754 574 786 589 776 l 882 0 l 1064 0 l 747 833 b 553 954 714 921 650 954 b 356 833 454 954 390 921 l 26 0 l 207 0 z m 226 1200 l 226 1076 l 864 1076 l 864 1200 z "},"ā":{"ha":933,"x_min":0,"x_max":0,"o":"m 135 733 l 135 592 l 574 592 b 686 490 654 592 686 547 l 686 435 l 338 435 b 90 224 157 435 90 357 b 336 0 90 85 163 0 l 679 0 b 831 147 803 0 831 42 l 831 492 b 575 733 831 631 758 733 z m 646 143 l 338 143 b 235 232 264 143 235 178 b 340 318 235 286 263 318 l 686 318 l 686 181 b 646 143 686 154 675 143 z m 147 996 l 147 872 l 785 872 l 785 996 z "},"Ă":{"ha":1089,"x_min":0,"x_max":0,"o":"m 504 754 b 551 786 514 776 529 786 b 597 754 574 786 589 776 l 882 0 l 1064 0 l 747 833 b 553 954 714 921 650 954 b 356 833 454 954 390 921 l 26 0 l 207 0 z m 264 1283 l 264 1204 b 547 985 264 1043 325 985 b 829 1204 767 985 829 1043 l 829 1283 l 704 1283 l 704 1206 b 547 1086 704 1118 674 1086 b 388 1206 419 1086 388 1118 l 388 1283 z "},"ă":{"ha":933,"x_min":0,"x_max":0,"o":"m 135 733 l 135 592 l 574 592 b 686 490 654 592 686 547 l 686 435 l 338 435 b 90 224 157 435 90 357 b 336 0 90 85 163 0 l 679 0 b 831 147 803 0 831 42 l 831 492 b 575 733 831 631 758 733 z m 646 143 l 338 143 b 235 232 264 143 235 178 b 340 318 235 286 263 318 l 686 318 l 686 181 b 646 143 686 154 675 143 z m 193 1079 l 193 1000 b 476 781 193 839 254 781 b 758 1000 696 781 758 839 l 758 1079 l 633 1079 l 633 1001 b 476 882 633 914 603 882 b 317 1001 349 882 317 914 l 317 1079 z "},"Ą":{"ha":1089,"x_min":0,"x_max":0,"o":"m 853 -47 b 731 -204 776 -78 731 -122 b 914 -367 731 -297 792 -367 l 1090 -367 l 1090 -228 l 960 -228 b 864 -144 899 -228 864 -194 b 931 -57 864 -100 890 -75 l 1064 0 l 747 833 b 553 954 714 921 650 954 b 356 833 454 954 390 921 l 26 0 l 207 0 l 504 754 b 551 786 514 776 529 786 b 597 754 574 786 589 776 l 894 -31 z "},"ą":{"ha":933,"x_min":0,"x_max":0,"o":"m 456 -47 b 333 -204 379 -78 333 -122 b 517 -367 333 -297 394 -367 l 693 -367 l 693 -228 l 563 -228 b 467 -144 501 -228 467 -194 b 533 -57 467 -100 493 -75 l 667 0 l 679 0 b 831 147 803 0 831 42 l 831 492 b 575 733 831 631 758 733 l 135 733 l 135 592 l 574 592 b 686 490 654 592 686 547 l 686 435 l 338 435 b 90 224 157 435 90 357 b 336 0 90 85 163 0 l 581 0 z m 646 143 l 338 143 b 235 232 264 143 235 178 b 340 318 235 286 263 318 l 686 318 l 686 181 b 646 143 686 154 675 143 z "},"Ć":{"ha":947,"x_min":0,"x_max":0,"o":"m 503 938 b 79 468 231 938 79 783 b 503 0 79 154 229 0 l 865 0 l 865 164 l 503 164 b 243 468 321 164 243 254 b 503 774 243 683 322 774 l 865 774 l 865 938 z m 569 1283 l 414 985 l 560 985 l 733 1283 z "},"ć":{"ha":836,"x_min":0,"x_max":0,"o":"m 389 733 b 71 367 193 733 71 614 b 389 0 71 119 193 0 l 767 0 l 767 143 l 403 143 b 219 367 275 143 219 208 b 403 592 219 525 275 592 l 767 592 l 767 733 z m 489 1079 l 333 781 l 479 781 l 653 1079 z "},"Ċ":{"ha":947,"x_min":0,"x_max":0,"o":"m 503 938 b 79 468 231 938 79 783 b 503 0 79 154 229 0 l 865 0 l 865 164 l 503 164 b 243 468 321 164 243 254 b 503 774 243 683 322 774 l 865 774 l 865 938 z m 481 1214 l 481 1043 l 629 1043 l 629 1214 z "},"ċ":{"ha":836,"x_min":0,"x_max":0,"o":"m 389 733 b 71 367 193 733 71 614 b 389 0 71 119 193 0 l 767 0 l 767 143 l 403 143 b 219 367 275 143 219 208 b 403 592 219 525 275 592 l 767 592 l 767 733 z m 403 1010 l 403 839 l 551 839 l 551 1010 z "},"Č":{"ha":947,"x_min":0,"x_max":0,"o":"m 503 938 b 79 468 231 938 79 783 b 503 0 79 154 229 0 l 865 0 l 865 164 l 503 164 b 243 468 321 164 243 254 b 503 774 243 683 322 774 l 865 774 l 865 938 z m 274 1283 l 399 1057 b 550 985 425 1007 478 985 b 701 1057 622 985 675 1006 l 828 1283 l 671 1283 l 578 1111 b 551 1099 574 1101 563 1099 b 522 1111 538 1099 528 1103 l 431 1283 z "},"č":{"ha":836,"x_min":0,"x_max":0,"o":"m 389 733 b 71 367 193 733 71 614 b 389 0 71 119 193 0 l 767 0 l 767 143 l 403 143 b 219 367 275 143 219 208 b 403 592 219 525 275 592 l 767 592 l 767 733 z m 194 1079 l 319 853 b 471 781 346 803 399 781 b 622 853 543 781 596 801 l 749 1079 l 592 1079 l 499 907 b 472 894 494 897 483 894 b 443 907 458 894 449 899 l 351 1079 z "},"Ď":{"ha":1024,"x_min":0,"x_max":0,"o":"m 192 938 b 114 861 139 938 114 913 l 114 76 b 192 0 114 25 139 0 l 522 0 b 944 468 797 0 944 153 b 522 938 944 785 796 938 z m 278 757 b 296 774 278 769 283 774 l 522 774 b 781 469 704 774 781 683 b 522 164 781 254 704 164 l 296 164 b 278 181 283 164 278 168 z m 183 1283 l 308 1057 b 460 985 335 1007 388 985 b 611 1057 532 985 585 1006 l 738 1283 l 581 1283 l 488 1111 b 461 1099 483 1101 472 1099 b 432 1111 447 1099 438 1103 l 340 1283 z "},"ď":{"ha":1103,"x_min":0,"x_max":0,"o":"m 713 1051 l 713 733 l 389 733 b 71 367 193 733 71 614 b 389 0 71 119 193 0 l 592 0 b 861 314 767 0 861 103 l 861 1051 z m 549 143 l 403 143 b 219 367 276 143 219 208 b 403 592 219 525 276 592 l 713 592 l 713 321 b 549 143 713 196 667 143 z m 992 1050 l 992 886 b 940 828 992 846 976 828 l 924 828 l 924 717 l 969 717 b 1139 901 1085 717 1139 778 l 1139 1050 z "},"Đ":{"ha":1024,"x_min":0,"x_max":0,"o":"m 192 938 b 114 861 139 938 114 913 l 114 544 l 15 544 l 15 396 l 114 396 l 114 76 b 192 0 114 25 139 0 l 522 0 b 944 468 797 0 944 153 b 522 938 944 785 796 938 z m 278 757 b 296 774 278 769 283 774 l 522 774 b 781 469 704 774 781 683 b 522 164 781 254 704 164 l 296 164 b 278 181 283 164 278 168 l 278 396 l 528 396 l 528 544 l 278 544 z "},"đ":{"ha":965,"x_min":0,"x_max":0,"o":"m 224 996 l 224 872 l 713 872 l 713 733 l 389 733 b 71 367 193 733 71 614 b 389 0 71 119 193 0 l 592 0 b 861 314 767 0 861 103 l 861 1051 l 713 1051 l 713 996 z m 549 143 l 403 143 b 219 367 276 143 219 208 b 403 592 219 525 276 592 l 713 592 l 713 321 b 549 143 713 196 667 143 z "},"Ē":{"ha":963,"x_min":0,"x_max":0,"o":"m 393 938 b 79 682 172 938 79 832 b 211 471 79 579 124 507 b 76 256 125 435 76 363 b 389 0 76 110 167 0 l 864 0 l 864 164 l 389 164 b 247 282 293 164 247 208 b 390 396 247 358 296 396 l 856 396 l 856 544 l 394 544 b 251 656 300 544 251 579 b 393 774 251 728 294 774 l 863 774 l 863 938 z m 217 1200 l 217 1076 l 854 1076 l 854 1200 z "},"ē":{"ha":906,"x_min":0,"x_max":0,"o":"m 346 733 b 90 492 163 733 90 631 l 90 242 b 346 0 90 103 163 0 l 794 0 l 794 143 l 346 143 b 233 244 265 143 233 186 l 233 297 l 582 297 b 831 508 763 297 831 374 b 583 733 831 650 757 733 z m 233 490 b 346 592 233 547 265 592 l 582 592 b 686 500 654 592 686 556 b 578 413 686 446 657 413 l 233 413 z m 133 996 l 133 872 l 771 872 l 771 996 z "},"Ė":{"ha":963,"x_min":0,"x_max":0,"o":"m 393 938 b 79 682 172 938 79 832 b 211 471 79 579 124 507 b 76 256 125 435 76 363 b 389 0 76 110 167 0 l 864 0 l 864 164 l 389 164 b 247 282 293 164 247 208 b 390 396 247 358 296 396 l 856 396 l 856 544 l 394 544 b 251 656 300 544 251 579 b 393 774 251 728 294 774 l 863 774 l 863 938 z m 454 1214 l 454 1043 l 603 1043 l 603 1214 z "},"ė":{"ha":906,"x_min":0,"x_max":0,"o":"m 346 733 b 90 492 163 733 90 631 l 90 242 b 346 0 90 103 163 0 l 794 0 l 794 143 l 346 143 b 233 244 265 143 233 186 l 233 297 l 582 297 b 831 508 763 297 831 374 b 583 733 831 650 757 733 z m 233 490 b 346 592 233 547 265 592 l 582 592 b 686 500 654 592 686 556 b 578 413 686 446 657 413 l 233 413 z m 388 1010 l 388 839 l 536 839 l 536 1010 z "},"Ę":{"ha":963,"x_min":0,"x_max":0,"o":"m 653 -47 b 531 -204 576 -78 531 -122 b 714 -367 531 -297 592 -367 l 890 -367 l 890 -228 l 760 -228 b 664 -144 699 -228 664 -194 b 731 -57 664 -100 690 -75 l 864 0 l 864 164 l 389 164 b 247 282 293 164 247 208 b 390 396 247 358 296 396 l 856 396 l 856 544 l 394 544 b 251 656 300 544 251 579 b 393 774 251 728 294 774 l 863 774 l 863 938 l 393 938 b 79 682 172 938 79 832 b 211 471 79 579 124 507 b 76 256 125 435 76 363 b 389 0 76 110 167 0 l 778 0 z "},"ę":{"ha":906,"x_min":0,"x_max":0,"o":"m 583 -47 b 461 -204 507 -78 461 -122 b 644 -367 461 -297 522 -367 l 821 -367 l 821 -228 l 690 -228 b 594 -144 629 -228 594 -194 b 661 -57 594 -100 621 -75 l 794 0 l 794 143 l 346 143 b 233 244 265 143 233 186 l 233 297 l 582 297 b 831 508 763 297 831 374 b 583 733 831 650 757 733 l 346 733 b 90 492 163 733 90 631 l 90 242 b 346 0 90 103 163 0 l 708 0 z m 233 490 b 346 592 233 547 265 592 l 582 592 b 686 500 654 592 686 556 b 578 413 686 446 657 413 l 233 413 z "},"Ě":{"ha":963,"x_min":0,"x_max":0,"o":"m 393 938 b 79 682 172 938 79 832 b 211 471 79 579 124 507 b 76 256 125 435 76 363 b 389 0 76 110 167 0 l 864 0 l 864 164 l 389 164 b 247 282 293 164 247 208 b 390 396 247 358 296 396 l 856 396 l 856 544 l 394 544 b 251 656 300 544 251 579 b 393 774 251 728 294 774 l 863 774 l 863 938 z m 258 1283 l 383 1057 b 535 985 410 1007 463 985 b 686 1057 607 985 660 1006 l 813 1283 l 656 1283 l 563 1111 b 536 1099 558 1101 547 1099 b 507 1111 522 1099 513 1103 l 415 1283 z "},"ě":{"ha":906,"x_min":0,"x_max":0,"o":"m 346 733 b 90 492 163 733 90 631 l 90 242 b 346 0 90 103 163 0 l 794 0 l 794 143 l 346 143 b 233 244 265 143 233 186 l 233 297 l 582 297 b 831 508 763 297 831 374 b 583 733 831 650 757 733 z m 233 490 b 346 592 233 547 265 592 l 582 592 b 686 500 654 592 686 556 b 578 413 686 446 657 413 l 233 413 z m 175 1079 l 300 853 b 451 781 326 803 379 781 b 603 853 524 781 576 801 l 729 1079 l 572 1079 l 479 907 b 453 894 475 897 464 894 b 424 907 439 894 429 899 l 332 1079 z "},"Ğ":{"ha":1013,"x_min":0,"x_max":0,"o":"m 503 938 b 79 468 231 938 79 783 b 503 0 79 154 229 0 l 647 0 b 939 293 857 0 939 129 b 690 558 939 456 857 558 l 465 558 l 465 415 l 674 415 b 789 296 750 415 789 371 b 658 164 789 219 750 164 l 503 164 b 243 468 321 164 243 254 b 503 774 243 683 322 774 l 889 774 l 889 938 z m 265 1283 l 265 1204 b 549 985 265 1043 326 985 b 831 1204 768 985 831 1043 l 831 1283 l 706 1283 l 706 1206 b 549 1086 706 1118 675 1086 b 389 1206 421 1086 389 1118 l 389 1283 z "},"ğ":{"ha":961,"x_min":0,"x_max":0,"o":"m 389 733 b 71 383 193 733 71 619 b 389 31 71 146 193 31 l 713 31 l 713 -3 b 567 -151 713 -108 676 -151 l 147 -151 l 147 -293 l 583 -293 b 861 -3 789 -293 861 -211 l 861 419 b 592 733 861 631 767 733 z m 219 378 b 403 592 219 528 276 592 l 549 592 b 713 421 667 592 713 540 l 713 164 l 403 164 b 219 378 276 164 219 228 z m 203 1079 l 203 1000 b 486 781 203 839 264 781 b 768 1000 706 781 768 839 l 768 1079 l 643 1079 l 643 1001 b 486 882 643 914 613 882 b 326 1001 358 882 326 914 l 326 1079 z "},"Ġ":{"ha":1013,"x_min":0,"x_max":0,"o":"m 503 938 b 79 468 231 938 79 783 b 503 0 79 154 229 0 l 647 0 b 939 293 857 0 939 129 b 690 558 939 456 857 558 l 465 558 l 465 415 l 674 415 b 789 296 750 415 789 371 b 658 164 789 219 750 164 l 503 164 b 243 468 321 164 243 254 b 503 774 243 683 322 774 l 889 774 l 889 938 z m 478 1214 l 478 1043 l 626 1043 l 626 1214 z "},"ġ":{"ha":961,"x_min":0,"x_max":0,"o":"m 389 733 b 71 383 193 733 71 619 b 389 31 71 146 193 31 l 713 31 l 713 -3 b 567 -151 713 -108 676 -151 l 147 -151 l 147 -293 l 583 -293 b 861 -3 789 -293 861 -211 l 861 419 b 592 733 861 631 767 733 z m 219 378 b 403 592 219 528 276 592 l 549 592 b 713 421 667 592 713 540 l 713 164 l 403 164 b 219 378 276 164 219 228 z m 408 1010 l 408 839 l 557 839 l 557 1010 z "},"Ģ":{"ha":1013,"x_min":0,"x_max":0,"o":"m 503 938 b 79 468 231 938 79 783 b 503 0 79 154 229 0 l 647 0 b 939 293 857 0 939 129 b 690 558 939 456 857 558 l 465 558 l 465 415 l 674 415 b 789 296 750 415 789 371 b 658 164 789 219 750 164 l 503 164 b 243 468 321 164 243 254 b 503 774 243 683 322 774 l 889 774 l 889 938 z m 474 -33 l 474 -197 b 422 -256 474 -237 458 -256 l 406 -256 l 406 -367 l 451 -367 b 621 -182 567 -367 621 -306 l 621 -33 z "},"ģ":{"ha":961,"x_min":0,"x_max":0,"o":"m 389 733 b 71 383 193 733 71 619 b 389 31 71 146 193 31 l 713 31 l 713 -3 b 567 -151 713 -108 676 -151 l 147 -151 l 147 -293 l 583 -293 b 861 -3 789 -293 861 -211 l 861 419 b 592 733 861 631 767 733 z m 219 378 b 403 592 219 528 276 592 l 549 592 b 713 421 667 592 713 540 l 713 164 l 403 164 b 219 378 276 164 219 228 z m 574 1167 b 393 971 450 1167 393 1103 l 393 781 l 551 781 l 551 988 b 606 1047 551 1029 568 1047 l 633 1047 l 633 1167 z "},"Ħ":{"ha":1035,"x_min":0,"x_max":0,"o":"m 114 938 l 114 835 l 15 835 l 15 713 l 114 713 l 114 0 l 278 0 l 278 392 l 757 392 l 757 0 l 922 0 l 922 713 l 1021 713 l 1021 835 l 922 835 l 922 938 l 757 938 l 757 835 l 278 835 l 278 938 z m 278 556 l 278 713 l 757 713 l 757 556 z "},"ħ":{"ha":982,"x_min":0,"x_max":0,"o":"m 106 1051 l 106 0 l 253 0 l 253 592 l 511 592 b 732 413 664 592 732 525 l 732 0 l 881 0 l 881 413 b 511 733 881 614 758 733 l 253 733 l 253 872 l 743 872 l 743 996 l 253 996 l 253 1051 z "},"Ĩ":{"ha":499,"x_min":0,"x_max":0,"o":"m 168 938 l 168 0 l 332 0 l 332 938 z m -69 1200 l -69 1076 l 568 1076 l 568 1200 z "},"ĩ":{"ha":551,"x_min":0,"x_max":0,"o":"m -42 996 l -42 872 l 596 872 l 596 996 z m 203 733 l 203 0 l 350 0 l 350 733 z "},"Ī":{"ha":499,"x_min":0,"x_max":0,"o":"m 168 938 l 168 0 l 332 0 l 332 938 z m -69 1200 l -69 1076 l 568 1076 l 568 1200 z "},"ī":{"ha":551,"x_min":0,"x_max":0,"o":"m -42 996 l -42 872 l 596 872 l 596 996 z m 203 733 l 203 0 l 350 0 l 350 733 z "},"Ĭ":{"ha":522,"x_min":0,"x_max":0,"o":"m 179 938 l 179 0 l 343 0 l 343 938 z m -22 1283 l -22 1204 b 261 985 -22 1043 39 985 b 543 1204 481 985 543 1043 l 543 1283 l 418 1283 l 418 1206 b 261 1086 418 1118 388 1086 b 101 1206 133 1086 101 1118 l 101 1283 z "},"ĭ":{"ha":521,"x_min":0,"x_max":0,"o":"m -22 1079 l -22 1000 b 261 781 -22 839 39 781 b 543 1000 481 781 543 839 l 543 1079 l 418 1079 l 418 1001 b 261 882 418 914 388 882 b 101 1001 133 882 101 914 l 101 1079 z m 186 733 l 186 0 l 333 0 l 333 733 z "},"Į":{"ha":399,"x_min":0,"x_max":0,"o":"m 75 -47 b -47 -204 -1 -78 -47 -122 b 136 -367 -47 -297 14 -367 l 313 -367 l 313 -228 l 182 -228 b 86 -144 121 -228 86 -194 b 153 -57 86 -100 113 -75 l 286 0 l 286 938 l 122 938 l 122 -29 z "},"į":{"ha":386,"x_min":0,"x_max":0,"o":"m 133 733 l 133 -22 l 69 -47 b -53 -204 -7 -78 -53 -122 b 131 -367 -53 -297 8 -367 l 307 -367 l 307 -228 l 176 -228 b 81 -144 115 -228 81 -194 b 147 -57 81 -100 107 -75 l 281 0 l 281 733 z m 133 1010 l 133 839 l 282 839 l 282 1010 z "},"İ":{"ha":390,"x_min":0,"x_max":0,"o":"m 114 938 l 114 0 l 278 0 l 278 938 z m 121 1214 l 121 1043 l 269 1043 l 269 1214 z "},"ı":{"ha":358,"x_min":0,"x_max":0,"o":"m 106 733 l 106 0 l 253 0 l 253 733 z "},"Ĳ":{"ha":1146,"x_min":0,"x_max":0,"o":"m 114 938 l 114 0 l 278 0 l 278 938 z m 876 938 l 876 325 b 685 164 876 235 832 164 l 376 164 l 376 0 l 694 0 b 1042 324 943 0 1042 136 l 1042 938 z "},"ĳ":{"ha":726,"x_min":0,"x_max":0,"o":"m 106 733 l 106 0 l 253 0 l 253 733 z m 474 733 l 474 -43 b 374 -153 474 -125 446 -153 l 278 -153 l 278 -294 l 407 -294 b 622 -42 557 -294 622 -233 l 622 733 z m 474 1010 l 474 839 l 622 839 l 622 1010 z m 106 1010 l 106 839 l 254 839 l 254 1010 z "},"Ķ":{"ha":983,"x_min":0,"x_max":0,"o":"m 114 938 l 114 0 l 278 0 l 278 392 l 368 392 b 629 278 544 392 578 378 l 772 0 l 956 0 l 804 294 b 618 475 749 403 706 451 b 781 646 694 508 739 563 l 928 938 l 751 938 l 608 657 b 368 540 556 554 529 540 l 278 540 l 278 938 z m 429 -33 l 429 -197 b 378 -256 429 -237 414 -256 l 361 -256 l 361 -367 l 407 -367 b 576 -182 522 -367 576 -306 l 576 -33 z "},"ķ":{"ha":836,"x_min":0,"x_max":0,"o":"m 106 1051 l 106 0 l 253 0 l 253 306 l 321 306 b 522 217 450 306 479 293 l 644 0 l 810 0 l 678 231 b 528 372 633 307 597 353 b 658 503 588 397 622 438 l 786 733 l 626 733 l 504 513 b 321 429 461 435 438 429 l 253 429 l 253 1051 z m 371 -33 l 371 -197 b 319 -256 371 -237 356 -256 l 303 -256 l 303 -367 l 349 -367 b 518 -182 464 -367 518 -306 l 518 -33 z "},"Ĺ":{"ha":864,"x_min":0,"x_max":0,"o":"m 104 938 l 104 324 b 450 0 104 136 201 0 l 824 0 l 824 164 l 460 164 b 268 325 313 164 268 235 l 268 938 z m 240 1283 l 85 985 l 231 985 l 404 1283 z "},"ĺ":{"ha":372,"x_min":0,"x_max":0,"o":"m 106 929 l 106 0 l 253 0 l 253 929 z m 221 1258 l 65 960 l 211 960 l 385 1258 z "},"Ļ":{"ha":864,"x_min":0,"x_max":0,"o":"m 104 938 l 104 324 b 450 0 104 136 201 0 l 824 0 l 824 164 l 460 164 b 268 325 313 164 268 235 l 268 938 z m 403 -33 l 403 -197 b 351 -256 403 -237 388 -256 l 335 -256 l 335 -367 l 381 -367 b 550 -182 496 -367 550 -306 l 550 -33 z "},"ļ":{"ha":358,"x_min":0,"x_max":0,"o":"m 106 1051 l 106 0 l 253 0 l 253 1051 z m 106 -33 l 106 -197 b 54 -256 106 -237 90 -256 l 38 -256 l 38 -367 l 83 -367 b 253 -182 199 -367 253 -306 l 253 -33 z "},"Ľ":{"ha":864,"x_min":0,"x_max":0,"o":"m 104 938 l 104 324 b 450 0 104 136 201 0 l 824 0 l 824 164 l 460 164 b 268 325 313 164 268 235 l 268 938 z m 533 1050 l 533 886 b 482 828 533 846 518 828 l 465 828 l 465 717 l 511 717 b 681 901 626 717 681 778 l 681 1050 z "},"ľ":{"ha":496,"x_min":0,"x_max":0,"o":"m 106 1051 l 106 0 l 253 0 l 253 1051 z m 385 1050 l 385 886 b 333 828 385 846 369 828 l 317 828 l 317 717 l 363 717 b 532 901 478 717 532 778 l 532 1050 z "},"Ł":{"ha":864,"x_min":0,"x_max":0,"o":"m 104 938 l 104 636 l 11 596 l 11 460 l 104 500 l 104 324 b 450 0 104 136 201 0 l 824 0 l 824 164 l 460 164 b 268 325 313 164 268 235 l 268 571 l 529 683 l 529 819 l 268 707 l 268 938 z "},"ł":{"ha":518,"x_min":0,"x_max":0,"o":"m 186 1051 l 186 769 l 0 689 l 0 553 l 186 633 l 186 0 l 333 0 l 333 696 l 518 776 l 518 913 l 333 832 l 333 1051 z "},"Ń":{"ha":1221,"x_min":0,"x_max":0,"o":"m 276 742 b 333 796 276 775 296 796 b 392 756 363 796 379 783 l 665 157 b 894 -17 704 50 764 -17 b 1110 189 1039 -17 1110 65 l 1110 938 l 944 938 l 944 196 b 889 143 944 164 924 143 b 829 182 858 143 840 160 l 556 781 b 328 954 517 888 458 954 b 113 750 182 954 113 872 l 113 0 l 276 0 z m 631 1283 l 475 985 l 621 985 l 794 1283 z "},"ń":{"ha":982,"x_min":0,"x_max":0,"o":"m 208 733 b 106 619 135 733 106 706 l 106 0 l 253 0 l 253 571 b 271 592 253 585 258 592 l 511 592 b 732 413 665 592 732 528 l 732 0 l 881 0 l 881 413 b 511 733 881 615 760 733 z m 496 1079 l 340 781 l 486 781 l 660 1079 z "},"Ņ":{"ha":1221,"x_min":0,"x_max":0,"o":"m 276 742 b 333 796 276 775 296 796 b 392 756 363 796 379 783 l 665 157 b 894 -17 704 50 764 -17 b 1110 189 1039 -17 1110 65 l 1110 938 l 944 938 l 944 196 b 889 143 944 164 924 143 b 829 182 858 143 840 160 l 556 781 b 328 954 517 888 458 954 b 113 750 182 954 113 872 l 113 0 l 276 0 z m 501 -33 l 501 -197 b 450 -256 501 -237 486 -256 l 433 -256 l 433 -367 l 479 -367 b 649 -182 594 -367 649 -306 l 649 -33 z "},"ņ":{"ha":982,"x_min":0,"x_max":0,"o":"m 208 733 b 106 619 135 733 106 706 l 106 0 l 253 0 l 253 571 b 271 592 253 585 258 592 l 511 592 b 732 413 665 592 732 528 l 732 0 l 881 0 l 881 413 b 511 733 881 615 760 733 z m 425 -33 l 425 -197 b 374 -256 425 -237 410 -256 l 357 -256 l 357 -367 l 403 -367 b 572 -182 518 -367 572 -306 l 572 -33 z "},"Ň":{"ha":1221,"x_min":0,"x_max":0,"o":"m 276 742 b 333 796 276 775 296 796 b 392 756 363 796 379 783 l 665 157 b 894 -17 704 50 764 -17 b 1110 189 1039 -17 1110 65 l 1110 938 l 944 938 l 944 196 b 889 143 944 164 924 143 b 829 182 858 143 840 160 l 556 781 b 328 954 517 888 458 954 b 113 750 182 954 113 872 l 113 0 l 276 0 z m 343 1283 l 468 1057 b 619 985 494 1007 547 985 b 771 1057 692 985 744 1006 l 897 1283 l 740 1283 l 647 1111 b 621 1099 643 1101 632 1099 b 592 1111 607 1099 597 1103 l 500 1283 z "},"ň":{"ha":982,"x_min":0,"x_max":0,"o":"m 208 733 b 106 619 135 733 106 706 l 106 0 l 253 0 l 253 571 b 271 592 253 585 258 592 l 511 592 b 732 413 665 592 732 528 l 732 0 l 881 0 l 881 413 b 511 733 881 615 760 733 z m 207 1079 l 332 853 b 483 781 358 803 411 781 b 635 853 556 781 608 801 l 761 1079 l 604 1079 l 511 907 b 485 894 507 897 496 894 b 456 907 471 894 461 899 l 364 1079 z "},"Ŋ":{"ha":1094,"x_min":0,"x_max":0,"o":"m 188 938 b 114 861 146 938 114 915 l 114 0 l 278 0 l 278 756 b 294 774 278 768 283 774 l 567 774 b 815 558 739 774 815 693 l 815 22 b 681 -137 815 -97 776 -137 l 515 -137 l 515 -294 l 718 -294 b 981 24 900 -294 981 -217 l 981 558 b 567 938 981 790 843 938 z "},"ŋ":{"ha":982,"x_min":0,"x_max":0,"o":"m 732 -43 b 632 -153 732 -125 704 -153 l 536 -153 l 536 -294 l 665 -294 b 881 -42 815 -294 881 -233 l 881 413 b 511 733 881 615 760 733 l 208 733 b 106 619 135 733 106 706 l 106 0 l 253 0 l 253 571 b 271 592 253 585 258 592 l 511 592 b 732 413 665 592 732 528 z "},"Ō":{"ha":1133,"x_min":0,"x_max":0,"o":"m 503 938 b 79 467 231 938 79 782 b 503 0 79 153 229 0 l 631 0 b 1054 467 904 0 1054 153 b 631 938 1054 782 903 938 z m 631 774 b 889 468 811 774 889 682 b 631 164 889 253 811 164 l 503 164 b 243 467 321 164 243 253 b 503 774 243 682 322 774 z m 247 1175 l 247 1051 l 885 1051 l 885 1175 z "},"ō":{"ha":932,"x_min":0,"x_max":0,"o":"m 389 733 b 71 367 193 733 71 614 b 389 0 71 119 193 0 l 543 0 b 861 367 738 0 861 119 b 543 733 861 614 738 733 z m 529 592 b 713 367 656 592 713 525 b 529 143 713 208 656 143 l 403 143 b 219 367 275 143 219 208 b 403 592 219 525 275 592 z m 147 996 l 147 872 l 785 872 l 785 996 z "},"Ő":{"ha":1133,"x_min":0,"x_max":0,"o":"m 503 938 b 79 467 231 938 79 782 b 503 0 79 153 229 0 l 631 0 b 1054 467 904 0 1054 153 b 631 938 1054 782 903 938 z m 631 774 b 889 468 811 774 889 682 b 631 164 889 253 811 164 l 503 164 b 243 467 321 164 243 253 b 503 774 243 682 322 774 z m 732 1283 l 576 985 l 722 985 l 896 1283 z m 428 1283 l 272 985 l 418 985 l 592 1283 z "},"ő":{"ha":932,"x_min":0,"x_max":0,"o":"m 389 733 b 71 367 193 733 71 614 b 389 0 71 119 193 0 l 543 0 b 861 367 738 0 861 119 b 543 733 861 614 738 733 z m 529 592 b 713 367 656 592 713 525 b 529 143 713 208 656 143 l 403 143 b 219 367 275 143 219 208 b 403 592 219 525 275 592 z m 629 1079 l 474 781 l 619 781 l 793 1079 z m 325 1079 l 169 781 l 315 781 l 489 1079 z "},"Œ":{"ha":1644,"x_min":0,"x_max":0,"o":"m 503 938 b 79 467 231 938 79 782 b 503 0 79 153 229 0 l 1546 0 l 1546 164 l 982 164 b 1051 396 1019 224 1043 301 l 1538 396 l 1538 544 l 1050 544 b 979 774 1042 638 1018 714 l 1544 774 l 1544 938 z m 631 774 b 889 468 811 774 889 682 b 631 164 889 253 811 164 l 503 164 b 243 468 321 164 243 253 b 503 774 243 682 322 774 z "},"œ":{"ha":1532,"x_min":0,"x_max":0,"o":"m 389 733 b 71 367 193 733 71 614 b 389 0 71 119 193 0 l 543 0 b 765 81 635 0 710 26 b 972 0 806 31 872 0 l 1421 0 l 1421 143 l 972 143 b 860 244 892 143 860 186 l 860 297 l 1208 297 b 1457 508 1389 297 1457 374 b 1210 733 1457 650 1383 733 l 972 733 b 765 653 872 733 806 703 b 543 733 710 707 635 733 z m 529 592 b 713 367 656 592 713 525 b 529 143 713 208 656 143 l 403 143 b 219 367 275 143 219 208 b 403 592 219 525 275 592 z m 860 490 b 972 592 860 547 892 592 l 1208 592 b 1313 500 1281 592 1313 556 b 1204 413 1313 446 1283 413 l 860 413 z "},"Ŕ":{"ha":992,"x_min":0,"x_max":0,"o":"m 111 938 l 111 774 l 625 774 b 756 650 715 774 756 717 b 625 519 756 583 718 519 l 260 519 b 113 371 157 519 113 476 l 113 0 l 276 0 l 276 339 b 300 363 276 356 285 363 l 544 363 l 758 0 l 940 0 l 722 375 b 921 657 865 415 921 540 b 619 938 921 807 831 938 z m 504 1283 l 349 985 l 494 985 l 668 1283 z "},"ŕ":{"ha":643,"x_min":0,"x_max":0,"o":"m 303 733 b 104 519 158 733 104 667 l 104 0 l 251 0 l 251 497 b 346 592 251 561 281 592 l 604 592 l 604 733 z m 381 1079 l 225 781 l 371 781 l 544 1079 z "},"Ŗ":{"ha":992,"x_min":0,"x_max":0,"o":"m 111 938 l 111 774 l 625 774 b 756 650 715 774 756 717 b 625 519 756 583 718 519 l 260 519 b 113 371 157 519 113 476 l 113 0 l 276 0 l 276 339 b 300 363 276 356 285 363 l 544 363 l 758 0 l 940 0 l 722 375 b 921 657 865 415 921 540 b 619 938 921 807 831 938 z m 426 -33 l 426 -197 b 375 -256 426 -237 411 -256 l 358 -256 l 358 -367 l 404 -367 b 574 -182 519 -367 574 -306 l 574 -33 z "},"ŗ":{"ha":643,"x_min":0,"x_max":0,"o":"m 303 733 b 104 519 158 733 104 667 l 104 0 l 251 0 l 251 497 b 346 592 251 561 281 592 l 604 592 l 604 733 z m 103 -33 l 103 -197 b 51 -256 103 -237 88 -256 l 35 -256 l 35 -367 l 81 -367 b 250 -182 196 -367 250 -306 l 250 -33 z "},"Ř":{"ha":992,"x_min":0,"x_max":0,"o":"m 111 938 l 111 774 l 625 774 b 756 650 715 774 756 717 b 625 519 756 583 718 519 l 260 519 b 113 371 157 519 113 476 l 113 0 l 276 0 l 276 339 b 300 363 276 356 285 363 l 544 363 l 758 0 l 940 0 l 722 375 b 921 657 865 415 921 540 b 619 938 921 807 831 938 z m 213 1283 l 338 1057 b 489 985 364 1007 417 985 b 640 1057 561 985 614 1006 l 767 1283 l 610 1283 l 517 1111 b 490 1099 513 1101 501 1099 b 461 1111 476 1099 467 1103 l 369 1283 z "},"ř":{"ha":678,"x_min":0,"x_max":0,"o":"m 303 733 b 104 519 158 733 104 667 l 104 0 l 251 0 l 251 497 b 346 592 251 561 281 592 l 604 592 l 604 733 z m 99 1079 l 224 853 b 375 781 250 803 303 781 b 526 853 447 781 500 801 l 653 1079 l 496 1079 l 403 907 b 376 894 399 897 388 894 b 347 907 363 894 353 899 l 256 1079 z "},"Ś":{"ha":976,"x_min":0,"x_max":0,"o":"m 363 938 b 71 668 154 938 71 824 b 379 397 71 538 129 397 l 597 397 b 744 281 713 397 744 342 b 615 164 744 213 704 164 l 88 164 l 88 0 l 610 0 b 908 275 824 0 908 117 b 593 551 908 410 849 551 l 374 551 b 235 663 264 551 235 606 b 357 774 235 728 272 774 l 838 774 l 838 938 z m 506 1283 l 350 985 l 496 985 l 669 1283 z "},"ś":{"ha":814,"x_min":0,"x_max":0,"o":"m 310 733 b 71 519 139 733 71 651 b 324 306 71 407 121 306 l 497 306 b 601 224 571 306 601 282 b 506 143 601 167 574 143 l 79 143 l 79 0 l 506 0 b 746 222 678 0 746 92 b 492 429 746 336 694 429 l 319 429 b 215 508 238 429 215 457 b 311 592 215 564 243 592 l 717 592 l 717 733 z m 428 1079 l 272 781 l 418 781 l 592 1079 z "},"Ş":{"ha":976,"x_min":0,"x_max":0,"o":"m 363 938 b 71 668 154 938 71 824 b 379 397 71 538 129 397 l 597 397 b 744 281 713 397 744 342 b 615 164 744 213 704 164 l 88 164 l 88 0 l 610 0 b 908 275 824 0 908 117 b 593 551 908 410 849 551 l 374 551 b 235 663 264 551 235 606 b 357 774 235 728 272 774 l 838 774 l 838 938 z m 417 -33 l 417 -197 b 365 -256 417 -237 401 -256 l 349 -256 l 349 -367 l 394 -367 b 564 -182 510 -367 564 -306 l 564 -33 z "},"ş":{"ha":814,"x_min":0,"x_max":0,"o":"m 310 733 b 71 519 139 733 71 651 b 324 306 71 407 121 306 l 497 306 b 601 224 571 306 601 282 b 506 143 601 167 574 143 l 79 143 l 79 0 l 506 0 b 746 222 678 0 746 92 b 492 429 746 336 694 429 l 319 429 b 215 508 238 429 215 457 b 311 592 215 564 243 592 l 717 592 l 717 733 z m 335 -33 l 335 -197 b 283 -256 335 -237 319 -256 l 267 -256 l 267 -367 l 313 -367 b 482 -182 428 -367 482 -306 l 482 -33 z "},"Š":{"ha":976,"x_min":0,"x_max":0,"o":"m 363 938 b 71 668 154 938 71 824 b 379 397 71 538 129 397 l 597 397 b 744 281 713 397 744 342 b 615 164 744 213 704 164 l 88 164 l 88 0 l 610 0 b 908 275 824 0 908 117 b 593 551 908 410 849 551 l 374 551 b 235 663 264 551 235 606 b 357 774 235 728 272 774 l 838 774 l 838 938 z m 218 1283 l 343 1057 b 494 985 369 1007 422 985 b 646 1057 567 985 619 1006 l 772 1283 l 615 1283 l 522 1111 b 496 1099 518 1101 507 1099 b 467 1111 482 1099 472 1103 l 375 1283 z "},"š":{"ha":814,"x_min":0,"x_max":0,"o":"m 310 733 b 71 519 139 733 71 651 b 324 306 71 407 121 306 l 497 306 b 601 224 571 306 601 282 b 506 143 601 167 574 143 l 79 143 l 79 0 l 506 0 b 746 222 678 0 746 92 b 492 429 746 336 694 429 l 319 429 b 215 508 238 429 215 457 b 311 592 215 564 243 592 l 717 592 l 717 733 z m 143 1079 l 268 853 b 419 781 294 803 347 781 b 571 853 492 781 544 801 l 697 1079 l 540 1079 l 447 907 b 421 894 443 897 432 894 b 392 907 407 894 397 899 l 300 1079 z "},"Ť":{"ha":793,"x_min":0,"x_max":0,"o":"m 40 938 l 40 774 l 314 774 l 314 0 l 479 0 l 479 774 l 753 774 l 753 938 z m 119 1283 l 244 1057 b 396 985 271 1007 324 985 b 547 1057 468 985 521 1006 l 674 1283 l 517 1283 l 424 1111 b 397 1099 419 1101 408 1099 b 368 1111 383 1099 374 1103 l 276 1283 z "},"ť":{"ha":682,"x_min":0,"x_max":0,"o":"m 32 733 l 32 592 l 132 592 l 132 253 b 349 0 132 61 197 0 l 481 0 l 481 135 l 379 135 b 281 244 310 135 281 163 l 281 592 l 483 592 l 483 733 l 281 733 l 281 907 l 132 907 l 132 733 z m 571 1050 l 571 886 b 519 828 571 846 556 828 l 503 828 l 503 717 l 549 717 b 718 901 664 717 718 778 l 718 1050 z "},"Ŧ":{"ha":793,"x_min":0,"x_max":0,"o":"m 78 494 l 78 371 l 314 371 l 314 0 l 479 0 l 479 371 l 715 371 l 715 494 l 479 494 l 479 774 l 753 774 l 753 938 l 40 938 l 40 774 l 314 774 l 314 494 z "},"ŧ":{"ha":536,"x_min":0,"x_max":0,"o":"m 132 907 l 132 733 l 32 733 l 32 592 l 132 592 l 132 436 l 32 436 l 32 314 l 132 314 l 132 253 b 349 0 132 61 197 0 l 481 0 l 481 135 l 379 135 b 281 244 310 135 281 163 l 281 314 l 499 314 l 499 436 l 281 436 l 281 592 l 483 592 l 483 733 l 281 733 l 281 907 z "},"Ũ":{"ha":1017,"x_min":0,"x_max":0,"o":"m 107 938 l 107 299 b 410 0 107 101 210 0 l 607 0 b 911 299 807 0 911 101 l 911 938 l 750 938 l 750 311 b 596 164 750 218 701 164 l 429 164 b 274 311 321 164 274 218 l 274 938 z m 189 1200 l 189 1076 l 826 1076 l 826 1200 z "},"ũ":{"ha":975,"x_min":0,"x_max":0,"o":"m 101 733 l 101 289 b 419 0 101 119 210 0 l 556 0 b 874 289 765 0 874 119 l 874 733 l 729 733 l 729 294 b 550 143 729 208 667 143 l 431 143 b 250 294 314 143 250 208 l 250 733 z m 169 996 l 169 872 l 807 872 l 807 996 z "},"Ū":{"ha":1017,"x_min":0,"x_max":0,"o":"m 107 938 l 107 299 b 410 0 107 101 210 0 l 607 0 b 911 299 807 0 911 101 l 911 938 l 750 938 l 750 311 b 596 164 750 218 701 164 l 429 164 b 274 311 321 164 274 218 l 274 938 z m 189 1200 l 189 1076 l 826 1076 l 826 1200 z "},"ū":{"ha":975,"x_min":0,"x_max":0,"o":"m 101 733 l 101 289 b 419 0 101 119 210 0 l 556 0 b 874 289 765 0 874 119 l 874 733 l 729 733 l 729 294 b 550 143 729 208 667 143 l 431 143 b 250 294 314 143 250 208 l 250 733 z m 169 996 l 169 872 l 807 872 l 807 996 z "},"Ů":{"ha":1017,"x_min":0,"x_max":0,"o":"m 107 938 l 107 299 b 410 0 107 101 210 0 l 607 0 b 911 299 807 0 911 101 l 911 938 l 750 938 l 750 311 b 596 164 750 218 701 164 l 429 164 b 274 311 321 164 274 218 l 274 938 z m 460 1283 b 321 1124 374 1283 321 1232 b 460 964 321 1017 374 964 l 556 964 b 694 1124 640 964 694 1017 b 556 1283 694 1232 640 1283 z m 546 1213 b 617 1124 594 1213 617 1186 b 546 1036 617 1063 594 1036 l 468 1036 b 397 1124 418 1036 397 1063 b 468 1213 397 1186 418 1213 z "},"ů":{"ha":975,"x_min":0,"x_max":0,"o":"m 101 733 l 101 289 b 419 0 101 119 210 0 l 556 0 b 874 289 765 0 874 119 l 874 733 l 729 733 l 729 294 b 550 143 729 208 667 143 l 431 143 b 250 294 314 143 250 208 l 250 733 z m 440 1119 b 301 960 354 1119 301 1068 b 440 800 301 853 354 800 l 536 800 b 675 960 621 800 675 853 b 536 1119 675 1068 621 1119 z m 526 1049 b 597 960 575 1049 597 1022 b 526 872 597 899 575 872 l 449 872 b 378 960 399 872 378 899 b 449 1049 378 1022 399 1049 z "},"Ű":{"ha":1017,"x_min":0,"x_max":0,"o":"m 107 938 l 107 299 b 410 0 107 101 210 0 l 607 0 b 911 299 807 0 911 101 l 911 938 l 750 938 l 750 311 b 596 164 750 218 701 164 l 429 164 b 274 311 321 164 274 218 l 274 938 z m 674 1283 l 518 985 l 664 985 l 838 1283 z m 369 1283 l 214 985 l 360 985 l 533 1283 z "},"ű":{"ha":975,"x_min":0,"x_max":0,"o":"m 101 733 l 101 289 b 419 0 101 119 210 0 l 556 0 b 874 289 765 0 874 119 l 874 733 l 729 733 l 729 294 b 550 143 729 208 667 143 l 431 143 b 250 294 314 143 250 208 l 250 733 z m 654 1079 l 499 781 l 644 781 l 818 1079 z m 350 1079 l 194 781 l 340 781 l 514 1079 z "},"Ų":{"ha":1017,"x_min":0,"x_max":0,"o":"m 400 -47 b 278 -204 324 -78 278 -122 b 461 -367 278 -297 339 -367 l 638 -367 l 638 -228 l 507 -228 b 411 -144 446 -228 411 -194 b 478 -57 411 -100 438 -75 l 611 0 b 911 299 808 1 911 103 l 911 938 l 750 938 l 750 311 b 596 164 750 218 701 164 l 429 164 b 274 311 321 164 274 218 l 274 938 l 107 938 l 107 299 b 410 0 107 101 210 0 l 525 0 z "},"ų":{"ha":975,"x_min":0,"x_max":0,"o":"m 371 -47 b 249 -204 294 -76 249 -122 b 432 -367 249 -297 310 -367 l 608 -367 l 608 -228 l 478 -228 b 382 -144 417 -228 382 -194 b 449 -57 382 -100 408 -75 l 582 0 b 874 289 769 6 874 124 l 874 733 l 729 733 l 729 294 b 550 143 729 208 667 143 l 431 143 b 250 294 314 143 250 208 l 250 733 l 101 733 l 101 289 b 419 0 101 119 210 0 l 496 0 z "},"Ŵ":{"ha":1453,"x_min":0,"x_max":0,"o":"m 46 938 l 126 196 b 340 -17 140 69 196 -17 b 561 174 465 -17 536 46 l 671 746 b 728 796 678 779 697 796 b 785 746 758 796 779 779 l 888 174 b 1103 -17 911 42 985 -17 b 1322 196 1250 -17 1308 72 l 1410 938 l 1239 938 l 1160 206 b 1103 143 1156 165 1139 143 b 1043 194 1069 143 1049 161 l 939 769 b 729 954 917 890 851 954 b 514 769 607 954 538 890 l 403 194 b 344 143 396 160 376 143 b 288 206 308 143 292 165 l 218 938 z m 450 985 l 607 985 l 699 1158 b 726 1171 704 1168 714 1171 b 754 1158 740 1171 750 1167 l 847 985 l 1004 985 l 878 1213 b 728 1283 851 1263 800 1283 b 575 1213 654 1283 601 1264 z "},"ŵ":{"ha":1357,"x_min":0,"x_max":0,"o":"m 42 733 l 118 153 b 317 -17 132 51 181 -17 b 519 135 433 -17 496 33 l 624 581 b 678 617 629 606 649 617 b 732 581 706 617 726 606 l 831 135 b 1028 -17 853 33 914 -17 b 1233 153 1161 -17 1219 51 l 1315 733 l 1156 733 l 1079 161 b 1029 114 1075 129 1063 114 b 974 154 996 114 979 128 l 875 599 b 679 747 853 696 796 747 b 478 599 563 747 500 696 l 374 154 b 319 114 367 128 353 114 b 267 161 285 114 271 129 l 201 733 z m 401 781 l 558 781 l 650 954 b 678 967 656 964 665 967 b 706 954 692 967 701 963 l 799 781 l 956 781 l 829 1008 b 679 1079 803 1058 751 1079 b 526 1008 606 1079 553 1060 z "},"Ŷ":{"ha":957,"x_min":0,"x_max":0,"o":"m 18 938 l 396 404 l 396 0 l 561 0 l 561 404 l 939 938 l 744 938 l 479 536 l 217 938 z m 201 985 l 358 985 l 450 1158 b 478 1171 456 1168 465 1171 b 506 1158 492 1171 501 1167 l 599 985 l 756 985 l 629 1213 b 479 1283 603 1263 551 1283 b 326 1213 406 1283 353 1264 z "},"ŷ":{"ha":899,"x_min":0,"x_max":0,"o":"m 715 733 l 467 157 l 447 157 b 403 188 419 157 413 161 l 182 733 l 26 733 l 272 117 b 410 26 297 53 326 26 l 272 -294 l 431 -294 l 872 733 z m 164 781 l 321 781 l 413 954 b 440 967 418 964 428 967 b 468 954 454 967 464 963 l 561 781 l 718 781 l 592 1008 b 442 1079 565 1058 514 1079 b 289 1008 368 1079 315 1060 z "},"Ÿ":{"ha":957,"x_min":0,"x_max":0,"o":"m 18 938 l 396 404 l 396 0 l 561 0 l 561 404 l 939 938 l 744 938 l 479 536 l 217 938 z m 236 1214 l 236 1043 l 385 1043 l 385 1214 z m 569 1214 l 569 1043 l 718 1043 l 718 1214 z "},"Ź":{"ha":1032,"x_min":0,"x_max":0,"o":"m 113 938 l 113 774 l 717 774 b 788 713 764 774 788 749 b 739 643 788 681 769 656 l 231 425 b 79 206 129 382 79 313 b 306 0 79 75 156 0 l 935 0 l 935 164 l 317 164 b 247 225 271 164 247 189 b 294 294 247 257 265 282 l 806 513 b 956 732 906 556 956 625 b 728 938 956 863 878 938 z m 535 1283 l 379 985 l 525 985 l 699 1283 z "},"ź":{"ha":867,"x_min":0,"x_max":0,"o":"m 97 733 l 97 592 l 600 592 b 657 549 639 592 657 576 b 618 497 657 529 649 508 l 196 346 b 71 168 111 315 71 250 b 260 0 71 67 133 0 l 782 0 l 782 142 l 268 142 b 213 186 231 142 213 158 b 251 236 213 210 226 226 l 672 389 b 797 565 749 417 797 475 b 608 733 797 667 736 733 z m 444 1079 l 289 781 l 435 781 l 608 1079 z "},"Ż":{"ha":1032,"x_min":0,"x_max":0,"o":"m 113 938 l 113 774 l 717 774 b 788 713 764 774 788 749 b 739 643 788 681 769 656 l 231 425 b 79 206 129 382 79 313 b 306 0 79 75 156 0 l 935 0 l 935 164 l 317 164 b 247 225 271 164 247 189 b 294 294 247 257 265 282 l 806 513 b 956 732 906 556 956 625 b 728 938 956 863 878 938 z m 446 1214 l 446 1043 l 594 1043 l 594 1214 z "},"ż":{"ha":867,"x_min":0,"x_max":0,"o":"m 97 733 l 97 592 l 600 592 b 657 549 639 592 657 576 b 618 497 657 529 649 508 l 196 346 b 71 168 111 315 71 250 b 260 0 71 67 133 0 l 782 0 l 782 142 l 268 142 b 213 186 231 142 213 158 b 251 236 213 210 226 226 l 672 389 b 797 565 749 417 797 475 b 608 733 797 667 736 733 z m 367 1010 l 367 839 l 515 839 l 515 1010 z "},"Ž":{"ha":1032,"x_min":0,"x_max":0,"o":"m 113 938 l 113 774 l 717 774 b 788 713 764 774 788 749 b 739 643 788 681 769 656 l 231 425 b 79 206 129 382 79 313 b 306 0 79 75 156 0 l 935 0 l 935 164 l 317 164 b 247 225 271 164 247 189 b 294 294 247 257 265 282 l 806 513 b 956 732 906 556 956 625 b 728 938 956 863 878 938 z m 244 1283 l 369 1057 b 521 985 396 1007 449 985 b 672 1057 593 985 646 1006 l 799 1283 l 642 1283 l 549 1111 b 522 1099 544 1101 533 1099 b 493 1111 508 1099 499 1103 l 401 1283 z "},"ž":{"ha":867,"x_min":0,"x_max":0,"o":"m 97 733 l 97 592 l 600 592 b 657 549 639 592 657 576 b 618 497 657 529 649 508 l 196 346 b 71 168 111 315 71 250 b 260 0 71 67 133 0 l 782 0 l 782 142 l 268 142 b 213 186 231 142 213 158 b 251 236 213 210 226 226 l 672 389 b 797 565 749 417 797 475 b 608 733 797 667 736 733 z m 156 1079 l 281 853 b 432 781 307 803 360 781 b 583 853 504 781 557 801 l 710 1079 l 553 1079 l 460 907 b 433 894 456 897 444 894 b 404 907 419 894 410 899 l 313 1079 z "},"ƀ":{"ha":965,"x_min":0,"x_max":0,"o":"m 106 1051 l 106 314 b 375 0 106 103 199 0 l 578 0 b 894 367 772 0 894 119 b 578 733 894 614 772 733 l 253 733 l 253 872 l 743 872 l 743 996 l 253 996 l 253 1051 z m 563 592 b 746 367 690 592 746 525 b 563 143 746 208 690 143 l 418 143 b 253 321 299 143 253 196 l 253 592 z "},"Ɓ":{"ha":1249,"x_min":0,"x_max":0,"o":"m 219 938 b 10 682 82 938 10 868 l 10 582 l 157 582 l 157 699 b 251 811 157 776 192 811 l 365 811 l 365 76 b 443 0 365 25 390 0 l 860 0 b 1174 258 1081 0 1174 108 b 1035 472 1174 367 1124 436 b 1169 681 1122 507 1169 572 b 856 938 1169 833 1076 938 z m 526 406 l 864 406 b 1008 285 960 406 1008 364 b 864 163 1008 208 963 163 l 544 163 b 526 178 533 163 526 167 z m 526 776 l 861 776 b 1004 654 961 776 1004 728 b 860 542 1004 578 957 542 l 526 542 z "},"Ƈ":{"ha":1044,"x_min":0,"x_max":0,"o":"m 503 938 b 79 468 231 938 79 783 b 503 0 79 154 229 0 l 865 0 l 865 164 l 503 164 b 243 468 321 164 243 254 b 503 774 243 683 322 774 l 685 774 l 685 725 l 833 725 l 833 828 b 938 951 833 917 867 951 l 1044 951 l 1044 1086 l 906 1086 b 696 938 792 1086 722 1044 z "},"ƈ":{"ha":947,"x_min":0,"x_max":0,"o":"m 389 733 b 71 367 193 733 71 614 b 389 0 71 119 193 0 l 767 0 l 767 143 l 403 143 b 219 367 275 143 219 208 b 403 592 219 525 275 592 l 586 592 l 586 518 l 735 518 l 735 621 b 839 744 735 710 768 744 l 946 744 l 946 879 l 807 879 b 599 733 693 879 625 839 z "},"Ɗ":{"ha":1271,"x_min":0,"x_max":0,"o":"m 219 938 b 10 682 82 938 10 868 l 10 582 l 157 582 l 157 699 b 251 811 157 776 192 811 l 360 811 l 360 76 b 438 0 360 25 385 0 l 768 0 b 1190 468 1043 0 1190 153 b 768 938 1190 785 1042 938 z m 524 774 l 768 774 b 1026 469 950 774 1026 683 b 768 164 1026 254 950 164 l 542 164 b 524 181 529 164 524 168 z "},"Ǝ":{"ha":963,"x_min":0,"x_max":0,"o":"m 101 938 l 101 774 l 569 774 b 711 657 668 774 711 728 b 568 544 711 579 664 544 l 108 544 l 108 396 l 572 396 b 715 283 667 396 715 358 b 574 164 715 208 669 164 l 100 164 l 100 0 l 574 0 b 886 251 794 0 886 111 b 751 471 886 364 839 433 b 883 686 838 507 883 575 b 569 938 883 831 790 938 z "},"Ə":{"ha":1013,"x_min":0,"x_max":0,"o":"m 515 0 b 939 468 789 0 939 154 b 515 938 939 783 788 938 l 129 938 l 129 774 l 515 774 b 769 557 669 774 750 708 l 328 557 b 79 293 161 557 79 456 b 371 0 79 129 161 0 z m 515 164 l 360 164 b 229 296 268 164 229 219 b 344 415 229 371 268 415 l 774 415 b 515 164 761 239 682 164 z "},"ƒ":{"ha":521,"x_min":0,"x_max":0,"o":"m 32 733 l 32 592 l 132 592 l 132 -43 b 32 -153 132 -125 104 -153 l -64 -153 l -64 -294 l 65 -294 b 281 -42 215 -294 281 -233 l 281 592 l 483 592 l 483 733 l 281 733 l 281 807 b 379 917 281 889 310 917 l 481 917 l 481 1051 l 349 1051 b 132 799 197 1051 132 990 l 132 733 z "},"Ɣ":{"ha":1089,"x_min":0,"x_max":0,"o":"m 26 938 l 458 240 l 358 76 b 278 -174 306 -15 278 -103 b 504 -367 278 -290 353 -367 l 586 -367 b 813 -174 738 -367 813 -290 b 732 76 813 -103 785 -15 l 632 240 l 1065 938 l 882 938 l 544 383 l 210 938 z m 608 0 b 689 -203 658 -79 689 -153 b 578 -286 689 -254 656 -286 l 514 -286 b 401 -203 435 -286 401 -254 b 482 0 401 -153 433 -79 l 544 101 z "},"Ƙ":{"ha":1065,"x_min":0,"x_max":0,"o":"m 608 657 b 368 540 556 554 529 540 l 278 540 l 278 938 l 114 938 l 114 0 l 278 0 l 278 392 l 368 392 b 629 278 544 392 578 378 l 772 0 l 956 0 l 804 294 b 618 475 749 403 706 451 b 781 646 694 508 739 563 l 829 742 b 946 842 872 829 903 842 l 1067 842 l 1067 976 l 914 976 b 685 806 821 976 760 950 z "},"ƙ":{"ha":836,"x_min":0,"x_max":0,"o":"m 106 0 l 253 0 l 253 306 l 321 306 b 522 217 450 306 479 293 l 644 0 l 810 0 l 678 231 b 528 372 633 307 597 353 b 658 503 588 397 622 438 l 786 733 l 626 733 l 504 513 b 321 429 461 435 438 429 l 253 429 l 253 792 b 358 915 253 881 288 915 l 465 915 l 465 1050 l 326 1050 b 106 783 178 1050 106 981 z "},"Ɲ":{"ha":1221,"x_min":0,"x_max":0,"o":"m 113 -43 b 13 -153 113 -125 85 -153 l -83 -153 l -83 -294 l 46 -294 b 276 -42 196 -294 276 -233 l 276 742 b 333 796 276 775 296 796 b 392 756 363 796 379 783 l 665 157 b 894 -17 704 50 764 -17 b 1110 189 1039 -17 1110 65 l 1110 938 l 944 938 l 944 196 b 889 143 944 164 924 143 b 829 182 858 143 840 160 l 556 781 b 328 954 517 888 458 954 b 113 750 182 954 113 872 z "},"Ơ":{"ha":1133,"x_min":0,"x_max":0,"o":"m 503 938 b 79 467 231 938 79 782 b 503 0 79 153 229 0 l 631 0 b 1054 467 904 0 1054 153 b 964 796 1054 608 1024 718 b 1133 1035 1082 804 1133 867 l 1133 1181 l 985 1181 l 985 1033 b 903 938 985 961 961 938 z m 631 774 b 889 468 811 774 889 682 b 631 164 889 253 811 164 l 503 164 b 243 468 321 164 243 253 b 503 774 243 682 322 774 z "},"ơ":{"ha":1004,"x_min":0,"x_max":0,"o":"m 389 733 b 71 365 193 733 71 614 b 389 0 71 119 193 0 l 543 0 b 861 365 738 0 861 119 b 811 592 861 458 843 535 b 989 831 933 597 989 658 l 989 976 l 840 976 l 840 829 b 758 733 840 757 817 733 z m 529 592 b 713 365 656 592 713 525 b 529 143 713 208 656 143 l 403 143 b 219 365 275 143 219 208 b 403 592 219 525 275 592 z "},"Ư":{"ha":1201,"x_min":0,"x_max":0,"o":"m 107 938 l 107 299 b 410 0 107 101 210 0 l 607 0 b 911 299 807 0 911 101 l 911 796 l 1003 796 b 1201 1035 1140 796 1201 853 l 1201 1181 l 1053 1181 l 1053 1033 b 971 938 1053 961 1029 938 l 750 938 l 750 311 b 596 164 750 218 701 164 l 429 164 b 274 311 321 164 274 218 l 274 938 z "},"ư":{"ha":1164,"x_min":0,"x_max":0,"o":"m 101 733 l 101 289 b 419 0 101 119 210 0 l 556 0 b 874 289 765 0 874 119 l 874 592 l 965 592 b 1164 831 1103 592 1164 650 l 1164 976 l 1015 976 l 1015 829 b 933 733 1015 757 992 733 l 729 733 l 729 294 b 550 143 729 208 667 143 l 431 143 b 250 294 314 143 250 208 l 250 733 z "},"Ƴ":{"ha":1044,"x_min":0,"x_max":0,"o":"m 818 765 b 931 842 868 835 897 842 l 1044 842 l 1044 976 l 899 976 b 674 829 811 976 754 951 l 479 536 l 217 938 l 18 938 l 396 404 l 396 0 l 561 0 l 561 404 z "},"ƴ":{"ha":1063,"x_min":0,"x_max":0,"o":"m 846 667 b 957 747 878 739 917 747 l 1064 747 l 1064 882 l 925 882 b 696 697 825 882 761 850 l 467 157 l 447 157 b 403 188 419 157 413 161 l 182 733 l 26 733 l 272 117 b 410 26 297 53 326 26 l 272 -294 l 431 -294 z "},"Ǆ":{"ha":2056,"x_min":0,"x_max":0,"o":"m 192 938 b 114 861 139 938 114 913 l 114 76 b 192 0 114 25 139 0 l 522 0 b 944 468 797 0 944 153 b 522 938 944 785 796 938 z m 278 757 b 296 774 278 769 283 774 l 522 774 b 781 469 704 774 781 683 b 522 164 781 254 704 164 l 296 164 b 278 181 283 164 278 168 z m 1136 938 l 1136 774 l 1740 774 b 1811 713 1788 774 1811 749 b 1763 643 1811 681 1793 656 l 1254 425 b 1103 206 1153 382 1103 313 b 1329 0 1103 75 1179 0 l 1958 0 l 1958 164 l 1340 164 b 1271 225 1294 164 1271 189 b 1318 294 1271 257 1289 282 l 1829 513 b 1979 732 1929 556 1979 625 b 1751 938 1979 863 1901 938 z m 1268 1283 l 1393 1057 b 1544 985 1419 1007 1472 985 b 1696 1057 1617 985 1669 1006 l 1822 1283 l 1665 1283 l 1572 1111 b 1546 1099 1568 1101 1557 1099 b 1517 1111 1532 1099 1522 1103 l 1425 1283 z "},"ǅ":{"ha":1889,"x_min":0,"x_max":0,"o":"m 192 938 b 114 861 139 938 114 913 l 114 76 b 192 0 114 25 139 0 l 522 0 b 944 468 797 0 944 153 b 522 938 944 785 796 938 z m 278 757 b 296 774 278 769 283 774 l 522 774 b 781 469 704 774 781 683 b 522 164 781 254 704 164 l 296 164 b 278 181 283 164 278 168 z m 1121 733 l 1121 592 l 1624 592 b 1681 549 1663 592 1681 576 b 1642 497 1681 529 1672 508 l 1219 346 b 1094 168 1135 315 1094 250 b 1283 0 1094 67 1157 0 l 1806 0 l 1806 142 l 1292 142 b 1236 186 1254 142 1236 158 b 1275 236 1236 210 1250 226 l 1696 389 b 1821 565 1772 417 1821 475 b 1632 733 1821 667 1760 733 z m 1179 1079 l 1304 853 b 1456 781 1331 803 1383 781 b 1607 853 1528 781 1581 801 l 1733 1079 l 1576 1079 l 1483 907 b 1457 894 1479 897 1468 894 b 1428 907 1443 894 1433 899 l 1336 1079 z "},"ǆ":{"ha":1831,"x_min":0,"x_max":0,"o":"m 713 1051 l 713 733 l 389 733 b 71 367 193 733 71 614 b 389 0 71 119 193 0 l 592 0 b 861 314 767 0 861 103 l 861 1051 z m 549 143 l 403 143 b 219 367 276 143 219 208 b 403 592 219 525 276 592 l 713 592 l 713 321 b 549 143 713 196 667 143 z m 1063 733 l 1063 592 l 1565 592 b 1622 549 1604 592 1622 576 b 1583 497 1622 529 1614 508 l 1161 346 b 1036 168 1076 315 1036 250 b 1225 0 1036 67 1099 0 l 1747 0 l 1747 142 l 1233 142 b 1178 186 1196 142 1178 158 b 1217 236 1178 210 1192 226 l 1638 389 b 1763 565 1714 417 1763 475 b 1574 733 1763 667 1701 733 z m 1121 1079 l 1246 853 b 1397 781 1272 803 1325 781 b 1549 853 1469 781 1522 801 l 1675 1079 l 1518 1079 l 1425 907 b 1399 894 1421 897 1410 894 b 1369 907 1385 894 1375 899 l 1278 1079 z "},"ǝ":{"ha":906,"x_min":0,"x_max":0,"o":"m 575 0 b 831 242 758 0 831 103 l 831 492 b 575 733 831 631 758 733 l 126 733 l 126 590 l 575 590 b 688 489 656 590 688 547 l 688 436 l 339 436 b 90 225 158 436 90 360 b 338 0 90 83 164 0 z m 688 243 b 575 142 688 186 656 142 l 339 142 b 235 233 267 142 235 178 b 343 321 235 288 264 321 l 688 321 z "},"Ǧ":{"ha":1013,"x_min":0,"x_max":0,"o":"m 503 938 b 79 468 231 938 79 783 b 503 0 79 154 229 0 l 647 0 b 939 293 857 0 939 129 b 690 558 939 456 857 558 l 465 558 l 465 415 l 674 415 b 789 296 750 415 789 371 b 658 164 789 219 750 164 l 503 164 b 243 468 321 164 243 254 b 503 774 243 683 322 774 l 889 774 l 889 938 z m 282 1283 l 407 1057 b 558 985 433 1007 486 985 b 710 1057 631 985 683 1006 l 836 1283 l 679 1283 l 586 1111 b 560 1099 582 1101 571 1099 b 531 1111 546 1099 536 1103 l 439 1283 z "},"ǧ":{"ha":961,"x_min":0,"x_max":0,"o":"m 389 733 b 71 383 193 733 71 619 b 389 31 71 146 193 31 l 713 31 l 713 -3 b 567 -151 713 -108 676 -151 l 147 -151 l 147 -293 l 583 -293 b 861 -3 789 -293 861 -211 l 861 419 b 592 733 861 631 767 733 z m 219 378 b 403 592 219 528 276 592 l 549 592 b 713 421 667 592 713 540 l 713 164 l 403 164 b 219 378 276 164 219 228 z m 204 1079 l 329 853 b 481 781 356 803 408 781 b 632 853 553 781 606 801 l 758 1079 l 601 1079 l 508 907 b 482 894 504 897 493 894 b 453 907 468 894 458 899 l 361 1079 z "},"ǰ":{"ha":478,"x_min":0,"x_max":0,"o":"m -32 1079 l 93 853 b 244 781 119 803 172 781 b 396 853 317 781 369 801 l 522 1079 l 365 1079 l 272 907 b 246 894 268 897 257 894 b 217 907 232 894 222 899 l 125 1079 z m 175 733 l 175 -43 b 75 -153 175 -125 147 -153 l -21 -153 l -21 -294 l 108 -294 b 324 -42 258 -294 324 -233 l 324 733 z "},"Ǳ":{"ha":2056,"x_min":0,"x_max":0,"o":"m 192 938 b 114 861 139 938 114 913 l 114 76 b 192 0 114 25 139 0 l 522 0 b 944 468 797 0 944 153 b 522 938 944 785 796 938 z m 278 757 b 296 774 278 769 283 774 l 522 774 b 781 469 704 774 781 683 b 522 164 781 254 704 164 l 296 164 b 278 181 283 164 278 168 z m 1136 938 l 1136 774 l 1740 774 b 1811 713 1788 774 1811 749 b 1763 643 1811 681 1793 656 l 1254 425 b 1103 206 1153 382 1103 313 b 1329 0 1103 75 1179 0 l 1958 0 l 1958 164 l 1340 164 b 1271 225 1294 164 1271 189 b 1318 294 1271 257 1289 282 l 1829 513 b 1979 732 1929 556 1979 625 b 1751 938 1979 863 1901 938 z "},"ǲ":{"ha":1889,"x_min":0,"x_max":0,"o":"m 192 938 b 114 861 139 938 114 913 l 114 76 b 192 0 114 25 139 0 l 522 0 b 944 468 797 0 944 153 b 522 938 944 785 796 938 z m 278 757 b 296 774 278 769 283 774 l 522 774 b 781 469 704 774 781 683 b 522 164 781 254 704 164 l 296 164 b 278 181 283 164 278 168 z m 1121 733 l 1121 592 l 1624 592 b 1681 549 1663 592 1681 576 b 1642 497 1681 529 1672 508 l 1219 346 b 1094 168 1135 315 1094 250 b 1283 0 1094 67 1157 0 l 1806 0 l 1806 142 l 1292 142 b 1236 186 1254 142 1236 158 b 1275 236 1236 210 1250 226 l 1696 389 b 1821 565 1772 417 1821 475 b 1632 733 1821 667 1760 733 z "},"ǳ":{"ha":1831,"x_min":0,"x_max":0,"o":"m 713 1051 l 713 733 l 389 733 b 71 367 193 733 71 614 b 389 0 71 119 193 0 l 592 0 b 861 314 767 0 861 103 l 861 1051 z m 549 143 l 403 143 b 219 367 276 143 219 208 b 403 592 219 525 276 592 l 713 592 l 713 321 b 549 143 713 196 667 143 z m 1063 733 l 1063 592 l 1565 592 b 1622 549 1604 592 1622 576 b 1583 497 1622 529 1614 508 l 1161 346 b 1036 168 1076 315 1036 250 b 1225 0 1036 67 1099 0 l 1747 0 l 1747 142 l 1233 142 b 1178 186 1196 142 1178 158 b 1217 236 1178 210 1192 226 l 1638 389 b 1763 565 1714 417 1763 475 b 1574 733 1763 667 1701 733 z "},"Ǵ":{"ha":1013,"x_min":0,"x_max":0,"o":"m 503 938 b 79 468 231 938 79 783 b 503 0 79 154 229 0 l 647 0 b 939 293 857 0 939 129 b 690 558 939 456 857 558 l 465 558 l 465 415 l 674 415 b 789 296 750 415 789 371 b 658 164 789 219 750 164 l 503 164 b 243 468 321 164 243 254 b 503 774 243 683 322 774 l 889 774 l 889 938 z m 571 1283 l 415 985 l 561 985 l 735 1283 z "},"ǵ":{"ha":961,"x_min":0,"x_max":0,"o":"m 389 733 b 71 383 193 733 71 619 b 389 31 71 146 193 31 l 713 31 l 713 -3 b 567 -151 713 -108 676 -151 l 147 -151 l 147 -293 l 583 -293 b 861 -3 789 -293 861 -211 l 861 419 b 592 733 861 631 767 733 z m 219 378 b 403 592 219 528 276 592 l 549 592 b 713 421 667 592 713 540 l 713 164 l 403 164 b 219 378 276 164 219 228 z m 492 1079 l 336 781 l 482 781 l 656 1079 z "},"Ǹ":{"ha":1221,"x_min":0,"x_max":0,"o":"m 276 742 b 333 796 276 775 296 796 b 392 756 363 796 379 783 l 665 157 b 894 -17 704 50 764 -17 b 1110 189 1039 -17 1110 65 l 1110 938 l 944 938 l 944 196 b 889 143 944 164 924 143 b 829 182 858 143 840 160 l 556 781 b 328 954 517 888 458 954 b 113 750 182 954 113 872 l 113 0 l 276 0 z m 435 1283 l 607 985 l 754 985 l 599 1283 z "},"ǹ":{"ha":982,"x_min":0,"x_max":0,"o":"m 208 733 b 106 619 135 733 106 706 l 106 0 l 253 0 l 253 571 b 271 592 253 585 258 592 l 511 592 b 732 413 665 592 732 528 l 732 0 l 881 0 l 881 413 b 511 733 881 615 760 733 z m 313 1079 l 485 781 l 632 781 l 476 1079 z "},"Ș":{"ha":976,"x_min":0,"x_max":0,"o":"m 363 938 b 71 668 154 938 71 824 b 379 397 71 538 129 397 l 597 397 b 744 281 713 397 744 342 b 615 164 744 213 704 164 l 88 164 l 88 0 l 610 0 b 908 275 824 0 908 117 b 593 551 908 410 849 551 l 374 551 b 235 663 264 551 235 606 b 357 774 235 728 272 774 l 838 774 l 838 938 z m 422 -33 l 422 -197 b 371 -256 422 -237 407 -256 l 354 -256 l 354 -367 l 400 -367 b 569 -182 515 -367 569 -306 l 569 -33 z "},"ș":{"ha":814,"x_min":0,"x_max":0,"o":"m 310 733 b 71 519 139 733 71 651 b 324 306 71 407 121 306 l 497 306 b 601 224 571 306 601 282 b 506 143 601 167 574 143 l 79 143 l 79 0 l 506 0 b 746 222 678 0 746 92 b 492 429 746 336 694 429 l 319 429 b 215 508 238 429 215 457 b 311 592 215 564 243 592 l 717 592 l 717 733 z m 346 -33 l 346 -197 b 294 -256 346 -237 331 -256 l 278 -256 l 278 -367 l 324 -367 b 493 -182 439 -367 493 -306 l 493 -33 z "},"Ț":{"ha":793,"x_min":0,"x_max":0,"o":"m 40 938 l 40 774 l 314 774 l 314 0 l 479 0 l 479 774 l 753 774 l 753 938 z m 324 -33 l 324 -197 b 272 -256 324 -237 308 -256 l 256 -256 l 256 -367 l 301 -367 b 471 -182 417 -367 471 -306 l 471 -33 z "},"ț":{"ha":521,"x_min":0,"x_max":0,"o":"m 32 733 l 32 592 l 132 592 l 132 253 b 349 0 132 61 197 0 l 481 0 l 481 135 l 379 135 b 281 244 310 135 281 163 l 281 592 l 483 592 l 483 733 l 281 733 l 281 907 l 132 907 l 132 733 z m 214 -33 l 214 -197 b 163 -256 214 -237 199 -256 l 146 -256 l 146 -367 l 192 -367 b 361 -182 307 -367 361 -306 l 361 -33 z "},"ȷ":{"ha":375,"x_min":0,"x_max":0,"o":"m 121 733 l 121 -43 b 21 -153 121 -125 93 -153 l -75 -153 l -75 -294 l 54 -294 b 269 -42 204 -294 269 -233 l 269 733 z "},"Ɂ":{"ha":701,"x_min":0,"x_max":0,"o":"m 47 1051 l 47 910 l 381 910 b 499 807 464 910 499 869 b 396 700 499 747 467 700 l 333 700 b 165 524 207 700 165 638 l 165 0 l 314 0 l 314 493 b 393 572 314 540 332 572 l 424 572 b 646 813 579 572 646 682 b 382 1051 646 954 569 1051 z "},"ɂ":{"ha":701,"x_min":0,"x_max":0,"o":"m 47 733 l 47 592 l 381 592 b 499 490 464 592 499 551 b 396 383 499 429 467 383 l 333 383 b 165 207 207 383 165 321 l 165 0 l 314 0 l 314 175 b 393 256 314 224 332 256 l 424 256 b 646 496 579 256 646 365 b 382 733 646 638 569 733 z "},"Ɍ":{"ha":1065,"x_min":0,"x_max":0,"o":"m 185 938 l 185 774 l 699 774 b 829 650 789 774 829 717 b 699 519 829 583 792 519 l 11 519 l 11 363 l 186 363 l 186 0 l 350 0 l 350 363 l 618 363 l 832 0 l 1014 0 l 796 375 b 994 657 939 415 994 540 b 693 938 994 807 904 938 z "},"ɍ":{"ha":706,"x_min":0,"x_max":0,"o":"m 31 400 l 31 276 l 167 276 l 167 0 l 314 0 l 314 276 l 668 276 l 668 400 l 314 400 l 314 497 b 408 592 314 561 343 592 l 667 592 l 667 733 l 365 733 b 167 519 221 733 167 667 l 167 400 z "},"ɓ":{"ha":965,"x_min":0,"x_max":0,"o":"m 106 314 b 375 0 106 103 199 0 l 578 0 b 894 367 772 0 894 119 b 578 733 894 614 772 733 l 253 733 l 253 792 b 358 915 253 881 288 915 l 465 915 l 465 1050 l 326 1050 b 106 783 178 1050 106 981 z m 563 592 b 746 367 690 592 746 525 b 563 143 746 208 690 143 l 418 143 b 253 321 299 143 253 196 l 253 592 z "},"ɗ":{"ha":1072,"x_min":0,"x_max":0,"o":"m 713 733 l 389 733 b 71 367 193 733 71 614 b 389 0 71 119 193 0 l 592 0 b 861 314 767 0 861 103 l 861 793 b 965 917 861 882 894 917 l 1072 917 l 1072 1051 l 933 1051 b 713 785 785 1051 713 982 z m 549 143 l 403 143 b 219 367 276 143 219 208 b 403 592 219 525 276 592 l 713 592 l 713 321 b 549 143 713 196 667 143 z "},"ɣ":{"ha":940,"x_min":0,"x_max":0,"o":"m 25 733 l 396 164 b 240 -197 257 -69 240 -146 b 433 -367 240 -307 306 -367 l 504 -367 b 697 -196 633 -367 697 -307 b 542 165 697 -146 679 -67 l 914 733 l 740 733 l 469 286 l 199 733 z m 468 51 b 589 -196 565 -97 589 -154 b 496 -262 589 -237 564 -262 l 442 -262 b 347 -196 374 -262 347 -237 b 468 51 347 -153 374 -96 z "},"ɲ":{"ha":982,"x_min":0,"x_max":0,"o":"m 106 -43 b 4 -153 106 -125 76 -153 l -92 -153 l -92 -294 l 38 -294 b 253 -42 188 -294 253 -233 l 253 571 b 271 592 253 585 258 592 l 511 592 b 732 413 665 592 732 528 l 732 0 l 881 0 l 881 413 b 511 733 881 615 760 733 l 208 733 b 106 619 135 733 106 706 z "},"ˆ":{"ha":708,"x_min":0,"x_max":0,"o":"m 75 781 l 232 781 l 324 954 b 351 967 329 964 339 967 b 379 954 365 967 375 963 l 472 781 l 629 781 l 503 1008 b 353 1079 476 1058 425 1079 b 200 1008 279 1079 226 1060 z "},"ˇ":{"ha":708,"x_min":0,"x_max":0,"o":"m 75 1079 l 200 853 b 351 781 226 803 279 781 b 503 853 424 781 476 801 l 629 1079 l 472 1079 l 379 907 b 353 894 375 897 364 894 b 324 907 339 894 329 899 l 232 1079 z "},"˘":{"ha":719,"x_min":0,"x_max":0,"o":"m 75 1079 l 75 1000 b 358 781 75 839 136 781 b 640 1000 578 781 640 839 l 640 1079 l 515 1079 l 515 1001 b 358 882 515 914 485 882 b 199 1001 231 882 199 914 l 199 1079 z "},"˙":{"ha":303,"x_min":0,"x_max":0,"o":"m 75 1010 l 75 839 l 224 839 l 224 1010 z "},"˚":{"ha":532,"x_min":0,"x_max":0,"o":"m 214 1079 b 75 919 128 1079 75 1028 b 214 760 75 813 128 760 l 310 760 b 449 919 394 760 449 813 b 310 1079 449 1028 394 1079 z m 300 1008 b 371 919 349 1008 371 982 b 300 832 371 858 349 832 l 222 832 b 151 919 172 832 151 858 b 222 1008 151 982 172 1008 z "},"˛":{"ha":518,"x_min":0,"x_max":0,"o":"m 197 -47 b 75 -204 121 -78 75 -122 b 258 -367 75 -297 136 -367 l 435 -367 l 435 -228 l 304 -228 b 208 -144 243 -228 208 -194 b 275 -57 208 -100 235 -75 l 408 0 l 322 0 z "},"˜":{"ha":796,"x_min":0,"x_max":0,"o":"m 75 996 l 75 872 l 713 872 l 713 996 z "},"˝":{"ha":782,"x_min":0,"x_max":0,"o":"m 494 1079 l 339 781 l 485 781 l 658 1079 z m 190 1079 l 35 781 l 181 781 l 354 1079 z "},"̀":{"ha":31,"x_min":0,"x_max":0,"o":"m -675 1079 l -503 781 l -356 781 l -511 1079 z "},"́":{"ha":31,"x_min":0,"x_max":0,"o":"m -490 1079 l -646 781 l -500 781 l -326 1079 z "},"̂":{"ha":31,"x_min":0,"x_max":0,"o":"m -769 781 l -612 781 l -521 954 b -493 967 -515 964 -506 967 b -465 954 -479 967 -469 963 l -372 781 l -215 781 l -342 1008 b -492 1079 -368 1058 -419 1079 b -644 1008 -565 1079 -618 1060 z "},"̃":{"ha":31,"x_min":0,"x_max":0,"o":"m -815 996 l -815 872 l -178 872 l -178 996 z "},"̄":{"ha":31,"x_min":0,"x_max":0,"o":"m -808 996 l -808 872 l -171 872 l -171 996 z "},"̆":{"ha":31,"x_min":0,"x_max":0,"o":"m -774 1079 l -774 1000 b -490 781 -774 839 -712 781 b -208 1000 -271 781 -208 839 l -208 1079 l -333 1079 l -333 1001 b -490 882 -333 914 -364 882 b -650 1001 -618 882 -650 914 l -650 1079 z "},"̇":{"ha":31,"x_min":0,"x_max":0,"o":"m -575 1010 l -575 839 l -426 839 l -426 1010 z "},"̈":{"ha":31,"x_min":0,"x_max":0,"o":"m -736 1010 l -736 839 l -587 839 l -587 1010 z m -403 1010 l -403 839 l -254 839 l -254 1010 z "},"̉":{"ha":31,"x_min":0,"x_max":0,"o":"m -656 1258 l -656 1144 l -424 1144 b -335 1069 -361 1144 -335 1115 b -411 990 -335 1025 -358 990 l -447 990 b -589 842 -557 990 -589 944 l -589 781 l -486 781 l -486 818 b -418 886 -486 864 -472 886 l -389 886 b -215 1074 -268 886 -215 971 b -422 1258 -215 1185 -275 1258 z "},"̊":{"ha":31,"x_min":0,"x_max":0,"o":"m -543 1079 b -682 919 -629 1079 -682 1028 b -543 760 -682 813 -629 760 l -447 760 b -308 919 -362 760 -308 813 b -447 1079 -308 1028 -362 1079 z m -457 1008 b -386 919 -408 1008 -386 982 b -457 832 -386 858 -408 832 l -535 832 b -606 919 -585 832 -606 858 b -535 1008 -606 982 -585 1008 z "},"̋":{"ha":31,"x_min":0,"x_max":0,"o":"m -321 1079 l -476 781 l -331 781 l -157 1079 z m -625 1079 l -781 781 l -635 781 l -461 1079 z "},"̌":{"ha":31,"x_min":0,"x_max":0,"o":"m -769 1079 l -644 853 b -493 781 -618 803 -565 781 b -342 853 -421 781 -368 801 l -215 1079 l -372 1079 l -465 907 b -492 894 -469 897 -481 894 b -521 907 -506 894 -515 899 l -612 1079 z "},"̓":{"ha":31,"x_min":0,"x_max":0,"o":"m -400 1167 b -581 971 -524 1167 -581 1103 l -581 781 l -422 781 l -422 988 b -368 1047 -422 1029 -406 1047 l -340 1047 l -340 1167 z "},"̛":{"ha":213,"x_min":0,"x_max":0,"o":"m 64 976 l 64 829 b -18 733 64 757 40 733 l -222 733 l -222 592 l 14 592 b 213 831 151 592 213 650 l 213 976 z "},"̣":{"ha":31,"x_min":0,"x_max":0,"o":"m -571 -106 l -571 -276 l -422 -276 l -422 -106 z "},"̦":{"ha":31,"x_min":0,"x_max":0,"o":"m -556 -33 l -556 -197 b -607 -256 -556 -237 -571 -256 l -624 -256 l -624 -367 l -578 -367 b -408 -182 -462 -367 -408 -306 l -408 -33 z "},"̨":{"ha":31,"x_min":0,"x_max":0,"o":"m -614 -47 b -736 -204 -690 -78 -736 -122 b -553 -367 -736 -297 -675 -367 l -376 -367 l -376 -228 l -507 -228 b -603 -144 -568 -228 -603 -194 b -536 -57 -603 -100 -576 -75 l -403 0 l -489 0 z "},"̭":{"ha":31,"x_min":0,"x_max":0,"o":"m -776 -367 l -619 -367 l -528 -193 b -500 -181 -522 -183 -512 -181 b -472 -193 -486 -181 -476 -185 l -379 -367 l -222 -367 l -349 -139 b -499 -68 -375 -89 -426 -68 b -651 -139 -572 -68 -625 -87 z "},"΄":{"ha":333,"x_min":0,"x_max":0,"o":"m 103 1079 l 35 781 l 167 781 l 250 1079 z "},"΅":{"ha":740,"x_min":0,"x_max":0,"o":"m 331 1079 l 263 781 l 394 781 l 478 1079 z m 531 1010 l 531 839 l 679 839 l 679 1010 z m 61 1010 l 61 839 l 210 839 l 210 1010 z "},"Ά":{"ha":1149,"x_min":0,"x_max":0,"o":"m 942 0 l 1124 0 l 807 833 b 613 954 776 922 710 954 b 415 833 514 954 447 922 l 86 0 l 267 0 l 343 193 l 868 193 z m 564 754 b 611 786 574 776 589 786 b 657 754 633 786 649 776 l 810 349 l 404 349 z m 151 1079 l 83 781 l 215 781 l 299 1079 z "},"·":{"ha":336,"x_min":0,"x_max":0,"o":"m 89 539 l 89 350 l 247 350 l 247 539 z "},"Έ":{"ha":1107,"x_min":0,"x_max":0,"o":"m 536 938 b 222 682 315 938 222 832 b 354 471 222 579 267 507 b 219 256 268 435 219 363 b 532 0 219 110 310 0 l 1007 0 l 1007 164 l 532 164 b 390 282 436 164 390 208 b 533 396 390 358 439 396 l 999 396 l 999 544 l 538 544 b 394 656 443 544 394 579 b 536 774 394 728 438 774 l 1006 774 l 1006 938 z m 103 1079 l 35 781 l 167 781 l 250 1079 z "},"Ή":{"ha":1211,"x_min":0,"x_max":0,"o":"m 290 938 l 290 0 l 454 0 l 454 392 l 933 392 l 933 0 l 1099 0 l 1099 938 l 933 938 l 933 556 l 454 556 l 454 938 z m 103 1079 l 35 781 l 167 781 l 250 1079 z "},"Ί":{"ha":565,"x_min":0,"x_max":0,"o":"m 289 938 l 289 0 l 453 0 l 453 938 z m 103 1079 l 35 781 l 167 781 l 250 1079 z "},"Ό":{"ha":1226,"x_min":0,"x_max":0,"o":"m 596 938 b 172 467 324 938 172 782 b 596 0 172 153 322 0 l 724 0 b 1147 467 997 0 1147 153 b 724 938 1147 782 996 938 z m 724 774 b 982 468 904 774 982 682 b 724 164 982 253 904 164 l 596 164 b 336 467 414 164 336 253 b 596 774 336 682 415 774 z m 103 1079 l 35 781 l 167 781 l 250 1079 z "},"Ύ":{"ha":1217,"x_min":0,"x_max":0,"o":"m 278 938 l 656 404 l 656 0 l 821 0 l 821 404 l 1199 938 l 1004 938 l 739 536 l 476 938 z m 103 1079 l 35 781 l 167 781 l 250 1079 z "},"Ώ":{"ha":1228,"x_min":0,"x_max":0,"o":"m 554 938 b 194 608 332 938 194 828 b 339 325 194 476 246 388 l 461 232 b 489 192 479 218 489 206 b 453 164 489 175 479 164 l 164 164 l 164 0 l 428 0 b 614 165 568 0 614 64 b 539 326 614 236 592 292 l 440 408 b 360 578 386 450 360 497 b 567 774 360 704 424 774 l 785 774 b 992 578 928 774 992 704 b 913 408 992 497 965 450 l 813 326 b 738 165 760 292 738 236 b 924 0 738 64 783 0 l 1189 0 l 1189 164 l 900 164 b 863 192 872 164 863 175 b 890 232 863 206 872 218 l 1013 325 b 1157 608 1106 388 1157 476 b 797 938 1157 828 1019 938 z m 103 1079 l 35 781 l 167 781 l 250 1079 z "},"ΐ":{"ha":626,"x_min":0,"x_max":0,"o":"m 181 733 l 181 253 b 394 0 181 61 246 0 l 529 0 l 529 135 l 426 135 b 328 244 357 135 328 164 l 328 733 z m 253 1079 l 185 781 l 317 781 l 400 1079 z m 453 1010 l 453 839 l 601 839 l 601 1010 z m -17 1010 l -17 839 l 132 839 l 132 1010 z "},"Α":{"ha":1089,"x_min":0,"x_max":0,"o":"m 882 0 l 1064 0 l 747 833 b 553 954 717 922 650 954 b 356 833 454 954 388 922 l 26 0 l 207 0 l 283 193 l 808 193 z m 504 754 b 551 786 514 776 529 786 b 597 754 574 786 589 776 l 750 349 l 344 349 z "},"Β":{"ha":999,"x_min":0,"x_max":0,"o":"m 192 938 b 114 861 139 938 114 913 l 114 76 b 192 0 114 25 139 0 l 608 0 b 922 258 829 0 922 108 b 783 472 922 367 872 436 b 918 681 871 507 918 572 b 604 938 918 833 825 938 z m 275 406 l 613 406 b 757 285 708 406 757 364 b 613 163 757 208 711 163 l 293 163 b 275 178 282 163 275 167 z m 275 760 b 293 776 275 771 282 776 l 610 776 b 753 654 710 776 753 728 b 608 542 753 578 706 542 l 275 542 z "},"Γ":{"ha":864,"x_min":0,"x_max":0,"o":"m 450 938 b 104 614 201 938 104 801 l 104 0 l 268 0 l 268 613 b 460 774 268 703 313 774 l 824 774 l 824 938 z "},"Δ":{"ha":1089,"x_min":0,"x_max":0,"o":"m 500 754 b 547 786 510 776 524 786 b 596 754 571 786 586 776 l 829 186 b 814 164 835 172 828 164 l 281 164 b 265 186 267 164 263 172 z m 50 76 b 106 0 35 35 51 0 l 990 0 b 1044 76 1044 0 1061 35 l 744 833 b 547 954 713 922 646 954 b 350 833 450 954 383 922 z "},"Ε":{"ha":963,"x_min":0,"x_max":0,"o":"m 393 938 b 79 682 172 938 79 832 b 211 471 79 579 124 507 b 76 256 125 435 76 363 b 389 0 76 110 167 0 l 864 0 l 864 164 l 389 164 b 247 282 293 164 247 208 b 390 396 247 358 296 396 l 856 396 l 856 544 l 394 544 b 251 656 300 544 251 579 b 393 774 251 728 294 774 l 863 774 l 863 938 z "},"Ζ":{"ha":1032,"x_min":0,"x_max":0,"o":"m 113 938 l 113 774 l 717 774 b 788 713 764 774 788 749 b 739 643 788 681 769 656 l 231 425 b 79 206 129 382 79 313 b 306 0 79 75 156 0 l 935 0 l 935 164 l 317 164 b 247 225 271 164 247 189 b 294 294 247 257 265 282 l 806 513 b 956 732 906 556 956 625 b 728 938 956 863 878 938 z "},"Η":{"ha":1035,"x_min":0,"x_max":0,"o":"m 114 938 l 114 0 l 278 0 l 278 392 l 757 392 l 757 0 l 922 0 l 922 938 l 757 938 l 757 556 l 278 556 l 278 938 z "},"Θ":{"ha":1133,"x_min":0,"x_max":0,"o":"m 368 544 l 368 396 l 764 396 l 764 544 z m 503 938 b 79 467 231 938 79 782 b 503 0 79 153 229 0 l 631 0 b 1054 467 904 0 1054 153 b 631 938 1054 782 903 938 z m 631 774 b 889 468 811 774 889 682 b 631 164 889 253 811 164 l 503 164 b 243 468 321 164 243 253 b 503 774 243 682 322 774 z "},"Ι":{"ha":390,"x_min":0,"x_max":0,"o":"m 114 938 l 114 0 l 278 0 l 278 938 z "},"Κ":{"ha":983,"x_min":0,"x_max":0,"o":"m 114 938 l 114 0 l 278 0 l 278 392 l 368 392 b 629 278 544 392 578 378 l 772 0 l 956 0 l 804 294 b 618 475 749 403 706 451 b 781 646 694 508 739 563 l 928 938 l 751 938 l 608 657 b 368 540 556 554 529 540 l 278 540 l 278 938 z "},"Λ":{"ha":1089,"x_min":0,"x_max":0,"o":"m 504 754 b 551 786 514 776 529 786 b 597 754 574 786 589 776 l 882 0 l 1064 0 l 747 833 b 553 954 714 921 650 954 b 356 833 454 954 390 921 l 26 0 l 207 0 z "},"Μ":{"ha":1531,"x_min":0,"x_max":0,"o":"m 275 736 b 342 796 275 772 299 796 b 407 746 379 796 400 776 l 540 172 b 767 -17 568 51 636 -17 b 989 172 896 -17 960 49 l 1124 746 b 1189 796 1131 776 1150 796 b 1256 736 1232 796 1256 772 l 1256 0 l 1418 0 l 1418 744 b 1193 954 1418 869 1344 954 b 963 769 1058 954 989 888 l 831 196 b 768 143 822 163 803 143 b 706 196 733 143 714 163 l 574 769 b 338 954 547 888 471 954 b 113 744 186 954 113 869 l 113 0 l 275 0 z "},"Ν":{"ha":1221,"x_min":0,"x_max":0,"o":"m 276 742 b 333 796 276 775 296 796 b 392 756 363 796 379 783 l 665 157 b 894 -17 704 50 764 -17 b 1110 189 1039 -17 1110 65 l 1110 938 l 944 938 l 944 196 b 889 143 944 164 924 143 b 829 182 858 143 840 160 l 556 781 b 328 954 517 888 458 954 b 113 750 182 954 113 872 l 113 0 l 276 0 z "},"Ξ":{"ha":940,"x_min":0,"x_max":0,"o":"m 100 164 l 100 0 l 840 0 l 840 164 z m 101 938 l 101 774 l 839 774 l 839 938 z m 108 544 l 108 396 l 832 396 l 832 544 z "},"Ο":{"ha":1133,"x_min":0,"x_max":0,"o":"m 503 938 b 79 467 231 938 79 782 b 503 0 79 153 229 0 l 631 0 b 1054 467 904 0 1054 153 b 631 938 1054 782 903 938 z m 631 774 b 889 468 811 774 889 682 b 631 164 889 253 811 164 l 503 164 b 243 467 321 164 243 253 b 503 774 243 682 322 774 z "},"Π":{"ha":1035,"x_min":0,"x_max":0,"o":"m 192 938 b 114 861 139 938 114 913 l 114 0 l 278 0 l 278 757 b 296 774 278 769 283 774 l 740 774 b 757 757 751 774 757 769 l 757 0 l 922 0 l 922 861 b 843 938 922 913 896 938 z "},"Ρ":{"ha":943,"x_min":0,"x_max":0,"o":"m 111 938 l 111 774 l 599 774 b 728 649 688 774 728 717 b 597 519 728 583 690 519 l 260 519 b 113 371 157 519 113 476 l 113 0 l 276 0 l 276 339 b 300 363 276 356 285 363 l 592 363 b 893 657 811 363 893 515 b 592 938 893 807 803 938 z "},"Σ":{"ha":942,"x_min":0,"x_max":0,"o":"m 278 938 b 76 746 132 938 76 867 b 231 558 76 663 104 599 l 469 468 l 231 379 b 76 192 104 339 76 275 b 278 0 76 71 132 0 l 858 0 l 858 164 l 303 164 b 249 214 264 164 249 183 b 293 265 249 236 263 253 l 626 386 b 701 469 685 403 701 431 b 626 551 701 507 685 535 l 293 672 b 249 724 263 685 249 701 b 303 774 249 754 264 774 l 858 774 l 858 938 z "},"Τ":{"ha":793,"x_min":0,"x_max":0,"o":"m 40 938 l 40 774 l 314 774 l 314 0 l 479 0 l 479 774 l 753 774 l 753 938 z "},"Υ":{"ha":957,"x_min":0,"x_max":0,"o":"m 18 938 l 396 404 l 396 0 l 561 0 l 561 404 l 939 938 l 744 938 l 479 536 l 217 938 z "},"Φ":{"ha":1181,"x_min":0,"x_max":0,"o":"m 457 832 b 79 467 214 832 79 718 b 457 107 79 217 213 107 l 508 107 l 508 0 l 672 0 l 672 107 l 725 107 b 1101 467 968 107 1101 217 b 725 832 1101 718 967 832 l 672 832 l 672 938 l 508 938 l 508 832 z m 725 657 b 938 468 871 657 938 603 b 725 282 938 333 872 282 l 672 282 l 672 657 z m 457 282 b 243 468 308 282 243 333 b 457 657 243 603 310 657 l 508 657 l 508 282 z "},"Χ":{"ha":1085,"x_min":0,"x_max":0,"o":"m 65 938 l 446 489 l 26 0 l 229 0 l 549 372 l 860 0 l 1060 0 l 656 476 l 1057 938 l 854 938 l 553 592 l 265 938 z "},"Ψ":{"ha":1190,"x_min":0,"x_max":0,"o":"m 513 938 l 513 374 l 439 374 b 269 536 324 374 269 432 l 269 938 l 103 938 l 103 531 b 421 218 103 325 211 218 l 513 218 l 513 0 l 676 0 l 676 218 l 769 218 b 1088 531 978 218 1088 325 l 1088 938 l 926 938 l 926 536 b 757 374 926 432 872 374 l 676 374 l 676 938 z "},"Ω":{"ha":1104,"x_min":0,"x_max":0,"o":"m 431 938 b 71 608 208 938 71 828 b 215 325 71 476 122 388 l 338 232 b 365 192 356 218 365 206 b 329 164 365 175 356 164 l 40 164 l 40 0 l 304 0 b 490 165 444 0 490 64 b 415 326 490 236 468 292 l 317 408 b 236 578 263 450 236 497 b 443 774 236 704 300 774 l 661 774 b 868 578 804 774 868 704 b 789 408 868 497 842 450 l 689 326 b 614 165 636 292 614 236 b 800 0 614 64 660 0 l 1065 0 l 1065 164 l 776 164 b 739 192 749 164 739 175 b 767 232 739 206 749 218 l 889 325 b 1033 608 982 388 1033 476 b 674 938 1033 828 896 938 z "},"Ϊ":{"ha":408,"x_min":0,"x_max":0,"o":"m 128 938 l 128 0 l 292 0 l 292 938 z m -36 1214 l -36 1043 l 113 1043 l 113 1214 z m 297 1214 l 297 1043 l 446 1043 l 446 1214 z "},"Ϋ":{"ha":957,"x_min":0,"x_max":0,"o":"m 18 938 l 396 404 l 396 0 l 561 0 l 561 404 l 939 938 l 744 938 l 479 536 l 217 938 z m 236 1214 l 236 1043 l 385 1043 l 385 1214 z m 569 1214 l 569 1043 l 718 1043 l 718 1214 z "},"ά":{"ha":1024,"x_min":0,"x_max":0,"o":"m 389 733 b 71 367 193 733 71 615 b 389 0 71 119 193 0 l 475 0 b 765 158 625 0 708 54 l 822 0 l 976 0 l 847 367 l 976 733 l 822 733 l 765 575 b 475 733 708 679 625 733 z m 461 143 l 403 143 b 219 367 275 143 219 208 b 403 592 219 525 275 592 l 461 592 b 671 419 588 592 625 550 l 689 367 l 671 314 b 461 143 625 183 588 143 z m 438 1079 l 369 781 l 501 781 l 585 1079 z "},"έ":{"ha":878,"x_min":0,"x_max":0,"o":"m 440 1079 l 372 781 l 504 781 l 588 1079 z m 338 733 b 83 539 151 733 83 649 b 183 367 83 453 115 397 b 81 196 115 338 81 283 b 333 0 81 88 147 0 l 788 0 l 788 142 l 343 142 b 232 228 258 142 232 172 b 344 313 232 285 260 313 l 618 313 l 618 422 l 347 422 b 235 507 263 422 235 450 b 347 593 235 560 261 593 l 788 593 l 788 733 z "},"ή":{"ha":982,"x_min":0,"x_max":0,"o":"m 208 733 b 106 619 135 733 106 706 l 106 0 l 253 0 l 253 571 b 271 592 253 585 258 592 l 511 592 b 732 413 665 592 732 528 l 732 -294 l 881 -294 l 881 413 b 511 733 881 615 760 733 z m 443 1079 l 375 781 l 507 781 l 590 1079 z "},"ί":{"ha":490,"x_min":0,"x_max":0,"o":"m 101 733 l 101 253 b 315 0 101 61 167 0 l 450 0 l 450 135 l 347 135 b 249 244 278 135 249 164 l 249 733 z m 185 1079 l 117 781 l 249 781 l 332 1079 z "},"ΰ":{"ha":975,"x_min":0,"x_max":0,"o":"m 101 733 l 101 289 b 419 0 101 119 210 0 l 556 0 b 874 289 765 0 874 119 l 874 733 l 729 733 l 729 294 b 550 143 729 208 667 143 l 431 143 b 250 294 314 143 250 208 l 250 733 z m 447 1079 l 379 781 l 511 781 l 594 1079 z m 647 1010 l 647 839 l 796 839 l 796 1010 z m 178 1010 l 178 839 l 326 839 l 326 1010 z "},"α":{"ha":1024,"x_min":0,"x_max":0,"o":"m 389 733 b 71 367 193 733 71 615 b 389 0 71 119 193 0 l 475 0 b 765 158 625 0 708 54 l 822 0 l 976 0 l 847 367 l 976 733 l 822 733 l 765 575 b 475 733 708 679 625 733 z m 461 143 l 403 143 b 219 367 275 143 219 208 b 403 592 219 525 275 592 l 461 592 b 671 419 588 592 625 550 l 689 367 l 671 314 b 461 143 625 183 588 143 z "},"β":{"ha":922,"x_min":0,"x_max":0,"o":"m 342 1051 b 106 775 178 1051 106 985 l 106 -294 l 253 -294 l 253 0 l 513 0 b 829 321 707 0 829 99 b 689 565 829 458 783 532 b 804 792 769 607 804 686 b 554 1051 804 950 733 1051 z m 253 783 b 374 917 253 883 288 917 l 539 917 b 656 761 621 917 656 868 b 533 626 656 668 621 626 l 403 626 l 403 496 l 531 496 b 681 343 639 496 681 453 b 488 143 681 203 619 143 l 253 143 z "},"γ":{"ha":940,"x_min":0,"x_max":0,"o":"m 26 733 l 396 -25 l 396 -294 l 544 -294 l 544 -25 l 914 733 l 756 733 l 469 121 l 183 733 z "},"δ":{"ha":888,"x_min":0,"x_max":0,"o":"m 375 1051 b 147 833 213 1051 147 958 b 236 651 147 760 169 690 b 71 347 138 600 71 508 b 389 0 71 131 193 0 l 500 0 b 817 386 711 0 817 118 b 546 733 817 615 739 733 l 385 733 b 292 821 315 733 292 775 b 376 910 292 867 317 910 l 760 910 l 760 1051 z m 390 618 l 521 618 b 668 394 632 618 668 551 b 485 143 668 208 618 143 l 403 143 b 219 367 276 143 219 238 b 346 619 219 492 265 567 b 390 618 360 618 375 618 z "},"ε":{"ha":878,"x_min":0,"x_max":0,"o":"m 338 733 b 83 539 151 733 83 649 b 183 367 83 453 115 397 b 81 196 115 338 81 283 b 333 0 81 88 147 0 l 788 0 l 788 142 l 343 142 b 232 228 258 142 232 172 b 344 313 232 285 260 313 l 618 313 l 618 422 l 347 422 b 235 507 263 422 235 450 b 347 593 235 560 261 593 l 788 593 l 788 733 z "},"ζ":{"ha":835,"x_min":0,"x_max":0,"o":"m 81 1051 l 81 910 l 600 910 b 642 874 628 910 642 897 b 614 829 642 857 633 843 l 250 581 b 71 303 103 482 71 411 b 389 0 71 92 193 0 l 551 0 b 613 -61 599 0 613 -19 l 613 -294 l 761 -294 l 761 -19 b 590 143 761 93 703 143 l 397 143 b 219 297 276 143 219 192 b 331 472 219 369 243 410 l 690 726 b 782 889 753 771 782 819 b 608 1051 782 989 724 1051 z "},"η":{"ha":982,"x_min":0,"x_max":0,"o":"m 208 733 b 106 619 135 733 106 706 l 106 0 l 253 0 l 253 571 b 271 592 253 585 258 592 l 511 592 b 732 413 665 592 732 528 l 732 -294 l 881 -294 l 881 413 b 511 733 881 615 760 733 z "},"θ":{"ha":992,"x_min":0,"x_max":0,"o":"m 418 1051 b 101 685 224 1051 101 931 l 101 365 b 418 0 101 119 224 0 l 574 0 b 890 365 768 0 890 119 l 890 685 b 574 1051 890 931 768 1051 z m 249 464 l 742 464 l 742 365 b 558 143 742 208 686 143 l 433 143 b 249 365 306 143 249 208 z m 249 685 b 433 908 249 842 306 908 l 558 908 b 742 685 686 908 742 842 l 742 597 l 249 597 z "},"ι":{"ha":490,"x_min":0,"x_max":0,"o":"m 101 733 l 101 253 b 315 0 101 61 167 0 l 450 0 l 450 135 l 347 135 b 249 244 278 135 249 164 l 249 733 z "},"κ":{"ha":836,"x_min":0,"x_max":0,"o":"m 106 733 l 106 0 l 253 0 l 253 306 l 321 306 b 522 217 450 306 474 290 l 644 0 l 810 0 l 678 231 b 528 372 631 311 596 353 b 658 503 588 397 621 440 l 786 733 l 626 733 l 504 513 b 321 429 454 439 438 429 l 253 429 l 253 733 z "},"λ":{"ha":899,"x_min":0,"x_max":0,"o":"m 261 1051 l 408 708 l 404 708 b 272 619 326 708 296 683 l 26 0 l 182 0 l 403 547 b 447 578 411 569 422 578 l 465 578 l 715 0 l 872 0 l 419 1051 z "},"μ":{"ha":1063,"x_min":0,"x_max":0,"o":"m 106 733 l 106 -294 l 253 -294 l 253 0 l 490 0 b 718 65 600 0 672 24 b 890 0 753 17 808 0 l 1025 0 l 1025 135 l 922 135 b 825 244 853 135 825 164 l 825 733 l 676 733 l 676 253 b 678 217 676 240 676 228 b 492 143 658 161 607 143 l 253 143 l 253 733 z "},"ν":{"ha":940,"x_min":0,"x_max":0,"o":"m 26 733 l 296 79 b 463 -17 324 11 378 -17 b 631 79 546 -17 600 10 l 914 733 l 756 733 l 501 144 b 463 122 494 129 482 122 b 426 144 444 122 432 129 l 182 733 z "},"ξ":{"ha":814,"x_min":0,"x_max":0,"o":"m 371 1051 b 103 807 178 1051 103 964 b 221 589 103 693 142 624 b 71 322 128 553 71 472 b 389 0 71 121 176 0 l 551 0 b 613 -61 599 0 613 -19 l 613 -294 l 761 -294 l 761 -19 b 590 143 761 93 703 143 l 403 143 b 219 340 281 143 219 208 b 397 524 219 476 275 524 l 694 524 l 694 644 l 385 644 b 253 778 286 644 253 690 b 393 910 253 867 286 910 l 699 910 l 699 1051 z "},"ο":{"ha":932,"x_min":0,"x_max":0,"o":"m 389 733 b 71 367 193 733 71 614 b 389 0 71 119 193 0 l 543 0 b 861 367 738 0 861 119 b 543 733 861 614 738 733 z m 529 592 b 713 367 656 592 713 525 b 529 143 713 208 656 143 l 403 143 b 219 367 275 143 219 208 b 403 592 219 525 275 592 z "},"π":{"ha":1051,"x_min":0,"x_max":0,"o":"m 32 733 l 32 592 l 188 592 l 188 0 l 336 0 l 336 592 l 668 592 l 668 253 b 882 0 668 61 733 0 l 1017 0 l 1017 135 l 914 135 b 817 244 846 135 817 164 l 817 592 l 1014 592 l 1014 733 z "},"ρ":{"ha":963,"x_min":0,"x_max":0,"o":"m 372 733 b 103 419 196 733 103 631 l 103 -294 l 250 -294 l 250 0 l 575 0 b 892 367 769 0 892 119 b 575 733 892 614 769 733 z m 250 413 b 415 592 250 539 296 592 l 560 592 b 743 367 688 592 743 525 b 560 143 743 208 688 143 l 250 143 z "},"ς":{"ha":819,"x_min":0,"x_max":0,"o":"m 389 733 b 71 367 193 733 71 613 b 389 0 71 121 193 0 l 551 0 b 613 -61 599 0 613 -19 l 613 -294 l 761 -294 l 761 -19 b 590 143 761 93 703 143 l 403 143 b 219 369 279 143 219 213 b 403 592 219 524 275 592 l 735 592 l 735 733 z "},"σ":{"ha":1000,"x_min":0,"x_max":0,"o":"m 389 733 b 71 367 193 733 71 614 b 389 0 71 119 193 0 l 526 0 b 844 364 722 0 844 121 b 783 592 844 474 818 544 l 947 592 l 947 733 z m 696 363 b 513 143 696 210 639 143 l 403 143 b 219 367 275 143 219 208 b 403 592 219 525 275 592 l 635 592 b 696 363 669 544 696 475 z "},"τ":{"ha":826,"x_min":0,"x_max":0,"o":"m 40 733 l 40 592 l 329 592 l 329 253 b 543 0 329 61 394 0 l 678 0 l 678 135 l 575 135 b 478 244 506 135 478 164 l 478 592 l 775 592 l 775 733 z "},"υ":{"ha":975,"x_min":0,"x_max":0,"o":"m 101 733 l 101 289 b 419 0 101 119 210 0 l 556 0 b 874 289 765 0 874 119 l 874 733 l 729 733 l 729 294 b 550 143 729 208 667 143 l 431 143 b 250 294 314 143 250 208 l 250 733 z "},"φ":{"ha":1115,"x_min":0,"x_max":0,"o":"m 483 1018 l 483 733 l 389 733 b 71 365 193 733 71 614 b 389 0 71 119 193 0 l 483 0 l 483 -285 l 632 -285 l 632 0 l 728 0 b 1044 365 922 0 1044 119 b 728 733 1044 614 922 733 l 632 733 l 632 1018 z m 713 592 b 896 365 840 592 896 525 b 713 143 896 208 840 143 l 632 143 l 632 592 z m 403 143 b 219 365 275 143 219 208 b 403 592 219 525 275 592 l 483 592 l 483 143 z "},"χ":{"ha":925,"x_min":0,"x_max":0,"o":"m 50 733 l 374 240 l 26 -294 l 196 -294 l 463 104 l 725 -294 l 899 -294 l 558 222 l 894 733 l 724 733 l 469 358 l 224 733 z "},"ψ":{"ha":1106,"x_min":0,"x_max":0,"o":"m 472 879 l 472 143 l 431 143 b 250 294 314 143 250 208 l 250 733 l 101 733 l 101 289 b 419 0 101 119 210 0 l 472 0 l 472 -294 l 619 -294 l 619 0 l 686 0 b 1004 289 896 0 1004 119 l 1004 733 l 858 733 l 858 294 b 681 143 858 208 797 143 l 619 143 l 619 879 z "},"ω":{"ha":1307,"x_min":0,"x_max":0,"o":"m 101 733 l 101 289 b 368 0 101 119 201 0 l 446 0 b 653 114 549 0 615 42 b 861 0 689 42 757 0 l 938 0 b 1206 289 1104 0 1206 119 l 1206 733 l 1056 733 l 1056 282 b 924 143 1056 203 1015 143 l 856 143 b 728 282 763 143 728 203 l 728 560 l 578 560 l 578 282 b 450 143 578 203 544 143 l 383 143 b 250 282 290 143 250 203 l 250 733 z "},"ϊ":{"ha":533,"x_min":0,"x_max":0,"o":"m 146 733 l 146 253 b 360 0 146 61 211 0 l 494 0 l 494 135 l 392 135 b 293 244 322 135 293 164 l 293 733 z m -17 1010 l -17 839 l 132 839 l 132 1010 z m 317 1010 l 317 839 l 465 839 l 465 1010 z "},"ϋ":{"ha":975,"x_min":0,"x_max":0,"o":"m 101 733 l 101 289 b 419 0 101 119 210 0 l 556 0 b 874 289 765 0 874 119 l 874 733 l 729 733 l 729 294 b 550 143 729 208 667 143 l 431 143 b 250 294 314 143 250 208 l 250 733 z m 246 1010 l 246 839 l 394 839 l 394 1010 z m 579 1010 l 579 839 l 728 839 l 728 1010 z "},"ό":{"ha":932,"x_min":0,"x_max":0,"o":"m 389 733 b 71 367 193 733 71 614 b 389 0 71 119 193 0 l 543 0 b 861 367 738 0 861 119 b 543 733 861 614 738 733 z m 529 592 b 713 367 656 592 713 525 b 529 143 713 208 656 143 l 403 143 b 219 367 275 143 219 208 b 403 592 219 525 275 592 z m 442 1079 l 374 781 l 506 781 l 589 1079 z "},"ύ":{"ha":975,"x_min":0,"x_max":0,"o":"m 101 733 l 101 289 b 419 0 101 119 210 0 l 556 0 b 874 289 765 0 874 119 l 874 733 l 729 733 l 729 294 b 550 143 729 208 667 143 l 431 143 b 250 294 314 143 250 208 l 250 733 z m 476 1079 l 408 781 l 540 781 l 624 1079 z "},"ώ":{"ha":1307,"x_min":0,"x_max":0,"o":"m 101 733 l 101 289 b 368 0 101 119 201 0 l 446 0 b 653 114 549 0 615 42 b 861 0 689 42 757 0 l 938 0 b 1206 289 1104 0 1206 119 l 1206 733 l 1056 733 l 1056 282 b 924 143 1056 203 1015 143 l 856 143 b 728 282 763 143 728 203 l 728 560 l 578 560 l 578 282 b 450 143 578 203 544 143 l 383 143 b 250 282 290 143 250 203 l 250 733 z m 635 1079 l 567 781 l 699 781 l 782 1079 z "},"Ѐ":{"ha":963,"x_min":0,"x_max":0,"o":"m 393 938 b 79 682 172 938 79 832 b 211 471 79 579 124 507 b 76 256 125 435 76 363 b 389 0 76 110 167 0 l 864 0 l 864 164 l 389 164 b 247 282 293 164 247 208 b 390 396 247 358 296 396 l 856 396 l 856 544 l 394 544 b 251 656 300 544 251 579 b 393 774 251 728 294 774 l 863 774 l 863 938 z m 354 1283 l 526 985 l 674 985 l 518 1283 z "},"Ё":{"ha":963,"x_min":0,"x_max":0,"o":"m 393 938 b 79 682 172 938 79 832 b 211 471 79 579 124 507 b 76 256 125 435 76 363 b 389 0 76 110 167 0 l 864 0 l 864 164 l 389 164 b 247 282 293 164 247 208 b 390 396 247 358 296 396 l 856 396 l 856 544 l 394 544 b 251 656 300 544 251 579 b 393 774 251 728 294 774 l 863 774 l 863 938 z m 288 1214 l 288 1043 l 436 1043 l 436 1214 z m 621 1214 l 621 1043 l 769 1043 l 769 1214 z "},"Ђ":{"ha":1133,"x_min":0,"x_max":0,"o":"m 40 938 l 40 774 l 292 774 l 292 0 l 456 0 l 456 424 l 692 424 b 861 261 807 424 861 364 l 861 86 b 678 -151 861 -82 804 -151 l 558 -151 l 558 -294 l 711 -294 b 1028 86 906 -294 1028 -171 l 1028 274 b 710 588 1028 479 919 588 l 456 588 l 456 774 l 835 774 l 835 938 z "},"Ѓ":{"ha":864,"x_min":0,"x_max":0,"o":"m 535 1283 l 379 985 l 525 985 l 699 1283 z m 450 938 b 104 614 201 938 104 801 l 104 0 l 268 0 l 268 613 b 460 774 268 703 313 774 l 824 774 l 824 938 z "},"Є":{"ha":947,"x_min":0,"x_max":0,"o":"m 501 938 b 79 468 229 938 79 783 b 501 0 79 154 228 0 l 864 0 l 864 164 l 501 164 b 246 396 343 164 264 233 l 729 396 l 729 544 l 246 544 b 501 774 264 704 343 774 l 864 774 l 864 938 z "},"Ѕ":{"ha":976,"x_min":0,"x_max":0,"o":"m 363 938 b 71 668 154 938 71 824 b 379 397 71 538 129 397 l 597 397 b 744 281 713 397 744 342 b 615 164 744 213 704 164 l 88 164 l 88 0 l 610 0 b 908 275 824 0 908 117 b 593 551 908 410 849 551 l 374 551 b 235 663 264 551 235 606 b 357 774 235 728 272 774 l 838 774 l 838 938 z "},"І":{"ha":390,"x_min":0,"x_max":0,"o":"m 114 938 l 114 0 l 278 0 l 278 938 z "},"Ї":{"ha":442,"x_min":0,"x_max":0,"o":"m 144 938 l 144 0 l 308 0 l 308 938 z m -21 1214 l -21 1043 l 128 1043 l 128 1214 z m 313 1214 l 313 1043 l 461 1043 l 461 1214 z "},"Ј":{"ha":810,"x_min":0,"x_max":0,"o":"m 540 938 l 540 325 b 349 164 540 235 496 164 l 40 164 l 40 0 l 358 0 b 706 324 607 0 706 136 l 706 938 z "},"Љ":{"ha":1531,"x_min":0,"x_max":0,"o":"m 685 567 b 832 418 685 461 729 418 l 1169 418 b 1300 289 1263 418 1300 354 b 1171 164 1300 221 1260 164 l 683 164 l 683 0 l 1164 0 b 1465 281 1375 0 1465 131 b 1164 575 1465 424 1383 575 l 872 575 b 849 599 857 575 849 582 l 849 754 b 639 954 849 874 781 954 b 432 785 514 954 479 890 l 226 331 b 74 164 160 185 138 164 l 40 164 l 40 0 l 71 0 b 372 279 239 0 282 75 l 585 760 b 635 796 597 786 613 796 b 685 746 667 796 685 776 z "},"Њ":{"ha":1540,"x_min":0,"x_max":0,"o":"m 114 938 l 114 0 l 278 0 l 278 418 l 1194 418 b 1326 289 1288 418 1326 354 b 1196 164 1326 221 1286 164 l 725 164 l 725 0 l 1190 0 b 1490 281 1401 0 1490 131 b 1190 576 1490 424 1410 576 l 892 576 l 892 938 l 726 938 l 726 576 l 278 576 l 278 938 z "},"Ћ":{"ha":1133,"x_min":0,"x_max":0,"o":"m 40 938 l 40 774 l 292 774 l 292 0 l 456 0 l 456 424 l 692 424 b 861 261 807 424 861 365 l 861 0 l 1028 0 l 1028 274 b 710 588 1028 479 919 588 l 456 588 l 456 774 l 835 774 l 835 938 z "},"Ќ":{"ha":983,"x_min":0,"x_max":0,"o":"m 114 938 l 114 0 l 278 0 l 278 392 l 368 392 b 629 278 544 392 578 378 l 772 0 l 956 0 l 804 294 b 618 475 749 403 706 451 b 781 646 694 508 739 563 l 928 938 l 751 938 l 608 657 b 368 540 556 554 529 540 l 278 540 l 278 938 z m 464 1283 l 308 985 l 454 985 l 628 1283 z "},"Ѝ":{"ha":1221,"x_min":0,"x_max":0,"o":"m 411 1283 l 583 985 l 731 985 l 575 1283 z m 113 938 l 113 189 b 328 -17 113 65 182 -17 b 556 157 457 -17 517 50 l 829 756 b 890 796 840 779 858 796 b 944 742 924 796 944 775 l 944 0 l 1110 0 l 1110 750 b 893 954 1110 872 1039 954 b 665 781 763 954 704 888 l 392 182 b 332 143 381 160 363 143 b 276 196 297 143 276 164 l 276 938 z "},"Ў":{"ha":1014,"x_min":0,"x_max":0,"o":"m 196 1283 l 196 1204 b 479 985 196 1043 257 985 b 761 1204 699 985 761 1043 l 761 1283 l 636 1283 l 636 1206 b 479 1086 636 1118 606 1086 b 319 1206 351 1086 319 1118 l 319 1283 z m 18 938 l 408 263 l 393 238 b 263 164 356 178 329 164 l 103 164 l 103 0 l 235 0 b 554 186 408 0 472 43 l 996 938 l 810 938 l 499 415 l 203 938 z "},"Џ":{"ha":1035,"x_min":0,"x_max":0,"o":"m 843 0 b 921 76 896 0 921 25 l 921 938 l 757 938 l 757 181 b 739 164 757 168 751 164 l 294 164 b 278 181 283 164 278 168 l 278 938 l 113 938 l 113 76 b 192 0 113 25 139 0 l 443 0 l 443 -294 l 590 -294 l 590 0 z "},"А":{"ha":1089,"x_min":0,"x_max":0,"o":"m 882 0 l 1064 0 l 747 833 b 553 954 717 922 650 954 b 356 833 454 954 388 922 l 26 0 l 207 0 l 283 193 l 808 193 z m 504 754 b 551 786 514 776 529 786 b 597 754 574 786 589 776 l 750 349 l 344 349 z "},"Б":{"ha":943,"x_min":0,"x_max":0,"o":"m 208 938 b 113 853 143 938 113 903 l 113 567 b 260 418 113 461 157 418 l 597 418 b 728 289 690 418 728 354 b 599 164 728 221 688 164 l 111 164 l 111 0 l 592 0 b 893 281 803 0 893 131 b 592 575 893 424 811 575 l 300 575 b 276 599 285 575 276 582 l 276 732 b 319 774 276 751 285 774 l 703 774 l 703 938 z "},"В":{"ha":999,"x_min":0,"x_max":0,"o":"m 192 938 b 114 861 139 938 114 913 l 114 76 b 192 0 114 25 139 0 l 608 0 b 922 258 829 0 922 108 b 783 472 922 367 872 436 b 918 681 871 507 918 572 b 604 938 918 833 825 938 z m 275 406 l 613 406 b 757 285 708 406 757 364 b 613 163 757 208 711 163 l 293 163 b 275 178 282 163 275 167 z m 275 760 b 293 776 275 771 282 776 l 610 776 b 753 654 710 776 753 728 b 608 542 753 578 706 542 l 275 542 z "},"Г":{"ha":864,"x_min":0,"x_max":0,"o":"m 450 938 b 104 614 201 938 104 801 l 104 0 l 268 0 l 268 613 b 460 774 268 703 313 774 l 824 774 l 824 938 z "},"Д":{"ha":1149,"x_min":0,"x_max":0,"o":"m 294 331 b 142 164 228 185 206 164 l 40 164 l 40 -294 l 188 -294 l 188 0 l 961 0 l 961 -294 l 1108 -294 l 1108 164 l 917 164 l 917 754 b 707 954 917 874 849 954 b 500 785 582 954 547 890 z m 386 164 b 440 279 403 196 421 235 l 653 760 b 703 796 665 786 681 796 b 751 746 735 796 751 776 l 751 164 z "},"Е":{"ha":963,"x_min":0,"x_max":0,"o":"m 393 938 b 79 682 172 938 79 832 b 211 471 79 579 124 507 b 76 256 125 435 76 363 b 389 0 76 110 167 0 l 864 0 l 864 164 l 389 164 b 247 282 293 164 247 208 b 390 396 247 358 296 396 l 856 396 l 856 544 l 394 544 b 251 656 300 544 251 579 b 393 774 251 728 294 774 l 863 774 l 863 938 z "},"Ж":{"ha":1575,"x_min":0,"x_max":0,"o":"m 706 938 l 706 540 l 614 540 b 375 657 453 540 433 558 l 232 938 l 54 938 l 203 646 b 365 475 247 564 288 508 b 179 294 276 451 236 401 l 28 0 l 211 0 l 354 278 b 614 392 411 375 438 392 l 706 392 l 706 0 l 869 0 l 869 392 l 960 392 b 1221 278 1136 392 1169 378 l 1364 0 l 1547 0 l 1396 294 b 1210 475 1340 403 1297 451 b 1372 646 1286 508 1331 563 l 1519 938 l 1343 938 l 1200 657 b 960 540 1147 554 1121 540 l 869 540 l 869 938 z "},"З":{"ha":946,"x_min":0,"x_max":0,"o":"m 83 938 l 83 774 l 551 774 b 693 657 650 774 693 728 b 550 544 693 579 646 544 l 265 544 l 265 396 l 554 396 b 697 283 649 396 697 358 b 556 164 697 208 651 164 l 82 164 l 82 0 l 556 0 b 868 251 776 0 868 111 b 732 471 868 364 821 433 b 865 686 818 507 865 575 b 551 938 865 831 772 938 z "},"И":{"ha":1221,"x_min":0,"x_max":0,"o":"m 113 938 l 113 189 b 328 -17 113 65 182 -17 b 556 157 457 -17 517 50 l 829 756 b 890 796 840 779 858 796 b 944 742 924 796 944 775 l 944 0 l 1110 0 l 1110 750 b 893 954 1110 872 1039 954 b 665 781 763 954 704 888 l 392 182 b 332 143 381 160 363 143 b 276 196 297 143 276 164 l 276 938 z "},"Й":{"ha":1221,"x_min":0,"x_max":0,"o":"m 322 1283 l 322 1204 b 606 985 322 1043 383 985 b 888 1204 825 985 888 1043 l 888 1283 l 763 1283 l 763 1206 b 606 1086 763 1118 732 1086 b 446 1206 478 1086 446 1118 l 446 1283 z m 113 938 l 113 189 b 328 -17 113 65 182 -17 b 556 157 457 -17 517 50 l 829 756 b 890 796 840 779 858 796 b 944 742 924 796 944 775 l 944 0 l 1110 0 l 1110 750 b 893 954 1110 872 1039 954 b 665 781 763 954 704 888 l 392 182 b 332 143 381 160 363 143 b 276 196 297 143 276 164 l 276 938 z "},"К":{"ha":983,"x_min":0,"x_max":0,"o":"m 114 938 l 114 0 l 278 0 l 278 392 l 368 392 b 629 278 544 392 578 378 l 772 0 l 956 0 l 804 294 b 618 475 749 403 706 451 b 781 646 694 508 739 563 l 928 938 l 751 938 l 608 657 b 368 540 556 554 529 540 l 278 540 l 278 938 z "},"Л":{"ha":961,"x_min":0,"x_max":0,"o":"m 226 331 b 74 164 160 185 138 164 l 40 164 l 40 0 l 71 0 b 372 279 239 0 282 75 l 585 760 b 635 796 597 786 613 796 b 683 746 667 796 683 776 l 683 0 l 849 0 l 849 754 b 639 954 849 874 781 954 b 432 785 514 954 479 890 z "},"М":{"ha":1531,"x_min":0,"x_max":0,"o":"m 275 736 b 342 796 275 772 299 796 b 407 746 379 796 400 776 l 540 172 b 767 -17 568 51 636 -17 b 989 172 896 -17 960 49 l 1124 746 b 1189 796 1131 776 1150 796 b 1256 736 1232 796 1256 772 l 1256 0 l 1418 0 l 1418 744 b 1193 954 1418 869 1344 954 b 963 769 1058 954 989 888 l 831 196 b 768 143 822 163 803 143 b 706 196 733 143 714 163 l 574 769 b 338 954 547 888 471 954 b 113 744 186 954 113 869 l 113 0 l 275 0 z "},"Н":{"ha":1035,"x_min":0,"x_max":0,"o":"m 114 938 l 114 0 l 278 0 l 278 392 l 757 392 l 757 0 l 922 0 l 922 938 l 757 938 l 757 556 l 278 556 l 278 938 z "},"О":{"ha":1133,"x_min":0,"x_max":0,"o":"m 503 938 b 79 467 231 938 79 782 b 503 0 79 153 229 0 l 631 0 b 1054 467 904 0 1054 153 b 631 938 1054 782 903 938 z m 631 774 b 889 468 811 774 889 682 b 631 164 889 253 811 164 l 503 164 b 243 467 321 164 243 253 b 503 774 243 682 322 774 z "},"П":{"ha":1035,"x_min":0,"x_max":0,"o":"m 192 938 b 114 861 139 938 114 913 l 114 0 l 278 0 l 278 757 b 296 774 278 769 283 774 l 740 774 b 757 757 751 774 757 769 l 757 0 l 922 0 l 922 861 b 843 938 922 913 896 938 z "},"Р":{"ha":943,"x_min":0,"x_max":0,"o":"m 111 938 l 111 774 l 599 774 b 728 649 688 774 728 717 b 597 519 728 583 690 519 l 260 519 b 113 371 157 519 113 476 l 113 0 l 276 0 l 276 339 b 300 363 276 356 285 363 l 592 363 b 893 657 811 363 893 515 b 592 938 893 807 803 938 z "},"С":{"ha":947,"x_min":0,"x_max":0,"o":"m 503 938 b 79 468 231 938 79 783 b 503 0 79 154 229 0 l 865 0 l 865 164 l 503 164 b 243 468 321 164 243 254 b 503 774 243 683 322 774 l 865 774 l 865 938 z "},"Т":{"ha":793,"x_min":0,"x_max":0,"o":"m 40 938 l 40 774 l 314 774 l 314 0 l 479 0 l 479 774 l 753 774 l 753 938 z "},"У":{"ha":1014,"x_min":0,"x_max":0,"o":"m 18 938 l 408 263 l 393 238 b 263 164 356 178 329 164 l 103 164 l 103 0 l 235 0 b 554 186 408 0 472 43 l 996 938 l 810 938 l 499 415 l 203 938 z "},"Ф":{"ha":1181,"x_min":0,"x_max":0,"o":"m 457 832 b 79 467 214 832 79 718 b 457 107 79 217 213 107 l 508 107 l 508 0 l 672 0 l 672 107 l 725 107 b 1101 467 968 107 1101 217 b 725 832 1101 718 967 832 l 672 832 l 672 938 l 508 938 l 508 832 z m 725 657 b 938 468 871 657 938 603 b 725 282 938 333 872 282 l 672 282 l 672 657 z m 457 282 b 243 468 308 282 243 333 b 457 657 243 603 310 657 l 508 657 l 508 282 z "},"Х":{"ha":1085,"x_min":0,"x_max":0,"o":"m 65 938 l 446 489 l 26 0 l 229 0 l 549 372 l 860 0 l 1060 0 l 656 476 l 1057 938 l 854 938 l 553 592 l 265 938 z "},"Ц":{"ha":1154,"x_min":0,"x_max":0,"o":"m 192 0 l 967 0 l 967 -294 l 1114 -294 l 1114 164 l 921 164 l 921 938 l 757 938 l 757 164 l 294 164 b 278 181 283 164 278 168 l 278 938 l 113 938 l 113 76 b 192 0 113 25 139 0 z "},"Ч":{"ha":1003,"x_min":0,"x_max":0,"o":"m 106 938 l 106 596 b 424 282 106 390 214 282 l 724 282 l 724 0 l 889 0 l 889 938 l 724 938 l 724 447 l 442 447 b 272 608 326 447 272 506 l 272 938 z "},"Ш":{"ha":1386,"x_min":0,"x_max":0,"o":"m 114 938 l 114 76 b 192 0 114 25 139 0 l 1194 0 b 1274 76 1247 0 1274 25 l 1274 938 l 1108 938 l 1108 181 b 1092 164 1108 168 1103 164 l 775 164 l 775 938 l 611 938 l 611 164 l 296 164 b 278 181 283 164 278 168 l 278 938 z "},"Щ":{"ha":1506,"x_min":0,"x_max":0,"o":"m 114 938 l 114 76 b 192 0 114 25 139 0 l 1318 0 l 1318 -294 l 1465 -294 l 1465 164 l 1274 164 l 1274 938 l 1108 938 l 1108 164 l 775 164 l 775 938 l 611 938 l 611 164 l 296 164 b 278 181 283 164 278 168 l 278 938 z "},"Ъ":{"ha":1099,"x_min":0,"x_max":0,"o":"m 40 938 l 40 774 l 229 774 b 269 724 261 774 269 763 l 269 567 b 417 418 269 461 314 418 l 754 418 b 885 289 847 418 885 354 b 756 164 885 221 844 164 l 268 164 l 268 0 l 749 0 b 1050 281 960 0 1050 131 b 749 575 1050 424 968 575 l 457 575 b 433 599 442 575 433 582 l 433 817 b 317 938 433 890 403 938 z "},"Ы":{"ha":1282,"x_min":0,"x_max":0,"o":"m 1004 938 l 1004 0 l 1168 0 l 1168 938 z m 113 938 l 113 567 b 260 418 113 461 157 418 l 597 418 b 728 289 690 418 728 354 b 599 164 728 221 688 164 l 111 164 l 111 0 l 592 0 b 893 281 803 0 893 131 b 592 575 893 424 811 575 l 300 575 b 276 599 285 575 276 582 l 276 938 z "},"Ь":{"ha":943,"x_min":0,"x_max":0,"o":"m 113 938 l 113 567 b 260 418 113 461 157 418 l 597 418 b 728 289 690 418 728 354 b 599 164 728 221 688 164 l 111 164 l 111 0 l 592 0 b 893 281 803 0 893 131 b 592 575 893 424 811 575 l 300 575 b 276 599 285 575 276 582 l 276 938 z "},"Э":{"ha":947,"x_min":0,"x_max":0,"o":"m 217 544 l 217 396 l 699 396 b 444 164 682 233 603 164 l 82 164 l 82 0 l 444 0 b 867 468 718 0 867 154 b 444 938 867 783 717 938 l 82 938 l 82 774 l 444 774 b 699 544 601 774 682 704 z "},"Ю":{"ha":1483,"x_min":0,"x_max":0,"o":"m 853 938 b 432 544 604 938 456 807 l 278 544 l 278 938 l 114 938 l 114 0 l 278 0 l 278 396 l 432 396 b 853 0 453 129 600 0 l 981 0 b 1404 467 1254 0 1404 153 b 981 938 1404 782 1253 938 z m 981 774 b 1239 468 1161 774 1239 682 b 981 164 1239 253 1161 164 l 853 164 b 593 468 671 164 593 253 b 853 774 593 682 672 774 z "},"Я":{"ha":992,"x_min":0,"x_max":0,"o":"m 372 938 b 71 657 160 938 71 807 b 269 375 71 539 125 415 l 50 0 l 233 0 l 444 363 l 690 363 b 714 339 706 363 714 356 l 714 0 l 879 0 l 879 371 b 732 519 879 476 835 519 l 367 519 b 235 650 274 519 235 583 b 365 774 235 717 275 774 l 881 774 l 881 938 z "},"а":{"ha":933,"x_min":0,"x_max":0,"o":"m 135 733 l 135 592 l 574 592 b 686 490 654 592 686 547 l 686 435 l 338 435 b 90 224 157 435 90 357 b 336 0 90 85 163 0 l 679 0 b 831 147 803 0 831 42 l 831 492 b 575 733 831 631 758 733 z m 646 143 l 338 143 b 235 232 264 143 235 178 b 340 318 235 286 263 318 l 686 318 l 686 181 b 646 143 686 154 675 143 z "},"б":{"ha":965,"x_min":0,"x_max":0,"o":"m 383 1035 b 106 744 178 1035 106 953 l 106 314 b 375 0 106 103 199 0 l 578 0 b 894 344 772 0 894 113 b 578 688 894 575 772 688 l 253 688 l 253 744 b 399 893 253 850 289 893 l 701 893 b 840 1036 794 893 840 940 l 840 1128 l 707 1128 l 707 1076 b 663 1035 707 1046 692 1035 z m 563 556 b 746 349 690 556 746 496 b 563 143 746 201 690 143 l 418 143 b 253 313 299 143 253 193 l 253 556 z "},"в":{"ha":878,"x_min":0,"x_max":0,"o":"m 183 733 b 106 657 131 733 106 708 l 106 76 b 183 0 106 25 131 0 l 535 0 b 797 201 726 0 797 86 b 688 369 797 285 760 339 b 794 533 758 397 794 450 b 532 733 794 651 724 733 z m 253 314 l 531 314 b 646 224 615 314 646 283 b 531 133 646 165 617 133 l 271 133 b 253 150 258 133 253 139 z m 253 585 b 271 601 253 596 258 601 l 528 601 b 643 513 615 601 643 568 b 526 426 643 456 613 426 l 253 426 z "},"г":{"ha":639,"x_min":0,"x_max":0,"o":"m 313 733 b 104 526 164 733 104 647 l 104 0 l 253 0 l 253 493 b 358 592 253 561 283 592 l 600 592 l 600 733 z "},"д":{"ha":928,"x_min":0,"x_max":0,"o":"m 40 142 l 40 -294 l 188 -294 l 188 0 l 740 0 l 740 -294 l 888 -294 l 888 142 l 764 142 l 764 596 b 578 757 764 693 701 757 b 388 617 465 757 433 704 l 206 268 b 72 142 144 151 129 142 z m 292 142 b 336 225 306 165 319 193 l 526 594 b 571 625 539 619 553 625 b 615 589 599 625 615 613 l 615 142 z "},"е":{"ha":906,"x_min":0,"x_max":0,"o":"m 346 733 b 90 492 163 733 90 631 l 90 242 b 346 0 90 103 163 0 l 794 0 l 794 143 l 346 143 b 233 244 265 143 233 186 l 233 297 l 582 297 b 831 508 763 297 831 374 b 583 733 831 650 757 733 z m 233 490 b 346 592 233 547 265 592 l 582 592 b 686 500 654 592 686 556 b 578 413 686 446 657 413 l 233 413 z "},"ж":{"ha":1313,"x_min":0,"x_max":0,"o":"m 50 733 l 176 503 b 307 372 214 440 246 397 b 157 231 239 353 203 311 l 26 0 l 190 0 l 314 217 b 514 306 361 290 385 306 l 582 306 l 582 0 l 731 0 l 731 306 l 799 306 b 1000 217 928 306 951 290 l 1122 0 l 1288 0 l 1156 231 b 1006 372 1108 311 1074 353 b 1136 503 1065 397 1099 440 l 1264 733 l 1104 733 l 982 513 b 799 429 932 439 915 429 l 731 429 l 731 733 l 582 733 l 582 429 l 514 429 b 331 513 399 429 381 439 l 210 733 z "},"з":{"ha":878,"x_min":0,"x_max":0,"o":"m 90 733 l 90 593 l 531 593 b 643 507 617 593 643 560 b 531 422 643 450 614 422 l 258 422 l 258 313 l 532 313 b 646 228 617 313 646 285 b 533 142 646 172 618 142 l 90 142 l 90 0 l 543 0 b 797 196 731 0 797 88 b 693 367 797 283 763 338 b 794 539 761 397 794 453 b 540 733 794 649 726 733 z "},"и":{"ha":1018,"x_min":0,"x_max":0,"o":"m 106 733 l 106 150 b 279 -14 106 51 163 -14 b 453 124 385 -14 421 39 l 674 586 b 724 617 683 604 697 617 b 765 578 751 617 765 603 l 765 0 l 914 0 l 914 585 b 739 746 914 682 857 746 b 553 610 632 746 581 696 l 344 147 b 294 118 335 128 321 118 b 253 156 267 118 253 131 l 253 733 z "},"й":{"ha":1018,"x_min":0,"x_max":0,"o":"m 226 1079 l 226 1000 b 510 781 226 839 288 781 b 792 1000 729 781 792 839 l 792 1079 l 667 1079 l 667 1001 b 510 882 667 914 636 882 b 350 1001 382 882 350 914 l 350 1079 z m 106 733 l 106 150 b 279 -14 106 51 163 -14 b 453 124 385 -14 421 39 l 674 586 b 724 617 683 604 697 617 b 765 578 751 617 765 603 l 765 0 l 914 0 l 914 585 b 739 746 914 682 857 746 b 553 610 632 746 581 696 l 344 147 b 294 118 335 128 321 118 b 253 156 267 118 253 131 l 253 733 z "},"к":{"ha":836,"x_min":0,"x_max":0,"o":"m 106 733 l 106 0 l 253 0 l 253 306 l 321 306 b 522 217 450 306 474 290 l 644 0 l 810 0 l 678 231 b 528 372 631 311 596 353 b 658 503 588 397 621 440 l 786 733 l 626 733 l 504 513 b 321 429 454 439 438 429 l 253 429 l 253 733 z "},"л":{"ha":869,"x_min":0,"x_max":0,"o":"m 40 142 l 40 0 l 68 0 b 336 225 218 0 253 63 l 526 594 b 571 625 539 619 553 625 b 615 589 599 625 615 613 l 615 0 l 764 0 l 764 596 b 578 757 764 693 701 757 b 388 617 465 757 433 704 l 206 268 b 72 142 144 151 129 142 z "},"м":{"ha":1286,"x_min":0,"x_max":0,"o":"m 246 574 b 299 617 246 601 264 617 b 350 581 328 617 343 604 l 483 133 b 643 -10 514 32 558 -10 b 801 133 729 -10 772 32 l 935 581 b 986 617 942 604 957 617 b 1039 574 1021 617 1039 601 l 1039 0 l 1181 0 l 1181 581 b 1000 746 1181 681 1115 746 b 819 600 894 746 843 690 l 693 154 b 643 115 685 126 671 115 b 593 154 615 115 601 126 l 465 600 b 286 746 442 693 389 746 b 106 581 169 746 106 681 l 106 0 l 246 0 z "},"н":{"ha":978,"x_min":0,"x_max":0,"o":"m 106 733 l 106 0 l 253 0 l 253 304 l 724 304 l 724 0 l 872 0 l 872 733 l 724 733 l 724 446 l 253 446 l 253 733 z "},"о":{"ha":932,"x_min":0,"x_max":0,"o":"m 389 733 b 71 367 193 733 71 614 b 389 0 71 119 193 0 l 543 0 b 861 367 738 0 861 119 b 543 733 861 614 738 733 z m 529 592 b 713 367 656 592 713 525 b 529 143 713 208 656 143 l 403 143 b 219 367 275 143 219 208 b 403 592 219 525 275 592 z "},"п":{"ha":978,"x_min":0,"x_max":0,"o":"m 183 733 b 106 657 131 733 106 708 l 106 0 l 253 0 l 253 575 b 271 592 253 588 258 592 l 707 592 b 724 575 718 592 724 588 l 724 0 l 872 0 l 872 657 b 793 733 872 708 846 733 z "},"р":{"ha":963,"x_min":0,"x_max":0,"o":"m 372 733 b 103 419 196 733 103 631 l 103 -294 l 250 -294 l 250 0 l 575 0 b 892 367 769 0 892 119 b 575 733 892 614 769 733 z m 250 413 b 415 592 250 539 296 592 l 560 592 b 743 367 688 592 743 525 b 560 143 743 208 688 143 l 250 143 z "},"с":{"ha":836,"x_min":0,"x_max":0,"o":"m 389 733 b 71 367 193 733 71 614 b 389 0 71 119 193 0 l 767 0 l 767 143 l 403 143 b 219 367 275 143 219 208 b 403 592 219 525 275 592 l 767 592 l 767 733 z "},"т":{"ha":796,"x_min":0,"x_max":0,"o":"m 40 733 l 40 592 l 321 592 l 321 0 l 469 0 l 469 592 l 750 592 l 750 733 z "},"у":{"ha":899,"x_min":0,"x_max":0,"o":"m 715 733 l 467 157 l 447 157 b 403 188 419 157 413 161 l 182 733 l 26 733 l 272 117 b 410 26 297 53 326 26 l 272 -294 l 431 -294 l 872 733 z "},"ф":{"ha":1115,"x_min":0,"x_max":0,"o":"m 483 1018 l 483 733 l 389 733 b 71 365 193 733 71 614 b 389 0 71 119 193 0 l 483 0 l 483 -285 l 632 -285 l 632 0 l 728 0 b 1044 365 922 0 1044 119 b 728 733 1044 614 922 733 l 632 733 l 632 1018 z m 713 592 b 896 365 840 592 896 525 b 713 143 896 208 840 143 l 632 143 l 632 592 z m 403 143 b 219 365 275 143 219 208 b 403 592 219 525 275 592 l 483 592 l 483 143 z "},"х":{"ha":946,"x_min":0,"x_max":0,"o":"m 50 733 l 383 382 l 26 0 l 210 0 l 474 282 l 732 0 l 919 0 l 571 368 l 915 733 l 732 733 l 479 468 l 236 733 z "},"ц":{"ha":1106,"x_min":0,"x_max":0,"o":"m 918 0 l 918 -294 l 1065 -294 l 1065 142 l 872 142 l 872 733 l 725 733 l 725 142 l 271 142 b 254 158 260 142 254 146 l 254 733 l 106 733 l 106 76 b 185 0 106 25 132 0 z "},"ч":{"ha":940,"x_min":0,"x_max":0,"o":"m 97 733 l 97 510 b 379 254 97 356 192 254 l 686 254 l 686 0 l 835 0 l 835 733 l 686 733 l 686 396 l 394 396 b 244 519 292 396 244 444 l 244 733 z "},"ш":{"ha":1256,"x_min":0,"x_max":0,"o":"m 106 733 l 106 76 b 183 0 106 25 131 0 l 1072 0 b 1150 76 1125 0 1150 25 l 1150 733 l 1003 733 l 1003 158 b 985 142 1003 147 997 142 l 701 142 l 701 733 l 554 733 l 554 142 l 271 142 b 253 158 258 142 253 147 l 253 733 z "},"щ":{"ha":1383,"x_min":0,"x_max":0,"o":"m 106 733 l 106 76 b 183 0 106 25 131 0 l 1196 0 l 1196 -294 l 1343 -294 l 1343 142 l 1150 142 l 1150 733 l 1003 733 l 1003 142 l 701 142 l 701 733 l 554 733 l 554 142 l 271 142 b 253 158 258 142 253 147 l 253 733 z "},"ъ":{"ha":1025,"x_min":0,"x_max":0,"o":"m 40 733 l 40 592 l 264 592 b 294 561 288 592 294 581 l 294 456 b 417 332 294 368 332 332 l 707 332 b 804 233 776 332 804 283 b 707 142 804 182 774 142 l 293 142 l 293 0 l 710 0 b 947 232 876 0 947 107 b 710 469 947 351 882 469 l 463 469 b 442 489 449 469 442 475 l 442 658 b 353 733 442 700 418 733 z "},"ы":{"ha":1119,"x_min":0,"x_max":0,"o":"m 107 733 l 107 456 b 229 332 107 368 144 332 l 519 332 b 617 233 589 332 617 283 b 519 142 617 182 586 142 l 106 142 l 106 0 l 522 0 b 760 232 689 0 760 107 b 522 469 760 351 694 469 l 275 469 b 254 489 261 469 254 475 l 254 733 z m 867 733 l 867 0 l 1014 0 l 1014 733 z "},"ь":{"ha":838,"x_min":0,"x_max":0,"o":"m 107 733 l 107 456 b 229 332 107 368 144 332 l 519 332 b 617 233 589 332 617 283 b 519 142 617 182 586 142 l 106 142 l 106 0 l 522 0 b 760 232 689 0 760 107 b 522 469 760 351 694 469 l 275 469 b 254 489 261 469 254 475 l 254 733 z "},"э":{"ha":836,"x_min":0,"x_max":0,"o":"m 239 422 l 239 321 l 615 321 b 433 135 604 194 549 135 l 69 135 l 69 0 l 447 0 b 765 365 643 0 765 119 b 447 733 765 614 643 733 l 69 733 l 69 600 l 433 600 b 614 422 544 600 601 542 z "},"ю":{"ha":1260,"x_min":0,"x_max":0,"o":"m 718 733 b 403 428 539 733 422 633 l 253 428 l 253 733 l 106 733 l 106 0 l 253 0 l 253 311 l 401 311 b 718 0 418 101 536 0 l 872 0 b 1190 365 1067 0 1190 119 b 872 733 1190 614 1067 733 z m 858 592 b 1042 365 985 592 1042 525 b 858 143 1042 208 985 143 l 732 143 b 549 365 604 143 549 208 b 732 592 549 525 604 592 z "},"я":{"ha":856,"x_min":0,"x_max":0,"o":"m 326 733 b 69 507 146 733 69 635 b 235 285 69 408 115 315 l 53 0 l 217 0 l 392 275 l 589 275 b 610 254 604 275 610 268 l 610 0 l 758 0 l 758 282 b 629 404 758 369 719 404 l 328 404 b 218 500 249 404 218 450 b 328 592 218 551 251 592 l 760 592 l 760 733 z "},"ѐ":{"ha":906,"x_min":0,"x_max":0,"o":"m 346 733 b 90 492 163 733 90 631 l 90 242 b 346 0 90 103 163 0 l 794 0 l 794 143 l 346 143 b 233 244 265 143 233 186 l 233 297 l 582 297 b 831 508 763 297 831 374 b 583 733 831 650 757 733 z m 233 490 b 346 592 233 547 265 592 l 582 592 b 686 500 654 592 686 556 b 578 413 686 446 657 413 l 233 413 z m 281 1079 l 453 781 l 600 781 l 444 1079 z "},"ё":{"ha":906,"x_min":0,"x_max":0,"o":"m 346 733 b 90 492 163 733 90 631 l 90 242 b 346 0 90 103 163 0 l 794 0 l 794 143 l 346 143 b 233 244 265 143 233 186 l 233 297 l 582 297 b 831 508 763 297 831 374 b 583 733 831 650 757 733 z m 233 490 b 346 592 233 547 265 592 l 582 592 b 686 500 654 592 686 556 b 578 413 686 446 657 413 l 233 413 z m 217 1010 l 217 839 l 365 839 l 365 1010 z m 550 1010 l 550 839 l 699 839 l 699 1010 z "},"ђ":{"ha":982,"x_min":0,"x_max":0,"o":"m 732 -43 b 632 -153 732 -125 704 -153 l 536 -153 l 536 -294 l 665 -294 b 881 -42 815 -294 881 -233 l 881 413 b 511 733 881 614 758 733 l 253 733 l 253 872 l 743 872 l 743 996 l 253 996 l 253 1051 l 106 1051 l 106 0 l 253 0 l 253 592 l 511 592 b 732 413 664 592 732 525 z "},"ѓ":{"ha":639,"x_min":0,"x_max":0,"o":"m 400 1079 l 244 781 l 390 781 l 564 1079 z m 313 733 b 104 526 164 733 104 647 l 104 0 l 253 0 l 253 493 b 358 592 253 561 283 592 l 600 592 l 600 733 z "},"є":{"ha":836,"x_min":0,"x_max":0,"o":"m 389 733 b 71 365 193 733 71 614 b 389 0 71 119 193 0 l 767 0 l 767 135 l 403 135 b 221 321 288 135 231 194 l 597 321 l 597 422 l 222 422 b 403 600 235 542 292 600 l 767 600 l 767 733 z "},"ѕ":{"ha":814,"x_min":0,"x_max":0,"o":"m 310 733 b 71 519 139 733 71 651 b 324 306 71 407 121 306 l 497 306 b 601 224 571 306 601 282 b 506 143 601 167 574 143 l 79 143 l 79 0 l 506 0 b 746 222 678 0 746 92 b 492 429 746 336 694 429 l 319 429 b 215 508 238 429 215 457 b 311 592 215 564 243 592 l 717 592 l 717 733 z "},"і":{"ha":358,"x_min":0,"x_max":0,"o":"m 106 733 l 106 0 l 253 0 l 253 733 z m 106 1010 l 106 839 l 254 839 l 254 1010 z "},"ї":{"ha":481,"x_min":0,"x_max":0,"o":"m -1 1010 l -1 839 l 147 839 l 147 1010 z m 332 1010 l 332 839 l 481 839 l 481 1010 z m 165 733 l 165 0 l 313 0 l 313 733 z "},"ј":{"ha":375,"x_min":0,"x_max":0,"o":"m 121 733 l 121 -43 b 21 -153 121 -125 93 -153 l -75 -153 l -75 -294 l 54 -294 b 269 -42 204 -294 269 -233 l 269 733 z m 121 1010 l 121 839 l 269 839 l 269 1010 z "},"љ":{"ha":1346,"x_min":0,"x_max":0,"o":"m 764 596 b 578 757 764 693 701 757 b 388 617 465 757 433 704 l 206 268 b 72 142 144 151 129 142 l 40 142 l 40 0 l 68 0 b 336 225 218 0 253 63 l 526 594 b 571 625 539 619 553 625 b 617 589 599 625 617 613 l 617 456 b 739 332 617 368 654 332 l 1029 332 b 1126 233 1099 332 1126 283 b 1029 142 1126 182 1096 142 l 615 142 l 615 0 l 1032 0 b 1269 232 1199 0 1269 107 b 1032 469 1269 351 1204 469 l 785 469 b 764 489 771 469 764 475 z "},"њ":{"ha":1407,"x_min":0,"x_max":0,"o":"m 106 733 l 106 0 l 253 0 l 253 332 l 1089 332 b 1186 233 1160 332 1186 283 b 1089 142 1186 182 1157 142 l 689 142 l 689 0 l 1092 0 b 1329 232 1258 0 1329 107 b 1092 469 1329 351 1264 469 l 839 469 l 839 733 l 690 733 l 690 469 l 253 469 l 253 733 z "},"ћ":{"ha":982,"x_min":0,"x_max":0,"o":"m 106 1051 l 106 0 l 253 0 l 253 592 l 511 592 b 732 413 664 592 732 525 l 732 0 l 881 0 l 881 413 b 511 733 881 614 758 733 l 253 733 l 253 872 l 743 872 l 743 996 l 253 996 l 253 1051 z "},"ќ":{"ha":836,"x_min":0,"x_max":0,"o":"m 428 1079 l 272 781 l 418 781 l 592 1079 z m 106 733 l 106 0 l 253 0 l 253 306 l 321 306 b 522 217 450 306 474 290 l 644 0 l 810 0 l 678 231 b 528 372 631 311 596 353 b 658 503 588 397 621 440 l 786 733 l 626 733 l 504 513 b 321 429 454 439 438 429 l 253 429 l 253 733 z "},"ѝ":{"ha":1018,"x_min":0,"x_max":0,"o":"m 336 1079 l 508 781 l 656 781 l 500 1079 z m 106 733 l 106 150 b 279 -14 106 51 163 -14 b 453 124 385 -14 421 39 l 674 586 b 724 617 683 604 697 617 b 765 578 751 617 765 603 l 765 0 l 914 0 l 914 585 b 739 746 914 682 857 746 b 553 610 632 746 581 696 l 344 147 b 294 118 335 128 321 118 b 253 156 267 118 253 131 l 253 733 z "},"ў":{"ha":899,"x_min":0,"x_max":0,"o":"m 715 733 l 467 157 l 447 157 b 403 188 419 157 413 161 l 182 733 l 26 733 l 272 117 b 410 26 297 53 326 26 l 272 -294 l 431 -294 l 872 733 z m 158 1079 l 158 1000 b 442 781 158 839 219 781 b 724 1000 661 781 724 839 l 724 1079 l 599 1079 l 599 1001 b 442 882 599 914 568 882 b 282 1001 314 882 282 914 l 282 1079 z "},"џ":{"ha":978,"x_min":0,"x_max":0,"o":"m 794 0 b 872 76 847 0 872 25 l 872 733 l 725 733 l 725 158 b 707 142 725 146 719 142 l 271 142 b 254 158 260 142 254 146 l 254 733 l 106 733 l 106 76 b 185 0 106 25 132 0 l 414 0 l 414 -294 l 561 -294 l 561 0 z "},"Ґ":{"ha":864,"x_min":0,"x_max":0,"o":"m 450 938 b 104 614 201 938 104 801 l 104 0 l 268 0 l 268 613 b 460 774 268 703 313 774 l 824 774 l 824 1232 l 676 1232 l 676 938 z "},"ґ":{"ha":639,"x_min":0,"x_max":0,"o":"m 313 733 b 104 526 164 733 104 647 l 104 0 l 253 0 l 253 493 b 358 592 253 561 283 592 l 600 592 l 600 1028 l 453 1028 l 453 733 z "},"Ғ":{"ha":878,"x_min":0,"x_max":0,"o":"m 464 938 b 118 614 215 938 118 801 l 118 517 l 10 517 l 10 393 l 118 393 l 118 0 l 282 0 l 282 393 l 647 393 l 647 517 l 282 517 l 282 613 b 474 774 282 703 326 774 l 838 774 l 838 938 z "},"ғ":{"ha":682,"x_min":0,"x_max":0,"o":"m 331 733 b 122 526 182 733 122 647 l 122 383 l 10 383 l 10 260 l 122 260 l 122 0 l 271 0 l 271 260 l 647 260 l 647 383 l 271 383 l 271 493 b 376 592 271 561 301 592 l 618 592 l 618 733 z "},"Җ":{"ha":1711,"x_min":0,"x_max":0,"o":"m 54 938 l 203 646 b 363 474 244 563 285 507 b 179 294 275 451 233 401 l 28 0 l 211 0 l 354 278 b 614 392 411 375 438 392 l 706 392 l 706 0 l 869 0 l 869 392 l 960 392 b 1221 278 1136 392 1169 378 l 1364 0 l 1524 0 l 1524 -294 l 1671 -294 l 1671 164 l 1463 164 l 1396 294 b 1210 475 1340 403 1297 451 b 1372 646 1286 508 1331 563 l 1519 938 l 1343 938 l 1200 657 b 960 540 1147 554 1121 540 l 869 540 l 869 938 l 706 938 l 706 540 l 614 540 b 375 657 453 540 426 556 l 232 938 z "},"җ":{"ha":1450,"x_min":0,"x_max":0,"o":"m 50 733 l 176 503 b 307 372 211 439 246 397 b 157 231 239 353 203 311 l 26 0 l 190 0 l 314 217 b 514 306 357 293 385 306 l 582 306 l 582 0 l 731 0 l 731 306 l 799 306 b 1000 217 928 306 951 290 l 1122 0 l 1263 0 l 1263 -294 l 1410 -294 l 1410 142 l 1206 142 l 1156 231 b 1007 372 1108 311 1074 351 b 1136 503 1068 397 1100 439 l 1264 733 l 1104 733 l 982 513 b 799 429 932 439 915 429 l 731 429 l 731 733 l 582 733 l 582 429 l 514 429 b 331 513 399 429 381 439 l 210 733 z "},"Қ":{"ha":1119,"x_min":0,"x_max":0,"o":"m 114 938 l 114 0 l 278 0 l 278 392 l 368 392 b 629 278 544 392 578 378 l 772 0 l 932 0 l 932 -294 l 1079 -294 l 1079 164 l 871 164 l 804 294 b 618 475 749 403 706 451 b 781 646 694 508 739 563 l 928 938 l 751 938 l 608 657 b 368 540 556 554 529 540 l 278 540 l 278 938 z "},"қ":{"ha":974,"x_min":0,"x_max":0,"o":"m 106 733 l 106 0 l 253 0 l 253 306 l 321 306 b 522 217 450 306 474 290 l 644 0 l 786 0 l 786 -294 l 933 -294 l 933 142 l 728 142 l 678 231 b 529 372 631 311 596 351 b 658 503 590 397 622 439 l 786 733 l 626 733 l 504 513 b 321 429 454 439 438 429 l 253 429 l 253 733 z "},"Ң":{"ha":1156,"x_min":0,"x_max":0,"o":"m 114 938 l 114 0 l 278 0 l 278 392 l 757 392 l 757 0 l 968 0 l 968 -294 l 1115 -294 l 1115 164 l 922 164 l 922 938 l 757 938 l 757 556 l 278 556 l 278 938 z "},"ң":{"ha":1106,"x_min":0,"x_max":0,"o":"m 106 733 l 106 0 l 253 0 l 253 304 l 724 304 l 724 0 l 918 0 l 918 -294 l 1065 -294 l 1065 142 l 872 142 l 872 733 l 724 733 l 724 446 l 253 446 l 253 733 z "},"Ү":{"ha":957,"x_min":0,"x_max":0,"o":"m 18 938 l 396 404 l 396 0 l 561 0 l 561 404 l 939 938 l 744 938 l 479 536 l 217 938 z "},"ү":{"ha":940,"x_min":0,"x_max":0,"o":"m 26 733 l 396 -25 l 396 -294 l 544 -294 l 544 -25 l 914 733 l 756 733 l 469 121 l 183 733 z "},"Ұ":{"ha":957,"x_min":0,"x_max":0,"o":"m 160 353 l 160 229 l 396 229 l 396 0 l 561 0 l 561 229 l 797 229 l 797 353 l 561 353 l 561 404 l 939 938 l 744 938 l 479 536 l 217 938 l 18 938 l 396 404 l 396 353 z "},"ұ":{"ha":940,"x_min":0,"x_max":0,"o":"m 26 733 l 378 13 l 151 13 l 151 -111 l 396 -111 l 396 -294 l 544 -294 l 544 -111 l 789 -111 l 789 13 l 563 13 l 914 733 l 756 733 l 469 121 l 183 733 z "},"Ҳ":{"ha":1222,"x_min":0,"x_max":0,"o":"m 65 938 l 446 489 l 26 0 l 229 0 l 549 372 l 860 0 l 1035 0 l 1035 -294 l 1182 -294 l 1182 164 l 921 164 l 656 476 l 1057 938 l 854 938 l 553 592 l 265 938 z "},"ҳ":{"ha":1083,"x_min":0,"x_max":0,"o":"m 50 733 l 383 382 l 26 0 l 210 0 l 474 282 l 732 0 l 896 0 l 896 -294 l 1043 -294 l 1043 142 l 785 142 l 571 368 l 915 733 l 732 733 l 479 468 l 236 733 z "},"Ҷ":{"ha":1121,"x_min":0,"x_max":0,"o":"m 106 938 l 106 596 b 424 282 106 390 214 282 l 724 282 l 724 0 l 935 0 l 935 -294 l 1082 -294 l 1082 164 l 889 164 l 889 938 l 724 938 l 724 447 l 442 447 b 272 608 326 447 272 506 l 272 938 z "},"ҷ":{"ha":1067,"x_min":0,"x_max":0,"o":"m 97 733 l 97 510 b 379 254 97 356 192 254 l 686 254 l 686 0 l 879 0 l 879 -294 l 1026 -294 l 1026 142 l 835 142 l 835 733 l 686 733 l 686 396 l 394 396 b 244 519 292 396 244 444 l 244 733 z "},"Һ":{"ha":1003,"x_min":0,"x_max":0,"o":"m 897 0 l 897 342 b 579 656 897 547 789 656 l 279 656 l 279 938 l 114 938 l 114 0 l 279 0 l 279 490 l 561 490 b 731 329 676 490 731 432 l 731 0 z "},"һ":{"ha":940,"x_min":0,"x_max":0,"o":"m 843 0 l 843 224 b 561 479 843 378 749 479 l 254 479 l 254 733 l 106 733 l 106 0 l 254 0 l 254 338 l 546 338 b 696 214 649 338 696 289 l 696 0 z "},"Ӏ":{"ha":390,"x_min":0,"x_max":0,"o":"m 114 938 l 114 0 l 278 0 l 278 938 z "},"Ӄ":{"ha":983,"x_min":0,"x_max":0,"o":"m 114 938 l 114 0 l 278 0 l 278 392 l 368 392 b 629 278 544 392 578 378 l 806 -61 b 707 -153 801 -129 774 -153 l 611 -153 l 611 -294 l 740 -294 b 956 0 890 -294 956 -233 l 804 294 b 618 475 749 403 706 451 b 781 646 694 508 739 563 l 928 938 l 751 938 l 608 657 b 368 540 556 554 529 540 l 278 540 l 278 938 z "},"ӄ":{"ha":836,"x_min":0,"x_max":0,"o":"m 106 733 l 106 0 l 253 0 l 253 306 l 321 306 b 522 217 450 306 478 293 l 661 -25 b 561 -153 661 -125 633 -153 l 465 -153 l 465 -294 l 594 -294 b 810 0 744 -294 810 -233 l 678 231 b 528 372 631 311 596 353 b 658 503 588 397 621 440 l 786 733 l 626 733 l 504 513 b 321 429 454 439 438 429 l 253 429 l 253 733 z "},"Ӈ":{"ha":1035,"x_min":0,"x_max":0,"o":"m 114 938 l 114 0 l 278 0 l 278 392 l 757 392 l 757 -43 b 657 -153 757 -125 729 -153 l 578 -153 l 578 -294 l 707 -294 b 922 -42 857 -294 922 -233 l 922 938 l 757 938 l 757 556 l 278 556 l 278 938 z "},"ӈ":{"ha":978,"x_min":0,"x_max":0,"o":"m 724 733 l 724 446 l 253 446 l 253 733 l 106 733 l 106 0 l 253 0 l 253 304 l 724 304 l 724 -43 b 624 -153 724 -125 696 -153 l 528 -153 l 528 -294 l 657 -294 b 872 -42 807 -294 872 -233 l 872 733 z "},"ӏ":{"ha":365,"x_min":0,"x_max":0,"o":"m 108 1006 l 108 0 l 257 0 l 257 1006 z "},"Ә":{"ha":1013,"x_min":0,"x_max":0,"o":"m 515 0 b 939 468 789 0 939 154 b 515 938 939 783 788 938 l 129 938 l 129 774 l 515 774 b 769 557 669 774 750 708 l 328 557 b 79 293 161 557 79 456 b 371 0 79 129 161 0 z m 515 164 l 360 164 b 229 296 268 164 229 219 b 344 415 229 371 268 415 l 774 415 b 515 164 761 239 682 164 z "},"ә":{"ha":906,"x_min":0,"x_max":0,"o":"m 575 0 b 831 242 758 0 831 103 l 831 492 b 575 733 831 631 758 733 l 126 733 l 126 590 l 575 590 b 688 489 656 590 688 547 l 688 436 l 339 436 b 90 225 158 436 90 360 b 338 0 90 83 164 0 z m 688 243 b 575 142 688 186 656 142 l 339 142 b 235 233 267 142 235 178 b 343 321 235 288 264 321 l 688 321 z "},"Ө":{"ha":1133,"x_min":0,"x_max":0,"o":"m 503 938 b 79 467 231 938 79 782 b 503 0 79 153 229 0 l 631 0 b 1054 467 904 0 1054 153 b 631 938 1054 782 903 938 z m 631 164 l 503 164 b 246 396 342 164 263 232 l 885 396 b 631 164 868 232 789 164 z m 631 774 b 885 544 788 774 867 703 l 246 544 b 503 774 264 704 344 774 z "},"ө":{"ha":932,"x_min":0,"x_max":0,"o":"m 389 733 b 71 365 193 733 71 614 b 389 0 71 119 193 0 l 543 0 b 861 365 738 0 861 119 b 543 733 861 614 738 733 z m 529 143 l 403 143 b 221 318 289 143 232 194 l 710 318 b 529 143 699 194 642 143 z m 529 592 b 710 422 639 592 696 540 l 222 422 b 403 592 235 540 292 592 z "},"Ӯ":{"ha":1014,"x_min":0,"x_max":0,"o":"m 179 1200 l 179 1076 l 817 1076 l 817 1200 z m 18 938 l 408 263 l 393 238 b 263 164 356 178 329 164 l 103 164 l 103 0 l 235 0 b 554 186 408 0 472 43 l 996 938 l 810 938 l 499 415 l 203 938 z "},"ӯ":{"ha":899,"x_min":0,"x_max":0,"o":"m 715 733 l 467 157 l 447 157 b 403 188 419 157 413 161 l 182 733 l 26 733 l 272 117 b 410 26 297 53 326 26 l 272 -294 l 431 -294 l 872 733 z m 125 996 l 125 872 l 763 872 l 763 996 z "},"Ԓ":{"ha":961,"x_min":0,"x_max":0,"o":"m 226 331 b 74 164 160 185 138 164 l 40 164 l 40 0 l 71 0 b 372 279 239 0 282 75 l 585 760 b 635 796 597 786 613 796 b 683 746 667 796 683 776 l 683 -43 b 583 -153 683 -125 656 -153 l 504 -153 l 504 -294 l 633 -294 b 849 -42 783 -294 849 -233 l 849 754 b 639 954 849 874 781 954 b 432 785 514 954 479 890 z "},"ԓ":{"ha":869,"x_min":0,"x_max":0,"o":"m 615 -43 b 515 -153 615 -125 588 -153 l 419 -153 l 419 -294 l 549 -294 b 764 -42 699 -294 764 -233 l 764 596 b 578 757 764 693 701 757 b 388 617 465 757 433 704 l 206 268 b 72 142 144 151 129 142 l 40 142 l 40 0 l 68 0 b 336 225 218 0 253 63 l 526 594 b 571 625 539 619 553 625 b 615 589 599 625 615 613 z "},"Ḍ":{"ha":1024,"x_min":0,"x_max":0,"o":"m 192 938 b 114 861 139 938 114 913 l 114 76 b 192 0 114 25 139 0 l 522 0 b 944 468 797 0 944 153 b 522 938 944 785 796 938 z m 278 757 b 296 774 278 769 283 774 l 522 774 b 781 469 704 774 781 683 b 522 164 781 254 704 164 l 296 164 b 278 181 283 164 278 168 z m 404 -106 l 404 -276 l 553 -276 l 553 -106 z "},"ḍ":{"ha":965,"x_min":0,"x_max":0,"o":"m 713 1051 l 713 733 l 389 733 b 71 367 193 733 71 614 b 389 0 71 119 193 0 l 592 0 b 861 314 767 0 861 103 l 861 1051 z m 549 143 l 403 143 b 219 367 276 143 219 208 b 403 592 219 525 276 592 l 713 592 l 713 321 b 549 143 713 196 667 143 z m 413 -106 l 413 -276 l 561 -276 l 561 -106 z "},"Ḓ":{"ha":1024,"x_min":0,"x_max":0,"o":"m 192 938 b 114 861 139 938 114 913 l 114 76 b 192 0 114 25 139 0 l 522 0 b 944 468 797 0 944 153 b 522 938 944 785 796 938 z m 278 757 b 296 774 278 769 283 774 l 522 774 b 781 469 704 774 781 683 b 522 164 781 254 704 164 l 296 164 b 278 181 283 164 278 168 z m 192 -367 l 349 -367 l 440 -193 b 468 -181 446 -183 456 -181 b 496 -193 482 -181 492 -185 l 589 -367 l 746 -367 l 619 -139 b 469 -68 593 -89 542 -68 b 317 -139 396 -68 343 -87 z "},"ḓ":{"ha":965,"x_min":0,"x_max":0,"o":"m 713 1051 l 713 733 l 389 733 b 71 367 193 733 71 614 b 389 0 71 119 193 0 l 592 0 b 861 314 767 0 861 103 l 861 1051 z m 549 143 l 403 143 b 219 367 276 143 219 208 b 403 592 219 525 276 592 l 713 592 l 713 321 b 549 143 713 196 667 143 z m 200 -367 l 357 -367 l 449 -193 b 476 -181 454 -183 464 -181 b 504 -193 490 -181 500 -185 l 597 -367 l 754 -367 l 628 -139 b 478 -68 601 -89 550 -68 b 325 -139 404 -68 351 -87 z "},"Ḥ":{"ha":1035,"x_min":0,"x_max":0,"o":"m 114 938 l 114 0 l 278 0 l 278 392 l 757 392 l 757 0 l 922 0 l 922 938 l 757 938 l 757 556 l 278 556 l 278 938 z m 444 -106 l 444 -276 l 593 -276 l 593 -106 z "},"ḥ":{"ha":982,"x_min":0,"x_max":0,"o":"m 106 1051 l 106 0 l 253 0 l 253 592 l 511 592 b 732 413 664 592 732 525 l 732 0 l 881 0 l 881 413 b 511 733 881 614 758 733 l 253 733 l 253 1051 z m 415 -106 l 415 -276 l 564 -276 l 564 -106 z "},"Ḽ":{"ha":864,"x_min":0,"x_max":0,"o":"m 104 938 l 104 324 b 450 0 104 136 201 0 l 824 0 l 824 164 l 460 164 b 268 325 313 164 268 235 l 268 938 z m 185 -367 l 342 -367 l 433 -193 b 461 -181 439 -183 449 -181 b 489 -193 475 -181 485 -185 l 582 -367 l 739 -367 l 613 -139 b 463 -68 586 -89 535 -68 b 310 -139 389 -68 336 -87 z "},"ḽ":{"ha":388,"x_min":0,"x_max":0,"o":"m 121 1051 l 121 0 l 268 0 l 268 1051 z m -83 -367 l 74 -367 l 165 -193 b 193 -181 171 -183 181 -181 b 221 -193 207 -181 217 -185 l 314 -367 l 471 -367 l 344 -139 b 194 -68 318 -89 267 -68 b 42 -139 121 -68 68 -87 z "},"Ṅ":{"ha":1221,"x_min":0,"x_max":0,"o":"m 276 742 b 333 796 276 775 296 796 b 392 756 363 796 379 783 l 665 157 b 894 -17 704 50 764 -17 b 1110 189 1039 -17 1110 65 l 1110 938 l 944 938 l 944 196 b 889 143 944 164 924 143 b 829 182 858 143 840 160 l 556 781 b 328 954 517 888 458 954 b 113 750 182 954 113 872 l 113 0 l 276 0 z m 539 1214 l 539 1043 l 688 1043 l 688 1214 z "},"ṅ":{"ha":982,"x_min":0,"x_max":0,"o":"m 208 733 b 106 619 135 733 106 706 l 106 0 l 253 0 l 253 571 b 271 592 253 585 258 592 l 511 592 b 732 413 665 592 732 528 l 732 0 l 881 0 l 881 413 b 511 733 881 615 760 733 z m 413 1010 l 413 839 l 561 839 l 561 1010 z "},"Ṋ":{"ha":1221,"x_min":0,"x_max":0,"o":"m 276 742 b 333 796 276 775 296 796 b 392 756 363 796 379 783 l 665 157 b 894 -17 704 50 764 -17 b 1110 189 1039 -17 1110 65 l 1110 938 l 944 938 l 944 196 b 889 143 944 164 924 143 b 829 182 858 143 840 160 l 556 781 b 328 954 517 888 458 954 b 113 750 182 954 113 872 l 113 0 l 276 0 z m 322 -367 l 479 -367 l 571 -193 b 599 -181 576 -183 586 -181 b 626 -193 613 -181 622 -185 l 719 -367 l 876 -367 l 750 -139 b 600 -68 724 -89 672 -68 b 447 -139 526 -68 474 -87 z "},"ṋ":{"ha":982,"x_min":0,"x_max":0,"o":"m 208 733 b 106 619 135 733 106 706 l 106 0 l 253 0 l 253 571 b 271 592 253 585 258 592 l 511 592 b 732 413 665 592 732 528 l 732 0 l 881 0 l 881 413 b 511 733 881 615 760 733 z m 206 -367 l 363 -367 l 454 -193 b 482 -181 460 -183 469 -181 b 510 -193 496 -181 506 -185 l 603 -367 l 760 -367 l 633 -139 b 483 -68 607 -89 556 -68 b 331 -139 410 -68 357 -87 z "},"Ṛ":{"ha":992,"x_min":0,"x_max":0,"o":"m 111 938 l 111 774 l 625 774 b 756 650 715 774 756 717 b 625 519 756 583 718 519 l 260 519 b 113 371 157 519 113 476 l 113 0 l 276 0 l 276 339 b 300 363 276 356 285 363 l 544 363 l 758 0 l 940 0 l 722 375 b 921 657 865 415 921 540 b 619 938 921 807 831 938 z m 417 -106 l 417 -276 l 565 -276 l 565 -106 z "},"ṛ":{"ha":643,"x_min":0,"x_max":0,"o":"m 303 733 b 104 519 158 733 104 667 l 104 0 l 251 0 l 251 497 b 346 592 251 561 281 592 l 604 592 l 604 733 z m 104 -106 l 104 -276 l 253 -276 l 253 -106 z "},"Ṣ":{"ha":976,"x_min":0,"x_max":0,"o":"m 363 938 b 71 668 154 938 71 824 b 379 397 71 538 129 397 l 597 397 b 744 281 713 397 744 342 b 615 164 744 213 704 164 l 88 164 l 88 0 l 610 0 b 908 275 824 0 908 117 b 593 551 908 410 849 551 l 374 551 b 235 663 264 551 235 606 b 357 774 235 728 272 774 l 838 774 l 838 938 z m 403 -106 l 403 -276 l 551 -276 l 551 -106 z "},"ṣ":{"ha":814,"x_min":0,"x_max":0,"o":"m 310 733 b 71 519 139 733 71 651 b 324 306 71 407 121 306 l 497 306 b 601 224 571 306 601 282 b 506 143 601 167 574 143 l 79 143 l 79 0 l 506 0 b 746 222 678 0 746 92 b 492 429 746 336 694 429 l 319 429 b 215 508 238 429 215 457 b 311 592 215 564 243 592 l 717 592 l 717 733 z m 324 -106 l 324 -276 l 472 -276 l 472 -106 z "},"Ṭ":{"ha":793,"x_min":0,"x_max":0,"o":"m 40 938 l 40 774 l 314 774 l 314 0 l 479 0 l 479 774 l 753 774 l 753 938 z m 322 -106 l 322 -276 l 471 -276 l 471 -106 z "},"ṭ":{"ha":521,"x_min":0,"x_max":0,"o":"m 32 733 l 32 592 l 132 592 l 132 253 b 349 0 132 61 197 0 l 481 0 l 481 135 l 379 135 b 281 244 310 135 281 163 l 281 592 l 483 592 l 483 733 l 281 733 l 281 907 l 132 907 l 132 733 z m 211 -106 l 211 -276 l 360 -276 l 360 -106 z "},"Ẁ":{"ha":1453,"x_min":0,"x_max":0,"o":"m 46 938 l 126 196 b 340 -17 140 69 196 -17 b 561 174 465 -17 536 46 l 671 746 b 728 796 678 779 697 796 b 785 746 758 796 779 779 l 888 174 b 1103 -17 911 42 985 -17 b 1322 196 1250 -17 1308 72 l 1410 938 l 1239 938 l 1160 206 b 1103 143 1156 165 1139 143 b 1043 194 1069 143 1049 161 l 939 769 b 729 954 917 890 851 954 b 514 769 607 954 538 890 l 403 194 b 344 143 396 160 376 143 b 288 206 308 143 292 165 l 218 938 z m 553 1283 l 725 985 l 872 985 l 717 1283 z "},"ẁ":{"ha":1357,"x_min":0,"x_max":0,"o":"m 42 733 l 118 153 b 317 -17 132 51 181 -17 b 519 135 433 -17 496 33 l 624 581 b 678 617 629 606 649 617 b 732 581 706 617 726 606 l 831 135 b 1028 -17 853 33 914 -17 b 1233 153 1161 -17 1219 51 l 1315 733 l 1156 733 l 1079 161 b 1029 114 1075 129 1063 114 b 974 154 996 114 979 128 l 875 599 b 679 747 853 696 796 747 b 478 599 563 747 500 696 l 374 154 b 319 114 367 128 353 114 b 267 161 285 114 271 129 l 201 733 z m 503 1079 l 675 781 l 822 781 l 667 1079 z "},"Ẃ":{"ha":1453,"x_min":0,"x_max":0,"o":"m 46 938 l 126 196 b 340 -17 140 69 196 -17 b 561 174 465 -17 536 46 l 671 746 b 728 796 678 779 697 796 b 785 746 758 796 779 779 l 888 174 b 1103 -17 911 42 985 -17 b 1322 196 1250 -17 1308 72 l 1410 938 l 1239 938 l 1160 206 b 1103 143 1156 165 1139 143 b 1043 194 1069 143 1049 161 l 939 769 b 729 954 917 890 851 954 b 514 769 607 954 538 890 l 403 194 b 344 143 396 160 376 143 b 288 206 308 143 292 165 l 218 938 z m 740 1283 l 585 985 l 731 985 l 904 1283 z "},"ẃ":{"ha":1357,"x_min":0,"x_max":0,"o":"m 42 733 l 118 153 b 317 -17 132 51 181 -17 b 519 135 433 -17 496 33 l 624 581 b 678 617 629 606 649 617 b 732 581 706 617 726 606 l 831 135 b 1028 -17 853 33 914 -17 b 1233 153 1161 -17 1219 51 l 1315 733 l 1156 733 l 1079 161 b 1029 114 1075 129 1063 114 b 974 154 996 114 979 128 l 875 599 b 679 747 853 696 796 747 b 478 599 563 747 500 696 l 374 154 b 319 114 367 128 353 114 b 267 161 285 114 271 129 l 201 733 z m 690 1079 l 535 781 l 681 781 l 854 1079 z "},"Ẅ":{"ha":1453,"x_min":0,"x_max":0,"o":"m 46 938 l 126 196 b 340 -17 140 69 196 -17 b 561 174 465 -17 536 46 l 671 746 b 728 796 678 779 697 796 b 785 746 758 796 779 779 l 888 174 b 1103 -17 911 42 985 -17 b 1322 196 1250 -17 1308 72 l 1410 938 l 1239 938 l 1160 206 b 1103 143 1156 165 1139 143 b 1043 194 1069 143 1049 161 l 939 769 b 729 954 917 890 851 954 b 514 769 607 954 538 890 l 403 194 b 344 143 396 160 376 143 b 288 206 308 143 292 165 l 218 938 z m 488 1214 l 488 1043 l 636 1043 l 636 1214 z m 821 1214 l 821 1043 l 969 1043 l 969 1214 z "},"ẅ":{"ha":1357,"x_min":0,"x_max":0,"o":"m 42 733 l 118 153 b 317 -17 132 51 181 -17 b 519 135 433 -17 496 33 l 624 581 b 678 617 629 606 649 617 b 732 581 706 617 726 606 l 831 135 b 1028 -17 853 33 914 -17 b 1233 153 1161 -17 1219 51 l 1315 733 l 1156 733 l 1079 161 b 1029 114 1075 129 1063 114 b 974 154 996 114 979 128 l 875 599 b 679 747 853 696 796 747 b 478 599 563 747 500 696 l 374 154 b 319 114 367 128 353 114 b 267 161 285 114 271 129 l 201 733 z m 438 1010 l 438 839 l 586 839 l 586 1010 z m 771 1010 l 771 839 l 919 839 l 919 1010 z "},"Ẓ":{"ha":1032,"x_min":0,"x_max":0,"o":"m 113 938 l 113 774 l 717 774 b 788 713 764 774 788 749 b 739 643 788 681 769 656 l 231 425 b 79 206 129 382 79 313 b 306 0 79 75 156 0 l 935 0 l 935 164 l 317 164 b 247 225 271 164 247 189 b 294 294 247 257 265 282 l 806 513 b 956 732 906 556 956 625 b 728 938 956 863 878 938 z m 440 -106 l 440 -276 l 589 -276 l 589 -106 z "},"ẓ":{"ha":867,"x_min":0,"x_max":0,"o":"m 97 733 l 97 592 l 600 592 b 657 549 639 592 657 576 b 618 497 657 529 649 508 l 196 346 b 71 168 111 315 71 250 b 260 0 71 67 133 0 l 782 0 l 782 142 l 268 142 b 213 186 231 142 213 158 b 251 236 213 210 226 226 l 672 389 b 797 565 749 417 797 475 b 608 733 797 667 736 733 z m 360 -106 l 360 -276 l 508 -276 l 508 -106 z "},"Ạ":{"ha":1089,"x_min":0,"x_max":0,"o":"m 882 0 l 1064 0 l 747 833 b 553 954 717 922 650 954 b 356 833 454 954 388 922 l 26 0 l 207 0 l 283 193 l 808 193 z m 504 754 b 551 786 514 776 529 786 b 597 754 574 786 589 776 l 750 349 l 344 349 z m 475 -106 l 475 -276 l 624 -276 l 624 -106 z "},"ạ":{"ha":933,"x_min":0,"x_max":0,"o":"m 135 733 l 135 592 l 574 592 b 686 490 654 592 686 547 l 686 435 l 338 435 b 90 224 157 435 90 357 b 336 0 90 85 163 0 l 679 0 b 831 147 803 0 831 42 l 831 492 b 575 733 831 631 758 733 z m 646 143 l 338 143 b 235 232 264 143 235 178 b 340 318 235 286 263 318 l 686 318 l 686 181 b 646 143 686 154 675 143 z m 396 -106 l 396 -276 l 544 -276 l 544 -106 z "},"Ả":{"ha":1089,"x_min":0,"x_max":0,"o":"m 882 0 l 1064 0 l 747 833 b 553 954 717 922 650 954 b 356 833 454 954 388 922 l 26 0 l 207 0 l 283 193 l 808 193 z m 504 754 b 551 786 514 776 529 786 b 597 754 574 786 589 776 l 750 349 l 344 349 z m 422 1463 l 422 1349 l 654 1349 b 743 1274 717 1349 743 1319 b 667 1194 743 1229 719 1194 l 631 1194 b 489 1046 521 1194 489 1149 l 489 985 l 592 985 l 592 1022 b 660 1090 592 1068 606 1090 l 689 1090 b 863 1278 810 1090 863 1175 b 656 1463 863 1389 803 1463 z "},"ả":{"ha":933,"x_min":0,"x_max":0,"o":"m 135 733 l 135 592 l 574 592 b 686 490 654 592 686 547 l 686 435 l 338 435 b 90 224 157 435 90 357 b 336 0 90 85 163 0 l 679 0 b 831 147 803 0 831 42 l 831 492 b 575 733 831 631 758 733 z m 646 143 l 338 143 b 235 232 264 143 235 178 b 340 318 235 286 263 318 l 686 318 l 686 181 b 646 143 686 154 675 143 z m 317 1258 l 317 1144 l 549 1144 b 638 1069 611 1144 638 1115 b 561 990 638 1025 614 990 l 525 990 b 383 842 415 990 383 944 l 383 781 l 486 781 l 486 818 b 554 886 486 864 500 886 l 583 886 b 757 1074 704 886 757 971 b 550 1258 757 1185 697 1258 z "},"Ấ":{"ha":1089,"x_min":0,"x_max":0,"o":"m 882 0 l 1064 0 l 747 833 b 553 954 717 922 650 954 b 356 833 454 954 388 922 l 26 0 l 207 0 l 283 193 l 808 193 z m 504 754 b 551 786 514 776 529 786 b 597 754 574 786 589 776 l 750 349 l 344 349 z m 956 1419 l 800 1121 l 946 1121 l 1119 1419 z m 269 985 l 426 985 l 518 1158 b 546 1171 524 1168 533 1171 b 574 1158 560 1171 569 1167 l 667 985 l 824 985 l 697 1213 b 547 1283 671 1263 619 1283 b 394 1213 474 1283 421 1264 z "},"ấ":{"ha":933,"x_min":0,"x_max":0,"o":"m 135 733 l 135 592 l 574 592 b 686 490 654 592 686 547 l 686 435 l 338 435 b 90 224 157 435 90 357 b 336 0 90 85 163 0 l 679 0 b 831 147 803 0 831 42 l 831 492 b 575 733 831 631 758 733 z m 646 143 l 338 143 b 235 232 264 143 235 178 b 340 318 235 286 263 318 l 686 318 l 686 181 b 646 143 686 154 675 143 z m 853 1258 l 697 960 l 843 960 l 1017 1258 z m 189 781 l 346 781 l 438 954 b 465 967 443 964 453 967 b 493 954 479 967 489 963 l 586 781 l 743 781 l 617 1008 b 467 1079 590 1058 539 1079 b 314 1008 393 1079 340 1060 z "},"Ầ":{"ha":1089,"x_min":0,"x_max":0,"o":"m 882 0 l 1064 0 l 747 833 b 553 954 717 922 650 954 b 356 833 454 954 388 922 l 26 0 l 207 0 l 283 193 l 808 193 z m 504 754 b 551 786 514 776 529 786 b 597 754 574 786 589 776 l 750 349 l 344 349 z m -28 1419 l 144 1121 l 292 1121 l 136 1419 z m 269 985 l 426 985 l 518 1158 b 546 1171 524 1168 533 1171 b 574 1158 560 1171 569 1167 l 667 985 l 824 985 l 697 1213 b 547 1283 671 1263 619 1283 b 394 1213 474 1283 421 1264 z "},"ầ":{"ha":933,"x_min":0,"x_max":0,"o":"m 135 733 l 135 592 l 574 592 b 686 490 654 592 686 547 l 686 435 l 338 435 b 90 224 157 435 90 357 b 336 0 90 85 163 0 l 679 0 b 831 147 803 0 831 42 l 831 492 b 575 733 831 631 758 733 z m 646 143 l 338 143 b 235 232 264 143 235 178 b 340 318 235 286 263 318 l 686 318 l 686 181 b 646 143 686 154 675 143 z m -82 1258 l 90 960 l 238 960 l 82 1258 z m 190 781 l 347 781 l 439 954 b 467 967 444 964 454 967 b 494 954 481 967 490 963 l 588 781 l 744 781 l 618 1008 b 468 1079 592 1058 540 1079 b 315 1008 394 1079 342 1060 z "},"Ẩ":{"ha":1089,"x_min":0,"x_max":0,"o":"m 882 0 l 1064 0 l 747 833 b 553 954 717 922 650 954 b 356 833 454 954 388 922 l 26 0 l 207 0 l 283 193 l 808 193 z m 504 754 b 551 786 514 776 529 786 b 597 754 574 786 589 776 l 750 349 l 344 349 z m 271 985 l 428 985 l 519 1158 b 547 1171 525 1168 535 1171 b 575 1158 561 1171 571 1167 l 668 985 l 825 985 l 699 1213 b 549 1283 672 1263 621 1283 b 396 1213 475 1283 422 1264 z m 758 1558 l 758 1444 l 990 1444 b 1079 1369 1053 1444 1079 1415 b 1003 1290 1079 1325 1056 1290 l 967 1290 b 825 1142 857 1290 825 1244 l 825 1081 l 928 1081 l 928 1118 b 996 1186 928 1164 942 1186 l 1025 1186 b 1199 1374 1146 1186 1199 1271 b 992 1558 1199 1485 1139 1558 z "},"ẩ":{"ha":933,"x_min":0,"x_max":0,"o":"m 135 733 l 135 592 l 574 592 b 686 490 654 592 686 547 l 686 435 l 338 435 b 90 224 157 435 90 357 b 336 0 90 85 163 0 l 679 0 b 831 147 803 0 831 42 l 831 492 b 575 733 831 631 758 733 z m 646 143 l 338 143 b 235 232 264 143 235 178 b 340 318 235 286 263 318 l 686 318 l 686 181 b 646 143 686 154 675 143 z m 190 781 l 347 781 l 439 954 b 467 967 444 964 454 967 b 494 954 481 967 490 963 l 588 781 l 744 781 l 618 1008 b 468 1079 592 1058 540 1079 b 315 1008 394 1079 342 1060 z m 633 1438 l 633 1324 l 865 1324 b 954 1249 928 1324 954 1294 b 878 1169 954 1204 931 1169 l 842 1169 b 700 1021 732 1169 700 1124 l 700 960 l 803 960 l 803 997 b 871 1065 803 1043 817 1065 l 900 1065 b 1074 1253 1021 1065 1074 1150 b 867 1438 1074 1364 1014 1438 z "},"Ẫ":{"ha":1089,"x_min":0,"x_max":0,"o":"m 882 0 l 1064 0 l 747 833 b 553 954 717 922 650 954 b 356 833 454 954 388 922 l 26 0 l 207 0 l 283 193 l 808 193 z m 504 754 b 551 786 514 776 529 786 b 597 754 574 786 589 776 l 750 349 l 344 349 z m 229 1446 l 229 1322 l 867 1322 l 867 1446 z m 271 985 l 428 985 l 519 1158 b 547 1171 525 1168 535 1171 b 575 1158 561 1171 571 1167 l 668 985 l 825 985 l 699 1213 b 549 1283 672 1263 621 1283 b 396 1213 475 1283 422 1264 z "},"ẫ":{"ha":933,"x_min":0,"x_max":0,"o":"m 135 733 l 135 592 l 574 592 b 686 490 654 592 686 547 l 686 435 l 338 435 b 90 224 157 435 90 357 b 336 0 90 85 163 0 l 679 0 b 831 147 803 0 831 42 l 831 492 b 575 733 831 631 758 733 z m 646 143 l 338 143 b 235 232 264 143 235 178 b 340 318 235 286 263 318 l 686 318 l 686 181 b 646 143 686 154 675 143 z m 151 1311 l 151 1188 l 789 1188 l 789 1311 z m 194 781 l 351 781 l 443 954 b 471 967 449 964 458 967 b 499 954 485 967 494 963 l 592 781 l 749 781 l 622 1008 b 472 1079 596 1058 544 1079 b 319 1008 399 1079 346 1060 z "},"Ậ":{"ha":1089,"x_min":0,"x_max":0,"o":"m 882 0 l 1064 0 l 747 833 b 553 954 717 922 650 954 b 356 833 454 954 388 922 l 26 0 l 207 0 l 283 193 l 808 193 z m 504 754 b 551 786 514 776 529 786 b 597 754 574 786 589 776 l 750 349 l 344 349 z m 431 -106 l 431 -276 l 579 -276 l 579 -106 z m 271 985 l 428 985 l 519 1158 b 547 1171 525 1168 535 1171 b 575 1158 561 1171 571 1167 l 668 985 l 825 985 l 699 1213 b 549 1283 672 1263 621 1283 b 396 1213 475 1283 422 1264 z "},"ậ":{"ha":933,"x_min":0,"x_max":0,"o":"m 135 733 l 135 592 l 574 592 b 686 490 654 592 686 547 l 686 435 l 338 435 b 90 224 157 435 90 357 b 336 0 90 85 163 0 l 679 0 b 831 147 803 0 831 42 l 831 492 b 575 733 831 631 758 733 z m 646 143 l 338 143 b 235 232 264 143 235 178 b 340 318 235 286 263 318 l 686 318 l 686 181 b 646 143 686 154 675 143 z m 351 -106 l 351 -276 l 500 -276 l 500 -106 z m 189 781 l 346 781 l 438 954 b 465 967 443 964 453 967 b 493 954 479 967 489 963 l 586 781 l 743 781 l 617 1008 b 467 1079 590 1058 539 1079 b 314 1008 393 1079 340 1060 z "},"Ắ":{"ha":1089,"x_min":0,"x_max":0,"o":"m 882 0 l 1064 0 l 747 833 b 553 954 717 922 650 954 b 356 833 454 954 388 922 l 26 0 l 207 0 l 283 193 l 808 193 z m 504 754 b 551 786 514 776 529 786 b 597 754 574 786 589 776 l 750 349 l 344 349 z m 593 1597 l 438 1299 l 583 1299 l 757 1597 z m 265 1283 l 265 1204 b 549 985 265 1043 326 985 b 831 1204 768 985 831 1043 l 831 1283 l 706 1283 l 706 1206 b 549 1086 706 1118 675 1086 b 389 1206 421 1086 389 1118 l 389 1283 z "},"ắ":{"ha":933,"x_min":0,"x_max":0,"o":"m 135 733 l 135 592 l 574 592 b 686 490 654 592 686 547 l 686 435 l 338 435 b 90 224 157 435 90 357 b 336 0 90 85 163 0 l 679 0 b 831 147 803 0 831 42 l 831 492 b 575 733 831 631 758 733 z m 646 143 l 338 143 b 235 232 264 143 235 178 b 340 318 235 286 263 318 l 686 318 l 686 181 b 646 143 686 154 675 143 z m 536 1394 l 381 1096 l 526 1096 l 700 1394 z m 194 1079 l 194 1000 b 478 781 194 839 256 781 b 760 1000 697 781 760 839 l 760 1079 l 635 1079 l 635 1001 b 478 882 635 914 604 882 b 318 1001 350 882 318 914 l 318 1079 z "},"Ằ":{"ha":1089,"x_min":0,"x_max":0,"o":"m 882 0 l 1064 0 l 747 833 b 553 954 717 922 650 954 b 356 833 454 954 388 922 l 26 0 l 207 0 l 283 193 l 808 193 z m 504 754 b 551 786 514 776 529 786 b 597 754 574 786 589 776 l 750 349 l 344 349 z m 265 1283 l 265 1204 b 549 985 265 1043 326 985 b 831 1204 768 985 831 1043 l 831 1283 l 706 1283 l 706 1206 b 549 1086 706 1118 675 1086 b 389 1206 421 1086 389 1118 l 389 1283 z m 354 1597 l 526 1299 l 674 1299 l 518 1597 z "},"ằ":{"ha":933,"x_min":0,"x_max":0,"o":"m 135 733 l 135 592 l 574 592 b 686 490 654 592 686 547 l 686 435 l 338 435 b 90 224 157 435 90 357 b 336 0 90 85 163 0 l 679 0 b 831 147 803 0 831 42 l 831 492 b 575 733 831 631 758 733 z m 646 143 l 338 143 b 235 232 264 143 235 178 b 340 318 235 286 263 318 l 686 318 l 686 181 b 646 143 686 154 675 143 z m 190 1079 l 190 1000 b 474 781 190 839 251 781 b 756 1000 693 781 756 839 l 756 1079 l 631 1079 l 631 1001 b 474 882 631 914 600 882 b 314 1001 346 882 314 914 l 314 1079 z m 271 1394 l 443 1096 l 590 1096 l 435 1394 z "},"Ẳ":{"ha":1089,"x_min":0,"x_max":0,"o":"m 882 0 l 1064 0 l 747 833 b 553 954 717 922 650 954 b 356 833 454 954 388 922 l 26 0 l 207 0 l 283 193 l 808 193 z m 504 754 b 551 786 514 776 529 786 b 597 754 574 786 589 776 l 750 349 l 344 349 z m 264 1300 l 264 1221 b 547 1001 264 1060 325 1001 b 829 1221 767 1001 829 1060 l 829 1300 l 704 1300 l 704 1222 b 547 1103 704 1135 674 1103 b 388 1222 419 1103 388 1135 l 388 1300 z m 422 1735 l 422 1621 l 654 1621 b 743 1546 717 1621 743 1592 b 667 1467 743 1501 719 1467 l 631 1467 b 489 1318 521 1467 489 1421 l 489 1257 l 592 1257 l 592 1294 b 660 1363 592 1340 606 1363 l 689 1363 b 863 1550 810 1363 863 1447 b 656 1735 863 1661 803 1735 z "},"ẳ":{"ha":933,"x_min":0,"x_max":0,"o":"m 135 733 l 135 592 l 574 592 b 686 490 654 592 686 547 l 686 435 l 338 435 b 90 224 157 435 90 357 b 336 0 90 85 163 0 l 679 0 b 831 147 803 0 831 42 l 831 492 b 575 733 831 631 758 733 z m 646 143 l 338 143 b 235 232 264 143 235 178 b 340 318 235 286 263 318 l 686 318 l 686 181 b 646 143 686 154 675 143 z m 188 1079 l 188 1000 b 471 781 188 839 249 781 b 753 1000 690 781 753 839 l 753 1079 l 628 1079 l 628 1001 b 471 882 628 914 597 882 b 311 1001 343 882 311 914 l 311 1079 z m 351 1574 l 351 1460 l 583 1460 b 672 1385 646 1460 672 1431 b 596 1306 672 1340 649 1306 l 560 1306 b 418 1157 450 1306 418 1260 l 418 1096 l 521 1096 l 521 1133 b 589 1201 521 1179 535 1201 l 618 1201 b 792 1389 739 1201 792 1286 b 585 1574 792 1500 732 1574 z "},"Ẵ":{"ha":1089,"x_min":0,"x_max":0,"o":"m 882 0 l 1064 0 l 747 833 b 553 954 717 922 650 954 b 356 833 454 954 388 922 l 26 0 l 207 0 l 283 193 l 808 193 z m 504 754 b 551 786 514 776 529 786 b 597 754 574 786 589 776 l 750 349 l 344 349 z m 264 1283 l 264 1204 b 547 985 264 1043 325 985 b 829 1204 767 985 829 1043 l 829 1283 l 704 1283 l 704 1206 b 547 1086 704 1118 674 1086 b 388 1206 419 1086 388 1118 l 388 1283 z m 229 1472 l 229 1349 l 867 1349 l 867 1472 z "},"ẵ":{"ha":933,"x_min":0,"x_max":0,"o":"m 135 733 l 135 592 l 574 592 b 686 490 654 592 686 547 l 686 435 l 338 435 b 90 224 157 435 90 357 b 336 0 90 85 163 0 l 679 0 b 831 147 803 0 831 42 l 831 492 b 575 733 831 631 758 733 z m 646 143 l 338 143 b 235 232 264 143 235 178 b 340 318 235 286 263 318 l 686 318 l 686 181 b 646 143 686 154 675 143 z m 188 1079 l 188 1000 b 471 781 188 839 249 781 b 753 1000 690 781 753 839 l 753 1079 l 628 1079 l 628 1001 b 471 882 628 914 597 882 b 311 1001 343 882 311 914 l 311 1079 z m 156 1311 l 156 1188 l 793 1188 l 793 1311 z "},"Ặ":{"ha":1089,"x_min":0,"x_max":0,"o":"m 882 0 l 1064 0 l 747 833 b 553 954 717 922 650 954 b 356 833 454 954 388 922 l 26 0 l 207 0 l 283 193 l 808 193 z m 504 754 b 551 786 514 776 529 786 b 597 754 574 786 589 776 l 750 349 l 344 349 z m 265 1283 l 265 1204 b 549 985 265 1043 326 985 b 831 1204 768 985 831 1043 l 831 1283 l 706 1283 l 706 1206 b 549 1086 706 1118 675 1086 b 389 1206 421 1086 389 1118 l 389 1283 z m 474 -106 l 474 -276 l 622 -276 l 622 -106 z "},"ặ":{"ha":933,"x_min":0,"x_max":0,"o":"m 135 733 l 135 592 l 574 592 b 686 490 654 592 686 547 l 686 435 l 338 435 b 90 224 157 435 90 357 b 336 0 90 85 163 0 l 679 0 b 831 147 803 0 831 42 l 831 492 b 575 733 831 631 758 733 z m 646 143 l 338 143 b 235 232 264 143 235 178 b 340 318 235 286 263 318 l 686 318 l 686 181 b 646 143 686 154 675 143 z m 183 1079 l 183 1000 b 467 781 183 839 244 781 b 749 1000 686 781 749 839 l 749 1079 l 624 1079 l 624 1001 b 467 882 624 914 593 882 b 307 1001 339 882 307 914 l 307 1079 z m 393 -106 l 393 -276 l 542 -276 l 542 -106 z "},"Ẹ":{"ha":963,"x_min":0,"x_max":0,"o":"m 393 938 b 79 682 172 938 79 832 b 211 471 79 579 124 507 b 76 256 125 435 76 363 b 389 0 76 110 167 0 l 864 0 l 864 164 l 389 164 b 247 282 293 164 247 208 b 390 396 247 358 296 396 l 856 396 l 856 544 l 394 544 b 251 656 300 544 251 579 b 393 774 251 728 294 774 l 863 774 l 863 938 z m 417 -106 l 417 -276 l 565 -276 l 565 -106 z "},"ẹ":{"ha":906,"x_min":0,"x_max":0,"o":"m 346 733 b 90 492 163 733 90 631 l 90 242 b 346 0 90 103 163 0 l 794 0 l 794 143 l 346 143 b 233 244 265 143 233 186 l 233 297 l 582 297 b 831 508 763 297 831 374 b 583 733 831 650 757 733 z m 233 490 b 346 592 233 547 265 592 l 582 592 b 686 500 654 592 686 556 b 578 413 686 446 657 413 l 233 413 z m 376 -106 l 376 -276 l 525 -276 l 525 -106 z "},"Ẻ":{"ha":963,"x_min":0,"x_max":0,"o":"m 393 938 b 79 682 172 938 79 832 b 211 471 79 579 124 507 b 76 256 125 435 76 363 b 389 0 76 110 167 0 l 864 0 l 864 164 l 389 164 b 247 282 293 164 247 208 b 390 396 247 358 296 396 l 856 396 l 856 544 l 394 544 b 251 656 300 544 251 579 b 393 774 251 728 294 774 l 863 774 l 863 938 z m 378 1463 l 378 1349 l 610 1349 b 699 1274 672 1349 699 1319 b 622 1194 699 1229 675 1194 l 586 1194 b 444 1046 476 1194 444 1149 l 444 985 l 547 985 l 547 1022 b 615 1090 547 1068 561 1090 l 644 1090 b 818 1278 765 1090 818 1175 b 611 1463 818 1389 758 1463 z "},"ẻ":{"ha":906,"x_min":0,"x_max":0,"o":"m 346 733 b 90 492 163 733 90 631 l 90 242 b 346 0 90 103 163 0 l 794 0 l 794 143 l 346 143 b 233 244 265 143 233 186 l 233 297 l 582 297 b 831 508 763 297 831 374 b 583 733 831 650 757 733 z m 233 490 b 346 592 233 547 265 592 l 582 592 b 686 500 654 592 686 556 b 578 413 686 446 657 413 l 233 413 z m 344 1258 l 344 1144 l 576 1144 b 665 1069 639 1144 665 1115 b 589 990 665 1025 642 990 l 553 990 b 411 842 443 990 411 944 l 411 781 l 514 781 l 514 818 b 582 886 514 864 528 886 l 611 886 b 785 1074 732 886 785 971 b 578 1258 785 1185 725 1258 z "},"Ế":{"ha":963,"x_min":0,"x_max":0,"o":"m 393 938 b 79 682 172 938 79 832 b 211 471 79 579 124 507 b 76 256 125 435 76 363 b 389 0 76 110 167 0 l 864 0 l 864 164 l 389 164 b 247 282 293 164 247 208 b 390 396 247 358 296 396 l 856 396 l 856 544 l 394 544 b 251 656 300 544 251 579 b 393 774 251 728 294 774 l 863 774 l 863 938 z m 950 1419 l 794 1121 l 940 1121 l 1114 1419 z m 263 985 l 419 985 l 511 1158 b 539 1171 517 1168 526 1171 b 567 1158 553 1171 563 1167 l 660 985 l 817 985 l 690 1213 b 540 1283 664 1263 613 1283 b 388 1213 467 1283 414 1264 z "},"ế":{"ha":906,"x_min":0,"x_max":0,"o":"m 346 733 b 90 492 163 733 90 631 l 90 242 b 346 0 90 103 163 0 l 794 0 l 794 143 l 346 143 b 233 244 265 143 233 186 l 233 297 l 582 297 b 831 508 763 297 831 374 b 583 733 831 650 757 733 z m 233 490 b 346 592 233 547 265 592 l 582 592 b 686 500 654 592 686 556 b 578 413 686 446 657 413 l 233 413 z m 850 1258 l 694 960 l 840 960 l 1014 1258 z m 185 781 l 342 781 l 433 954 b 461 967 439 964 449 967 b 489 954 475 967 485 963 l 582 781 l 739 781 l 613 1008 b 463 1079 586 1058 535 1079 b 310 1008 389 1079 336 1060 z "},"Ề":{"ha":963,"x_min":0,"x_max":0,"o":"m 393 938 b 79 682 172 938 79 832 b 211 471 79 579 124 507 b 76 256 125 435 76 363 b 389 0 76 110 167 0 l 864 0 l 864 164 l 389 164 b 247 282 293 164 247 208 b 390 396 247 358 296 396 l 856 396 l 856 544 l 394 544 b 251 656 300 544 251 579 b 393 774 251 728 294 774 l 863 774 l 863 938 z m -31 1419 l 142 1121 l 289 1121 l 133 1419 z m 264 985 l 421 985 l 513 1158 b 540 1171 518 1168 528 1171 b 568 1158 554 1171 564 1167 l 661 985 l 818 985 l 692 1213 b 542 1283 665 1263 614 1283 b 389 1213 468 1283 415 1264 z "},"ề":{"ha":906,"x_min":0,"x_max":0,"o":"m 346 733 b 90 492 163 733 90 631 l 90 242 b 346 0 90 103 163 0 l 794 0 l 794 143 l 346 143 b 233 244 265 143 233 186 l 233 297 l 582 297 b 831 508 763 297 831 374 b 583 733 831 650 757 733 z m 233 490 b 346 592 233 547 265 592 l 582 592 b 686 500 654 592 686 556 b 578 413 686 446 657 413 l 233 413 z m -89 1258 l 83 960 l 231 960 l 75 1258 z m 183 781 l 340 781 l 432 954 b 460 967 438 964 447 967 b 488 954 474 967 483 963 l 581 781 l 738 781 l 611 1008 b 461 1079 585 1058 533 1079 b 308 1008 388 1079 335 1060 z "},"Ể":{"ha":963,"x_min":0,"x_max":0,"o":"m 393 938 b 79 682 172 938 79 832 b 211 471 79 579 124 507 b 76 256 125 435 76 363 b 389 0 76 110 167 0 l 864 0 l 864 164 l 389 164 b 247 282 293 164 247 208 b 390 396 247 358 296 396 l 856 396 l 856 544 l 394 544 b 251 656 300 544 251 579 b 393 774 251 728 294 774 l 863 774 l 863 938 z m 219 985 l 376 985 l 468 1158 b 496 1171 474 1168 483 1171 b 524 1158 510 1171 519 1167 l 617 985 l 774 985 l 647 1213 b 497 1283 621 1263 569 1283 b 344 1213 424 1283 371 1264 z m 707 1558 l 707 1444 l 939 1444 b 1028 1369 1001 1444 1028 1415 b 951 1290 1028 1325 1004 1290 l 915 1290 b 774 1142 806 1290 774 1244 l 774 1081 l 876 1081 l 876 1118 b 944 1186 876 1164 890 1186 l 974 1186 b 1147 1374 1094 1186 1147 1271 b 940 1558 1147 1485 1088 1558 z "},"ể":{"ha":906,"x_min":0,"x_max":0,"o":"m 346 733 b 90 492 163 733 90 631 l 90 242 b 346 0 90 103 163 0 l 794 0 l 794 143 l 346 143 b 233 244 265 143 233 186 l 233 297 l 582 297 b 831 508 763 297 831 374 b 583 733 831 650 757 733 z m 233 490 b 346 592 233 547 265 592 l 582 592 b 686 500 654 592 686 556 b 578 413 686 446 657 413 l 233 413 z m 175 781 l 332 781 l 424 954 b 451 967 429 964 439 967 b 479 954 465 967 475 963 l 572 781 l 729 781 l 603 1008 b 453 1079 576 1058 525 1079 b 300 1008 379 1079 326 1060 z m 615 1438 l 615 1324 l 847 1324 b 936 1249 910 1324 936 1294 b 860 1169 936 1204 913 1169 l 824 1169 b 682 1021 714 1169 682 1124 l 682 960 l 785 960 l 785 997 b 853 1065 785 1043 799 1065 l 882 1065 b 1056 1253 1003 1065 1056 1150 b 849 1438 1056 1364 996 1438 z "},"Ễ":{"ha":963,"x_min":0,"x_max":0,"o":"m 393 938 b 79 682 172 938 79 832 b 211 471 79 579 124 507 b 76 256 125 435 76 363 b 389 0 76 110 167 0 l 864 0 l 864 164 l 389 164 b 247 282 293 164 247 208 b 390 396 247 358 296 396 l 856 396 l 856 544 l 394 544 b 251 656 300 544 251 579 b 393 774 251 728 294 774 l 863 774 l 863 938 z m 190 1472 l 190 1349 l 828 1349 l 828 1472 z m 232 985 l 389 985 l 481 1158 b 508 1171 486 1168 496 1171 b 536 1158 522 1171 532 1167 l 629 985 l 786 985 l 660 1213 b 510 1283 633 1263 582 1283 b 357 1213 436 1283 383 1264 z "},"ễ":{"ha":906,"x_min":0,"x_max":0,"o":"m 346 733 b 90 492 163 733 90 631 l 90 242 b 346 0 90 103 163 0 l 794 0 l 794 143 l 346 143 b 233 244 265 143 233 186 l 233 297 l 582 297 b 831 508 763 297 831 374 b 583 733 831 650 757 733 z m 233 490 b 346 592 233 547 265 592 l 582 592 b 686 500 654 592 686 556 b 578 413 686 446 657 413 l 233 413 z m 139 1311 l 139 1188 l 776 1188 l 776 1311 z m 181 781 l 338 781 l 429 954 b 457 967 435 964 444 967 b 485 954 471 967 481 963 l 578 781 l 735 781 l 608 1008 b 458 1079 582 1058 531 1079 b 306 1008 385 1079 332 1060 z "},"Ệ":{"ha":963,"x_min":0,"x_max":0,"o":"m 393 938 b 79 682 172 938 79 832 b 211 471 79 579 124 507 b 76 256 125 435 76 363 b 389 0 76 110 167 0 l 864 0 l 864 164 l 389 164 b 247 282 293 164 247 208 b 390 396 247 358 296 396 l 856 396 l 856 544 l 394 544 b 251 656 300 544 251 579 b 393 774 251 728 294 774 l 863 774 l 863 938 z m 449 -106 l 449 -276 l 597 -276 l 597 -106 z m 247 985 l 404 985 l 496 1158 b 524 1171 501 1168 511 1171 b 551 1158 538 1171 547 1167 l 644 985 l 801 985 l 675 1213 b 525 1283 649 1263 597 1283 b 372 1213 451 1283 399 1264 z "}}}
